ISO-10303-21;
HEADER;
/* Generated by software containing ST-Developer
 * from STEP Tools, Inc. (www.steptools.com) 
 */

FILE_DESCRIPTION(
/* description */ (''),
/* implementation_level */ '2;1');

FILE_NAME(
/* name */ 'CPAP valve 3-way - Valve - C -v2.step',
/* time_stamp */ '2026-07-24T23:40:36+02:00',
/* author */ (''),
/* organization */ (''),
/* preprocessor_version */ 'ST-DEVELOPER v20.1',
/* originating_system */ 'Autodesk Translation Framework v15.8.0.0',
/* authorisation */ '');

FILE_SCHEMA (('AUTOMOTIVE_DESIGN { 1 0 10303 214 3 1 1 }'));
ENDSEC;

DATA;
#10=MECHANICAL_DESIGN_GEOMETRIC_PRESENTATION_REPRESENTATION('',(#13),#316);
#11=SHAPE_REPRESENTATION_RELATIONSHIP('SRR','None',#323,#12);
#12=ADVANCED_BREP_SHAPE_REPRESENTATION('',(#14),#315);
#13=STYLED_ITEM('',(#332),#14);
#14=MANIFOLD_SOLID_BREP('Body1',#176);
#15=FACE_BOUND('',#42,.T.);
#16=FACE_BOUND('',#43,.T.);
#17=FACE_BOUND('',#46,.T.);
#18=FACE_BOUND('',#50,.T.);
#19=PLANE('',#193);
#20=PLANE('',#197);
#21=PLANE('',#198);
#22=PLANE('',#199);
#23=PLANE('',#204);
#24=PLANE('',#210);
#25=FACE_OUTER_BOUND('',#36,.T.);
#26=FACE_OUTER_BOUND('',#37,.T.);
#27=FACE_OUTER_BOUND('',#38,.T.);
#28=FACE_OUTER_BOUND('',#39,.T.);
#29=FACE_OUTER_BOUND('',#40,.T.);
#30=FACE_OUTER_BOUND('',#41,.T.);
#31=FACE_OUTER_BOUND('',#44,.T.);
#32=FACE_OUTER_BOUND('',#45,.T.);
#33=FACE_OUTER_BOUND('',#47,.T.);
#34=FACE_OUTER_BOUND('',#48,.T.);
#35=FACE_OUTER_BOUND('',#49,.T.);
#36=EDGE_LOOP('',(#118,#119,#120,#121));
#37=EDGE_LOOP('',(#122,#123,#124,#125));
#38=EDGE_LOOP('',(#126,#127,#128,#129));
#39=EDGE_LOOP('',(#130,#131,#132,#133));
#40=EDGE_LOOP('',(#134,#135,#136,#137));
#41=EDGE_LOOP('',(#138));
#42=EDGE_LOOP('',(#139,#140,#141,#142));
#43=EDGE_LOOP('',(#143));
#44=EDGE_LOOP('',(#144,#145,#146,#147));
#45=EDGE_LOOP('',(#148));
#46=EDGE_LOOP('',(#149));
#47=EDGE_LOOP('',(#150,#151,#152,#153));
#48=EDGE_LOOP('',(#154,#155,#156,#157));
#49=EDGE_LOOP('',(#158));
#50=EDGE_LOOP('',(#159));
#51=LINE('',#272,#62);
#52=LINE('',#275,#63);
#53=LINE('',#278,#64);
#54=LINE('',#280,#65);
#55=LINE('',#281,#66);
#56=LINE('',#286,#67);
#57=LINE('',#289,#68);
#58=LINE('',#290,#69);
#59=LINE('',#300,#70);
#60=LINE('',#307,#71);
#61=LINE('',#311,#72);
#62=VECTOR('',#217,10.);
#63=VECTOR('',#220,10.);
#64=VECTOR('',#223,10.);
#65=VECTOR('',#224,10.);
#66=VECTOR('',#225,10.);
#67=VECTOR('',#230,10.);
#68=VECTOR('',#235,10.);
#69=VECTOR('',#236,10.);
#70=VECTOR('',#249,17.25);
#71=VECTOR('',#258,1.64999999999999);
#72=VECTOR('',#263,3.73000000000001);
#73=CIRCLE('',#191,15.15);
#74=CIRCLE('',#192,15.15);
#75=CIRCLE('',#195,16.337);
#76=CIRCLE('',#196,16.337);
#77=CIRCLE('',#200,17.25);
#78=CIRCLE('',#201,3.73000000000001);
#79=CIRCLE('',#203,17.25);
#80=CIRCLE('',#205,1.64999999999999);
#81=CIRCLE('',#207,1.64999999999999);
#82=CIRCLE('',#209,3.73000000000001);
#83=VERTEX_POINT('',#268);
#84=VERTEX_POINT('',#269);
#85=VERTEX_POINT('',#271);
#86=VERTEX_POINT('',#273);
#87=VERTEX_POINT('',#277);
#88=VERTEX_POINT('',#279);
#89=VERTEX_POINT('',#283);
#90=VERTEX_POINT('',#285);
#91=VERTEX_POINT('',#293);
#92=VERTEX_POINT('',#295);
#93=VERTEX_POINT('',#298);
#94=VERTEX_POINT('',#302);
#95=VERTEX_POINT('',#305);
#96=VERTEX_POINT('',#309);
#97=EDGE_CURVE('',#83,#84,#73,.T.);
#98=EDGE_CURVE('',#83,#85,#51,.F.);
#99=EDGE_CURVE('',#86,#85,#74,.T.);
#100=EDGE_CURVE('',#84,#86,#52,.T.);
#101=EDGE_CURVE('',#84,#87,#53,.T.);
#102=EDGE_CURVE('',#88,#86,#54,.F.);
#103=EDGE_CURVE('',#87,#88,#55,.T.);
#104=EDGE_CURVE('',#88,#89,#75,.T.);
#105=EDGE_CURVE('',#89,#90,#56,.T.);
#106=EDGE_CURVE('',#87,#90,#76,.F.);
#107=EDGE_CURVE('',#90,#83,#57,.T.);
#108=EDGE_CURVE('',#85,#89,#58,.F.);
#109=EDGE_CURVE('',#91,#91,#77,.T.);
#110=EDGE_CURVE('',#92,#92,#78,.T.);
#111=EDGE_CURVE('',#93,#93,#79,.T.);
#112=EDGE_CURVE('',#93,#91,#59,.T.);
#113=EDGE_CURVE('',#94,#94,#80,.T.);
#114=EDGE_CURVE('',#95,#95,#81,.T.);
#115=EDGE_CURVE('',#95,#94,#60,.T.);
#116=EDGE_CURVE('',#96,#96,#82,.T.);
#117=EDGE_CURVE('',#96,#92,#61,.T.);
#118=ORIENTED_EDGE('',*,*,#97,.F.);
#119=ORIENTED_EDGE('',*,*,#98,.T.);
#120=ORIENTED_EDGE('',*,*,#99,.F.);
#121=ORIENTED_EDGE('',*,*,#100,.F.);
#122=ORIENTED_EDGE('',*,*,#101,.F.);
#123=ORIENTED_EDGE('',*,*,#100,.T.);
#124=ORIENTED_EDGE('',*,*,#102,.F.);
#125=ORIENTED_EDGE('',*,*,#103,.F.);
#126=ORIENTED_EDGE('',*,*,#104,.T.);
#127=ORIENTED_EDGE('',*,*,#105,.T.);
#128=ORIENTED_EDGE('',*,*,#106,.F.);
#129=ORIENTED_EDGE('',*,*,#103,.T.);
#130=ORIENTED_EDGE('',*,*,#107,.F.);
#131=ORIENTED_EDGE('',*,*,#105,.F.);
#132=ORIENTED_EDGE('',*,*,#108,.F.);
#133=ORIENTED_EDGE('',*,*,#98,.F.);
#134=ORIENTED_EDGE('',*,*,#104,.F.);
#135=ORIENTED_EDGE('',*,*,#102,.T.);
#136=ORIENTED_EDGE('',*,*,#99,.T.);
#137=ORIENTED_EDGE('',*,*,#108,.T.);
#138=ORIENTED_EDGE('',*,*,#109,.F.);
#139=ORIENTED_EDGE('',*,*,#107,.T.);
#140=ORIENTED_EDGE('',*,*,#97,.T.);
#141=ORIENTED_EDGE('',*,*,#101,.T.);
#142=ORIENTED_EDGE('',*,*,#106,.T.);
#143=ORIENTED_EDGE('',*,*,#110,.T.);
#144=ORIENTED_EDGE('',*,*,#111,.F.);
#145=ORIENTED_EDGE('',*,*,#112,.T.);
#146=ORIENTED_EDGE('',*,*,#109,.T.);
#147=ORIENTED_EDGE('',*,*,#112,.F.);
#148=ORIENTED_EDGE('',*,*,#111,.T.);
#149=ORIENTED_EDGE('',*,*,#113,.T.);
#150=ORIENTED_EDGE('',*,*,#114,.F.);
#151=ORIENTED_EDGE('',*,*,#115,.T.);
#152=ORIENTED_EDGE('',*,*,#113,.F.);
#153=ORIENTED_EDGE('',*,*,#115,.F.);
#154=ORIENTED_EDGE('',*,*,#116,.F.);
#155=ORIENTED_EDGE('',*,*,#117,.T.);
#156=ORIENTED_EDGE('',*,*,#110,.F.);
#157=ORIENTED_EDGE('',*,*,#117,.F.);
#158=ORIENTED_EDGE('',*,*,#116,.T.);
#159=ORIENTED_EDGE('',*,*,#114,.T.);
#160=CYLINDRICAL_SURFACE('',#190,15.15);
#161=CYLINDRICAL_SURFACE('',#194,16.337);
#162=CYLINDRICAL_SURFACE('',#202,17.25);
#163=CYLINDRICAL_SURFACE('',#206,1.64999999999999);
#164=CYLINDRICAL_SURFACE('',#208,3.73000000000001);
#165=ADVANCED_FACE('',(#25),#160,.T.);
#166=ADVANCED_FACE('',(#26),#19,.F.);
#167=ADVANCED_FACE('',(#27),#161,.F.);
#168=ADVANCED_FACE('',(#28),#20,.F.);
#169=ADVANCED_FACE('',(#29),#21,.F.);
#170=ADVANCED_FACE('',(#30,#15,#16),#22,.T.);
#171=ADVANCED_FACE('',(#31),#162,.T.);
#172=ADVANCED_FACE('',(#32,#17),#23,.F.);
#173=ADVANCED_FACE('',(#33),#163,.F.);
#174=ADVANCED_FACE('',(#34),#164,.T.);
#175=ADVANCED_FACE('',(#35,#18),#24,.F.);
#176=CLOSED_SHELL('',(#165,#166,#167,#168,#169,#170,#171,#172,#173,#174,
#175));
#177=DERIVED_UNIT_ELEMENT(#179,1.);
#178=DERIVED_UNIT_ELEMENT(#318,-3.);
#179=(
MASS_UNIT()
NAMED_UNIT(*)
SI_UNIT(.KILO.,.GRAM.)
);
#180=DERIVED_UNIT((#177,#178));
#181=MEASURE_REPRESENTATION_ITEM('density measure',
POSITIVE_RATIO_MEASURE(7850.),#180);
#182=PROPERTY_DEFINITION_REPRESENTATION(#187,#184);
#183=PROPERTY_DEFINITION_REPRESENTATION(#188,#185);
#184=REPRESENTATION('material name',(#186),#315);
#185=REPRESENTATION('density',(#181),#315);
#186=DESCRIPTIVE_REPRESENTATION_ITEM('Steel','Steel');
#187=PROPERTY_DEFINITION('material property','material name',#325);
#188=PROPERTY_DEFINITION('material property','density of part',#325);
#189=AXIS2_PLACEMENT_3D('',#266,#211,#212);
#190=AXIS2_PLACEMENT_3D('',#267,#213,#214);
#191=AXIS2_PLACEMENT_3D('',#270,#215,#216);
#192=AXIS2_PLACEMENT_3D('',#274,#218,#219);
#193=AXIS2_PLACEMENT_3D('',#276,#221,#222);
#194=AXIS2_PLACEMENT_3D('',#282,#226,#227);
#195=AXIS2_PLACEMENT_3D('',#284,#228,#229);
#196=AXIS2_PLACEMENT_3D('',#287,#231,#232);
#197=AXIS2_PLACEMENT_3D('',#288,#233,#234);
#198=AXIS2_PLACEMENT_3D('',#291,#237,#238);
#199=AXIS2_PLACEMENT_3D('',#292,#239,#240);
#200=AXIS2_PLACEMENT_3D('',#294,#241,#242);
#201=AXIS2_PLACEMENT_3D('',#296,#243,#244);
#202=AXIS2_PLACEMENT_3D('',#297,#245,#246);
#203=AXIS2_PLACEMENT_3D('',#299,#247,#248);
#204=AXIS2_PLACEMENT_3D('',#301,#250,#251);
#205=AXIS2_PLACEMENT_3D('',#303,#252,#253);
#206=AXIS2_PLACEMENT_3D('',#304,#254,#255);
#207=AXIS2_PLACEMENT_3D('',#306,#256,#257);
#208=AXIS2_PLACEMENT_3D('',#308,#259,#260);
#209=AXIS2_PLACEMENT_3D('',#310,#261,#262);
#210=AXIS2_PLACEMENT_3D('',#312,#264,#265);
#211=DIRECTION('axis',(0.,0.,1.));
#212=DIRECTION('refdir',(1.,0.,0.));
#213=DIRECTION('center_axis',(5.5511151231271E-16,-1.,-2.22044604925062E-16));
#214=DIRECTION('ref_axis',(1.,5.5511151231271E-16,5.94878715412567E-30));
#215=DIRECTION('center_axis',(-5.55111512312715E-16,1.,2.2204460492506E-16));
#216=DIRECTION('ref_axis',(1.,5.5511151231271E-16,5.94878715412567E-30));
#217=DIRECTION('',(-5.5511151231271E-16,1.,2.22044604925062E-16));
#218=DIRECTION('center_axis',(5.55111512312715E-16,-1.,-2.2204460492506E-16));
#219=DIRECTION('ref_axis',(1.,5.5511151231271E-16,5.94878715412567E-30));
#220=DIRECTION('',(5.5511151231271E-16,-1.,-2.22044604925062E-16));
#221=DIRECTION('center_axis',(-1.,-5.5511151231271E-16,-6.01506440231022E-30));
#222=DIRECTION('ref_axis',(5.91645678915759E-30,2.2204460492506E-16,-1.));
#223=DIRECTION('',(5.89180488586939E-30,2.2204460492506E-16,-1.));
#224=DIRECTION('',(5.91645678915759E-30,2.2204460492506E-16,-1.));
#225=DIRECTION('',(5.55111512312709E-16,-1.,-2.22044604925062E-16));
#226=DIRECTION('center_axis',(-5.55111512312709E-16,1.,2.22044604925062E-16));
#227=DIRECTION('ref_axis',(1.,5.55111512312708E-16,5.95163036230119E-30));
#228=DIRECTION('center_axis',(5.55111512312715E-16,-1.,-2.2204460492506E-16));
#229=DIRECTION('ref_axis',(1.,5.55111512312708E-16,5.95163036230119E-30));
#230=DIRECTION('',(-5.55111512312709E-16,1.,2.22044604925062E-16));
#231=DIRECTION('center_axis',(-5.55111512312715E-16,1.,2.2204460492506E-16));
#232=DIRECTION('ref_axis',(1.,5.55111512312708E-16,5.95163036230119E-30));
#233=DIRECTION('center_axis',(-1.,-5.5511151231271E-16,-6.01506440231022E-30));
#234=DIRECTION('ref_axis',(5.91645678915759E-30,2.2204460492506E-16,-1.));
#235=DIRECTION('',(5.89180488586939E-30,2.2204460492506E-16,-1.));
#236=DIRECTION('',(5.91645678915759E-30,2.2204460492506E-16,-1.));
#237=DIRECTION('center_axis',(5.55111512312715E-16,-1.,-2.2204460492506E-16));
#238=DIRECTION('ref_axis',(-4.99600361081314E-16,2.22044604925059E-16,-1.));
#239=DIRECTION('center_axis',(-5.55111512312715E-16,1.,2.2204460492506E-16));
#240=DIRECTION('ref_axis',(4.99600361081314E-16,-2.22044604925059E-16,1.));
#241=DIRECTION('center_axis',(5.55111512312715E-16,-1.,-2.2204460492506E-16));
#242=DIRECTION('ref_axis',(1.,5.55111512312709E-16,5.88787487230175E-30));
#243=DIRECTION('center_axis',(5.55111512312712E-16,-1.,-2.22044604925061E-16));
#244=DIRECTION('ref_axis',(1.,5.55111512312707E-16,5.81599863098599E-30));
#245=DIRECTION('center_axis',(5.55111512312709E-16,-1.,-2.22044604925062E-16));
#246=DIRECTION('ref_axis',(1.,5.55111512312709E-16,5.88787487230175E-30));
#247=DIRECTION('center_axis',(5.55111512312715E-16,-1.,-2.2204460492506E-16));
#248=DIRECTION('ref_axis',(1.,5.55111512312709E-16,5.88787487230175E-30));
#249=DIRECTION('',(-5.55111512312709E-16,1.,2.22044604925062E-16));
#250=DIRECTION('center_axis',(-5.55111512312715E-16,1.,2.2204460492506E-16));
#251=DIRECTION('ref_axis',(4.99600361081314E-16,-2.22044604925059E-16,1.));
#252=DIRECTION('center_axis',(-5.55111512312715E-16,1.,2.2204460492506E-16));
#253=DIRECTION('ref_axis',(1.,5.55111512312709E-16,5.90151624171025E-30));
#254=DIRECTION('center_axis',(-5.55111512312707E-16,1.,2.22044604925063E-16));
#255=DIRECTION('ref_axis',(1.,5.55111512312707E-16,5.82681350447341E-30));
#256=DIRECTION('center_axis',(5.55111512312713E-16,-1.,-2.22044604925061E-16));
#257=DIRECTION('ref_axis',(1.,5.55111512312707E-16,5.82681350447341E-30));
#258=DIRECTION('',(5.55111512312707E-16,-1.,-2.22044604925063E-16));
#259=DIRECTION('center_axis',(-5.55111512312707E-16,1.,2.22044604925063E-16));
#260=DIRECTION('ref_axis',(1.,5.55111512312707E-16,5.81599863098599E-30));
#261=DIRECTION('center_axis',(-5.55111512312713E-16,1.,2.22044604925061E-16));
#262=DIRECTION('ref_axis',(1.,5.55111512312707E-16,5.81599863098599E-30));
#263=DIRECTION('',(5.55111512312707E-16,-1.,-2.22044604925063E-16));
#264=DIRECTION('center_axis',(5.55111512312713E-16,-1.,-2.22044604925061E-16));
#265=DIRECTION('ref_axis',(-4.99600361081315E-16,2.2204460492506E-16,-1.));
#266=CARTESIAN_POINT('',(0.,0.,0.));
#267=CARTESIAN_POINT('Origin',(219.957737080576,465.780152326007,582.388769536406));
#268=CARTESIAN_POINT('',(228.834814302275,440.980152326007,594.665576938984));
#269=CARTESIAN_POINT('',(228.834814302275,440.980152326007,570.111962133828));
#270=CARTESIAN_POINT('Origin',(219.957737080576,440.980152326007,582.388769536406));
#271=CARTESIAN_POINT('',(228.834814302275,439.480152326007,594.665576938984));
#272=CARTESIAN_POINT('',(228.834814302275,465.780152326007,594.665576938984));
#273=CARTESIAN_POINT('',(228.834814302275,439.480152326007,570.111962133828));
#274=CARTESIAN_POINT('Origin',(219.957737080576,439.480152326007,582.388769536406));
#275=CARTESIAN_POINT('',(228.834814302275,465.780152326007,570.111962133828));
#276=CARTESIAN_POINT('Origin',(228.834814302275,465.780152326007,569.988769536406));
#277=CARTESIAN_POINT('',(228.834814302275,440.980152326007,568.673993964053));
#278=CARTESIAN_POINT('',(228.834814302275,440.980152326007,576.188769536406));
#279=CARTESIAN_POINT('',(228.834814302275,439.480152326007,568.673993964053));
#280=CARTESIAN_POINT('',(228.834814302275,439.480152326007,576.188769536406));
#281=CARTESIAN_POINT('',(228.834814302275,438.180152326005,568.673993964053));
#282=CARTESIAN_POINT('Origin',(219.957737080576,438.180152326005,582.388769536406));
#283=CARTESIAN_POINT('',(228.834814302275,439.480152326007,596.103545108759));
#284=CARTESIAN_POINT('Origin',(219.957737080576,439.480152326007,582.388769536406));
#285=CARTESIAN_POINT('',(228.834814302275,440.980152326007,596.103545108759));
#286=CARTESIAN_POINT('',(228.834814302275,438.180152326005,596.103545108759));
#287=CARTESIAN_POINT('Origin',(219.957737080576,440.980152326007,582.388769536406));
#288=CARTESIAN_POINT('Origin',(228.834814302275,465.780152326007,597.179307051993));
#289=CARTESIAN_POINT('',(228.834814302275,440.980152326007,589.784038294199));
#290=CARTESIAN_POINT('',(228.834814302275,439.480152326007,589.784038294199));
#291=CARTESIAN_POINT('Origin',(233.021275691426,439.480152326007,582.388769536406));
#292=CARTESIAN_POINT('Origin',(219.957737080576,440.980152326007,582.388769536406));
#293=CARTESIAN_POINT('',(202.707737080576,440.980152326006,582.388769536406));
#294=CARTESIAN_POINT('Origin',(219.957737080576,440.980152326007,582.388769536406));
#295=CARTESIAN_POINT('',(216.227737080576,440.980152326007,582.388769536406));
#296=CARTESIAN_POINT('Origin',(219.957737080576,440.980152326007,582.388769536406));
#297=CARTESIAN_POINT('Origin',(219.957737080576,440.980152326007,582.388769536406));
#298=CARTESIAN_POINT('',(202.707737080576,438.180152326006,582.388769536406));
#299=CARTESIAN_POINT('Origin',(219.957737080576,438.180152326007,582.388769536406));
#300=CARTESIAN_POINT('',(202.707737080576,440.980152326007,582.388769536406));
#301=CARTESIAN_POINT('Origin',(219.957737080576,438.180152326007,582.388769536406));
#302=CARTESIAN_POINT('',(218.307737080576,438.180152326007,582.388769536406));
#303=CARTESIAN_POINT('Origin',(219.957737080576,438.180152326007,582.388769536406));
#304=CARTESIAN_POINT('Origin',(219.957737080576,440.980152326007,582.388769536406));
#305=CARTESIAN_POINT('',(218.307737080576,462.980152326007,582.388769536406));
#306=CARTESIAN_POINT('Origin',(219.957737080576,462.980152326007,582.388769536406));
#307=CARTESIAN_POINT('',(218.307737080576,440.980152326007,582.388769536406));
#308=CARTESIAN_POINT('Origin',(219.957737080576,440.980152326007,582.388769536406));
#309=CARTESIAN_POINT('',(216.227737080576,462.980152326007,582.388769536406));
#310=CARTESIAN_POINT('Origin',(219.957737080576,462.980152326007,582.388769536406));
#311=CARTESIAN_POINT('',(216.227737080576,440.980152326007,582.388769536406));
#312=CARTESIAN_POINT('Origin',(219.957737080576,462.980152326007,582.388769536406));
#313=UNCERTAINTY_MEASURE_WITH_UNIT(LENGTH_MEASURE(0.01),#317,
'DISTANCE_ACCURACY_VALUE',
'Maximum model space distance between geometric entities at asserted c
onnectivities');
#314=UNCERTAINTY_MEASURE_WITH_UNIT(LENGTH_MEASURE(0.01),#317,
'DISTANCE_ACCURACY_VALUE',
'Maximum model space distance between geometric entities at asserted c
onnectivities');
#315=(
GEOMETRIC_REPRESENTATION_CONTEXT(3)
GLOBAL_UNCERTAINTY_ASSIGNED_CONTEXT((#313))
GLOBAL_UNIT_ASSIGNED_CONTEXT((#317,#319,#320))
REPRESENTATION_CONTEXT('','3D')
);
#316=(
GEOMETRIC_REPRESENTATION_CONTEXT(3)
GLOBAL_UNCERTAINTY_ASSIGNED_CONTEXT((#314))
GLOBAL_UNIT_ASSIGNED_CONTEXT((#317,#319,#320))
REPRESENTATION_CONTEXT('','3D')
);
#317=(
LENGTH_UNIT()
NAMED_UNIT(*)
SI_UNIT(.MILLI.,.METRE.)
);
#318=(
LENGTH_UNIT()
NAMED_UNIT(*)
SI_UNIT($,.METRE.)
);
#319=(
NAMED_UNIT(*)
PLANE_ANGLE_UNIT()
SI_UNIT($,.RADIAN.)
);
#320=(
NAMED_UNIT(*)
SI_UNIT($,.STERADIAN.)
SOLID_ANGLE_UNIT()
);
#321=SHAPE_DEFINITION_REPRESENTATION(#322,#323);
#322=PRODUCT_DEFINITION_SHAPE('',$,#325);
#323=SHAPE_REPRESENTATION('',(#189),#315);
#324=PRODUCT_DEFINITION_CONTEXT('part definition',#329,'design');
#325=PRODUCT_DEFINITION('CPAP valve 3-way - Valve - C -v2',
'CPAP valve 3-way - Valve - C -v2',#326,#324);
#326=PRODUCT_DEFINITION_FORMATION('',$,#331);
#327=PRODUCT_RELATED_PRODUCT_CATEGORY(
'CPAP valve 3-way - Valve - C -v2','CPAP valve 3-way - Valve - C -v2',(#331));
#328=APPLICATION_PROTOCOL_DEFINITION('international standard',
'automotive_design',2009,#329);
#329=APPLICATION_CONTEXT(
'Core Data for Automotive Mechanical Design Process');
#330=PRODUCT_CONTEXT('part definition',#329,'mechanical');
#331=PRODUCT('CPAP valve 3-way - Valve - C -v2',
'CPAP valve 3-way - Valve - C -v2',$,(#330));
#332=PRESENTATION_STYLE_ASSIGNMENT((#333));
#333=SURFACE_STYLE_USAGE(.BOTH.,#334);
#334=SURFACE_SIDE_STYLE('',(#335));
#335=SURFACE_STYLE_FILL_AREA(#336);
#336=FILL_AREA_STYLE('Steel - Satin',(#337));
#337=FILL_AREA_STYLE_COLOUR('Steel - Satin',#338);
#338=COLOUR_RGB('Steel - Satin',0.627450980392157,0.627450980392157,0.627450980392157);
ENDSEC;
END-ISO-10303-21;
