ISO-10303-21;
HEADER;
/* Generated by software containing ST-Developer
 * from STEP Tools, Inc. (www.steptools.com) 
 */

FILE_DESCRIPTION(
/* description */ (''),
/* implementation_level */ '2;1');

FILE_NAME(
/* name */ 'CPAP valve 3-way - Valve - A - v2.step',
/* time_stamp */ '2026-07-24T23:40:32+02:00',
/* author */ (''),
/* organization */ (''),
/* preprocessor_version */ 'ST-DEVELOPER v20.1',
/* originating_system */ 'Autodesk Translation Framework v15.8.0.0',
/* authorisation */ '');

FILE_SCHEMA (('AUTOMOTIVE_DESIGN { 1 0 10303 214 3 1 1 }'));
ENDSEC;

DATA;
#10=MECHANICAL_DESIGN_GEOMETRIC_PRESENTATION_REPRESENTATION('',(#13),#1120);
#11=SHAPE_REPRESENTATION_RELATIONSHIP('SRR','None',#1127,#12);
#12=ADVANCED_BREP_SHAPE_REPRESENTATION('',(#14),#1119);
#13=STYLED_ITEM('',(#1136),#14);
#14=MANIFOLD_SOLID_BREP('Body1',#584);
#15=(
BOUNDED_SURFACE()
B_SPLINE_SURFACE(2,2,((#1005,#1006,#1007,#1008,#1009),(#1010,#1011,#1012,
#1013,#1014),(#1015,#1016,#1017,#1018,#1019)),.UNSPECIFIED.,.F.,.F.,.F.)
B_SPLINE_SURFACE_WITH_KNOTS((3,3),(3,2,3),(-1.57079632679498,7.71390487840528E-16),
(-0.935308019802577,-0.137279703253302,0.660748613295973),.UNSPECIFIED.)
GEOMETRIC_REPRESENTATION_ITEM()
RATIONAL_B_SPLINE_SURFACE(((1.,0.921444451209027,1.,0.921444451209027,1.),
(0.707106781186452,0.651559619936532,0.707106781186452,0.651559619936532,
0.707106781186452),(1.,0.921444451209027,1.,0.921444451209027,1.)))
REPRESENTATION_ITEM('')
SURFACE()
);
#16=(
BOUNDED_SURFACE()
B_SPLINE_SURFACE(2,2,((#1034,#1035,#1036,#1037,#1038),(#1039,#1040,#1041,
#1042,#1043),(#1044,#1045,#1046,#1047,#1048)),.UNSPECIFIED.,.F.,.F.,.F.)
B_SPLINE_SURFACE_WITH_KNOTS((3,3),(3,2,3),(-1.57079632679499,4.24199877793203E-16),
(-0.798028316549198,-2.22044604925031E-16,0.798028316549197),
 .UNSPECIFIED.)
GEOMETRIC_REPRESENTATION_ITEM()
RATIONAL_B_SPLINE_SURFACE(((1.,0.921444451209042,1.,0.921444451209042,1.),
(0.707106781187303,0.651559619937326,0.707106781187303,0.651559619937326,
0.707106781187303),(1.,0.921444451209042,1.,0.921444451209042,1.)))
REPRESENTATION_ITEM('')
SURFACE()
);
#17=(
BOUNDED_SURFACE()
B_SPLINE_SURFACE(2,2,((#1060,#1061,#1062),(#1063,#1064,#1065),(#1066,#1067,
#1068)),.UNSPECIFIED.,.F.,.F.,.F.)
B_SPLINE_SURFACE_WITH_KNOTS((3,3),(3,3),(-1.57079632679497,7.93129111472385E-16),
(-2.20628463378821,-0.661050196065776),.UNSPECIFIED.)
GEOMETRIC_REPRESENTATION_ITEM()
RATIONAL_B_SPLINE_SURFACE(((1.,0.716086274631189,1.),(0.707106781186452,
0.506349460706258,0.707106781186452),(1.,0.716086274631189,1.)))
REPRESENTATION_ITEM('')
SURFACE()
);
#18=(
BOUNDED_SURFACE()
B_SPLINE_SURFACE(2,2,((#1080,#1081,#1082),(#1083,#1084,#1085),(#1086,#1087,
#1088)),.UNSPECIFIED.,.F.,.F.,.F.)
B_SPLINE_SURFACE_WITH_KNOTS((3,3),(3,3),(-1.57079632679498,7.90375728231305E-16),
(-2.48054245752352,-0.935308019801936),.UNSPECIFIED.)
GEOMETRIC_REPRESENTATION_ITEM()
RATIONAL_B_SPLINE_SURFACE(((1.,0.716086274631486,1.),(0.707106781186452,
0.506349460706468,0.707106781186452),(1.,0.716086274631486,1.)))
REPRESENTATION_ITEM('')
SURFACE()
);
#19=B_SPLINE_CURVE_WITH_KNOTS('',3,(#947,#948,#949,#950,#951,#952,#953,
#954,#955,#956),.UNSPECIFIED.,.F.,.F.,(4,2,2,2,4),(-0.000460769314769064,
0.,0.0698971879038238,0.119054437871481,0.155353544090572),
 .UNSPECIFIED.);
#20=B_SPLINE_CURVE_WITH_KNOTS('',3,(#963,#964,#965,#966,#967,#968,#969,
#970,#971,#972),.UNSPECIFIED.,.F.,.F.,(4,2,2,2,4),(0.329445543785932,0.360172712287583,
0.401784290647314,0.460951420339586,0.461341443259772),.UNSPECIFIED.);
#21=TOROIDAL_SURFACE('',#625,2.,1.);
#22=TOROIDAL_SURFACE('',#628,14.25,1.);
#23=TOROIDAL_SURFACE('',#631,2.,1.);
#24=TOROIDAL_SURFACE('',#650,15.9368048764725,0.3);
#25=TOROIDAL_SURFACE('',#662,15.55,0.3);
#26=FACE_BOUND('',#73,.T.);
#27=FACE_BOUND('',#76,.T.);
#28=PLANE('',#604);
#29=PLANE('',#616);
#30=PLANE('',#621);
#31=PLANE('',#633);
#32=PLANE('',#672);
#33=PLANE('',#674);
#34=PLANE('',#676);
#35=PLANE('',#679);
#36=FACE_OUTER_BOUND('',#70,.T.);
#37=FACE_OUTER_BOUND('',#71,.T.);
#38=FACE_OUTER_BOUND('',#72,.T.);
#39=FACE_OUTER_BOUND('',#74,.T.);
#40=FACE_OUTER_BOUND('',#75,.T.);
#41=FACE_OUTER_BOUND('',#77,.T.);
#42=FACE_OUTER_BOUND('',#78,.T.);
#43=FACE_OUTER_BOUND('',#79,.T.);
#44=FACE_OUTER_BOUND('',#80,.T.);
#45=FACE_OUTER_BOUND('',#81,.T.);
#46=FACE_OUTER_BOUND('',#82,.T.);
#47=FACE_OUTER_BOUND('',#83,.T.);
#48=FACE_OUTER_BOUND('',#84,.T.);
#49=FACE_OUTER_BOUND('',#85,.T.);
#50=FACE_OUTER_BOUND('',#86,.T.);
#51=FACE_OUTER_BOUND('',#87,.T.);
#52=FACE_OUTER_BOUND('',#88,.T.);
#53=FACE_OUTER_BOUND('',#89,.T.);
#54=FACE_OUTER_BOUND('',#90,.T.);
#55=FACE_OUTER_BOUND('',#91,.T.);
#56=FACE_OUTER_BOUND('',#92,.T.);
#57=FACE_OUTER_BOUND('',#93,.T.);
#58=FACE_OUTER_BOUND('',#94,.T.);
#59=FACE_OUTER_BOUND('',#95,.T.);
#60=FACE_OUTER_BOUND('',#96,.T.);
#61=FACE_OUTER_BOUND('',#97,.T.);
#62=FACE_OUTER_BOUND('',#98,.T.);
#63=FACE_OUTER_BOUND('',#99,.T.);
#64=FACE_OUTER_BOUND('',#100,.T.);
#65=FACE_OUTER_BOUND('',#101,.T.);
#66=FACE_OUTER_BOUND('',#102,.T.);
#67=FACE_OUTER_BOUND('',#103,.T.);
#68=FACE_OUTER_BOUND('',#104,.T.);
#69=FACE_OUTER_BOUND('',#105,.T.);
#70=EDGE_LOOP('',(#361,#362,#363,#364));
#71=EDGE_LOOP('',(#365,#366,#367,#368));
#72=EDGE_LOOP('',(#369,#370,#371,#372,#373));
#73=EDGE_LOOP('',(#374,#375,#376,#377,#378,#379,#380,#381));
#74=EDGE_LOOP('',(#382,#383,#384,#385));
#75=EDGE_LOOP('',(#386));
#76=EDGE_LOOP('',(#387,#388,#389,#390,#391,#392,#393,#394));
#77=EDGE_LOOP('',(#395,#396,#397,#398));
#78=EDGE_LOOP('',(#399,#400,#401,#402));
#79=EDGE_LOOP('',(#403,#404,#405,#406));
#80=EDGE_LOOP('',(#407,#408,#409,#410));
#81=EDGE_LOOP('',(#411,#412,#413,#414));
#82=EDGE_LOOP('',(#415,#416,#417,#418));
#83=EDGE_LOOP('',(#419,#420,#421,#422));
#84=EDGE_LOOP('',(#423,#424,#425,#426,#427,#428,#429,#430,#431,#432,#433,
#434));
#85=EDGE_LOOP('',(#435,#436,#437,#438));
#86=EDGE_LOOP('',(#439,#440,#441,#442));
#87=EDGE_LOOP('',(#443,#444,#445,#446));
#88=EDGE_LOOP('',(#447,#448,#449,#450));
#89=EDGE_LOOP('',(#451,#452,#453,#454));
#90=EDGE_LOOP('',(#455,#456,#457,#458));
#91=EDGE_LOOP('',(#459,#460,#461,#462));
#92=EDGE_LOOP('',(#463,#464,#465,#466));
#93=EDGE_LOOP('',(#467,#468,#469,#470));
#94=EDGE_LOOP('',(#471,#472,#473,#474));
#95=EDGE_LOOP('',(#475,#476,#477,#478,#479,#480,#481,#482));
#96=EDGE_LOOP('',(#483,#484,#485,#486));
#97=EDGE_LOOP('',(#487,#488,#489,#490));
#98=EDGE_LOOP('',(#491,#492,#493,#494));
#99=EDGE_LOOP('',(#495,#496,#497,#498,#499,#500,#501,#502));
#100=EDGE_LOOP('',(#503,#504,#505,#506));
#101=EDGE_LOOP('',(#507,#508,#509,#510));
#102=EDGE_LOOP('',(#511,#512,#513,#514));
#103=EDGE_LOOP('',(#515,#516,#517,#518));
#104=EDGE_LOOP('',(#519,#520,#521,#522));
#105=EDGE_LOOP('',(#523,#524,#525,#526,#527,#528,#529,#530,#531,#532));
#106=LINE('',#886,#137);
#107=LINE('',#889,#138);
#108=LINE('',#894,#139);
#109=LINE('',#908,#140);
#110=LINE('',#916,#141);
#111=LINE('',#921,#142);
#112=LINE('',#926,#143);
#113=LINE('',#933,#144);
#114=LINE('',#935,#145);
#115=LINE('',#937,#146);
#116=LINE('',#939,#147);
#117=LINE('',#940,#148);
#118=LINE('',#983,#149);
#119=LINE('',#991,#150);
#120=LINE('',#1000,#151);
#121=LINE('',#1001,#152);
#122=LINE('',#1003,#153);
#123=LINE('',#1004,#154);
#124=LINE('',#1058,#155);
#125=LINE('',#1059,#156);
#126=LINE('',#1095,#157);
#127=LINE('',#1096,#158);
#128=LINE('',#1098,#159);
#129=LINE('',#1099,#160);
#130=LINE('',#1101,#161);
#131=LINE('',#1103,#162);
#132=LINE('',#1105,#163);
#133=LINE('',#1108,#164);
#134=LINE('',#1110,#165);
#135=LINE('',#1112,#166);
#136=LINE('',#1116,#167);
#137=VECTOR('',#687,10.);
#138=VECTOR('',#690,10.);
#139=VECTOR('',#695,10.);
#140=VECTOR('',#710,10.);
#141=VECTOR('',#717,10.);
#142=VECTOR('',#724,10.);
#143=VECTOR('',#729,10.);
#144=VECTOR('',#736,10.);
#145=VECTOR('',#739,10.);
#146=VECTOR('',#742,10.);
#147=VECTOR('',#745,10.);
#148=VECTOR('',#746,10.);
#149=VECTOR('',#773,10.);
#150=VECTOR('',#780,10.);
#151=VECTOR('',#791,10.);
#152=VECTOR('',#792,10.);
#153=VECTOR('',#795,10.);
#154=VECTOR('',#796,10.);
#155=VECTOR('',#823,10.);
#156=VECTOR('',#824,10.);
#157=VECTOR('',#847,10.);
#158=VECTOR('',#848,10.);
#159=VECTOR('',#851,10.);
#160=VECTOR('',#852,10.);
#161=VECTOR('',#855,10.);
#162=VECTOR('',#858,10.);
#163=VECTOR('',#861,10.);
#164=VECTOR('',#866,10.);
#165=VECTOR('',#869,10.);
#166=VECTOR('',#872,10.);
#167=VECTOR('',#879,17.25);
#168=CIRCLE('',#599,0.5);
#169=CIRCLE('',#600,0.5);
#170=CIRCLE('',#602,1.64999999999999);
#171=CIRCLE('',#603,1.64999999999999);
#172=CIRCLE('',#605,2.);
#173=CIRCLE('',#606,14.25);
#174=CIRCLE('',#607,2.);
#175=CIRCLE('',#608,17.25);
#176=CIRCLE('',#609,17.25);
#177=CIRCLE('',#610,0.5);
#178=CIRCLE('',#611,3.88);
#179=CIRCLE('',#612,0.5);
#180=CIRCLE('',#613,0.5);
#181=CIRCLE('',#615,0.5);
#182=CIRCLE('',#617,17.25);
#183=CIRCLE('',#618,0.5);
#184=CIRCLE('',#619,3.88);
#185=CIRCLE('',#620,0.5);
#186=CIRCLE('',#626,1.00000000000001);
#187=CIRCLE('',#627,1.);
#188=CIRCLE('',#629,1.00000000000001);
#189=CIRCLE('',#630,15.25);
#190=CIRCLE('',#632,1.);
#191=CIRCLE('',#634,1.);
#192=CIRCLE('',#635,15.25);
#193=CIRCLE('',#636,0.4);
#194=CIRCLE('',#637,0.4);
#195=CIRCLE('',#638,16.2368048764725);
#196=CIRCLE('',#639,0.4);
#197=CIRCLE('',#640,0.4);
#198=CIRCLE('',#641,15.25);
#199=CIRCLE('',#642,1.);
#200=CIRCLE('',#643,17.25);
#201=CIRCLE('',#646,0.300000000000038);
#202=CIRCLE('',#647,0.1);
#203=CIRCLE('',#648,0.300000000000011);
#204=CIRCLE('',#649,0.4);
#205=CIRCLE('',#651,0.300000000000011);
#206=CIRCLE('',#652,16.2368048764725);
#207=CIRCLE('',#653,15.9368048764725);
#208=CIRCLE('',#654,0.300000000000011);
#209=CIRCLE('',#655,0.4);
#210=CIRCLE('',#656,0.1);
#211=CIRCLE('',#658,0.300000000000011);
#212=CIRCLE('',#659,0.300000000000011);
#213=CIRCLE('',#660,0.4);
#214=CIRCLE('',#661,0.1);
#215=CIRCLE('',#663,0.300000000000011);
#216=CIRCLE('',#664,15.25);
#217=CIRCLE('',#665,15.55);
#218=CIRCLE('',#666,0.300000000000011);
#219=CIRCLE('',#667,0.4);
#220=CIRCLE('',#668,0.1);
#221=VERTEX_POINT('',#882);
#222=VERTEX_POINT('',#883);
#223=VERTEX_POINT('',#885);
#224=VERTEX_POINT('',#887);
#225=VERTEX_POINT('',#891);
#226=VERTEX_POINT('',#893);
#227=VERTEX_POINT('',#897);
#228=VERTEX_POINT('',#898);
#229=VERTEX_POINT('',#900);
#230=VERTEX_POINT('',#902);
#231=VERTEX_POINT('',#904);
#232=VERTEX_POINT('',#907);
#233=VERTEX_POINT('',#909);
#234=VERTEX_POINT('',#911);
#235=VERTEX_POINT('',#913);
#236=VERTEX_POINT('',#915);
#237=VERTEX_POINT('',#919);
#238=VERTEX_POINT('',#923);
#239=VERTEX_POINT('',#925);
#240=VERTEX_POINT('',#927);
#241=VERTEX_POINT('',#929);
#242=VERTEX_POINT('',#931);
#243=VERTEX_POINT('',#943);
#244=VERTEX_POINT('',#945);
#245=VERTEX_POINT('',#958);
#246=VERTEX_POINT('',#962);
#247=VERTEX_POINT('',#975);
#248=VERTEX_POINT('',#976);
#249=VERTEX_POINT('',#978);
#250=VERTEX_POINT('',#980);
#251=VERTEX_POINT('',#982);
#252=VERTEX_POINT('',#984);
#253=VERTEX_POINT('',#986);
#254=VERTEX_POINT('',#988);
#255=VERTEX_POINT('',#990);
#256=VERTEX_POINT('',#992);
#257=VERTEX_POINT('',#994);
#258=VERTEX_POINT('',#996);
#259=VERTEX_POINT('',#1020);
#260=VERTEX_POINT('',#1021);
#261=VERTEX_POINT('',#1023);
#262=VERTEX_POINT('',#1025);
#263=VERTEX_POINT('',#1029);
#264=VERTEX_POINT('',#1030);
#265=VERTEX_POINT('',#1049);
#266=VERTEX_POINT('',#1050);
#267=VERTEX_POINT('',#1055);
#268=VERTEX_POINT('',#1056);
#269=VERTEX_POINT('',#1069);
#270=VERTEX_POINT('',#1070);
#271=VERTEX_POINT('',#1075);
#272=VERTEX_POINT('',#1076);
#273=VERTEX_POINT('',#1089);
#274=VERTEX_POINT('',#1090);
#275=EDGE_CURVE('',#221,#222,#168,.T.);
#276=EDGE_CURVE('',#222,#223,#106,.T.);
#277=EDGE_CURVE('',#223,#224,#169,.T.);
#278=EDGE_CURVE('',#224,#221,#107,.T.);
#279=EDGE_CURVE('',#225,#222,#170,.T.);
#280=EDGE_CURVE('',#226,#225,#108,.T.);
#281=EDGE_CURVE('',#226,#223,#171,.T.);
#282=EDGE_CURVE('',#227,#228,#172,.T.);
#283=EDGE_CURVE('',#229,#227,#173,.T.);
#284=EDGE_CURVE('',#230,#229,#174,.T.);
#285=EDGE_CURVE('',#230,#231,#175,.T.);
#286=EDGE_CURVE('',#231,#228,#176,.T.);
#287=EDGE_CURVE('',#221,#232,#109,.F.);
#288=EDGE_CURVE('',#233,#232,#177,.T.);
#289=EDGE_CURVE('',#233,#234,#178,.F.);
#290=EDGE_CURVE('',#235,#234,#179,.T.);
#291=EDGE_CURVE('',#235,#236,#110,.F.);
#292=EDGE_CURVE('',#225,#236,#180,.T.);
#293=EDGE_CURVE('',#237,#226,#181,.T.);
#294=EDGE_CURVE('',#236,#237,#111,.T.);
#295=EDGE_CURVE('',#238,#238,#182,.T.);
#296=EDGE_CURVE('',#237,#239,#112,.T.);
#297=EDGE_CURVE('',#240,#239,#183,.T.);
#298=EDGE_CURVE('',#240,#241,#184,.T.);
#299=EDGE_CURVE('',#242,#241,#185,.T.);
#300=EDGE_CURVE('',#242,#224,#113,.T.);
#301=EDGE_CURVE('',#239,#235,#114,.T.);
#302=EDGE_CURVE('',#234,#240,#115,.T.);
#303=EDGE_CURVE('',#241,#233,#116,.T.);
#304=EDGE_CURVE('',#232,#242,#117,.T.);
#305=EDGE_CURVE('',#229,#243,#186,.T.);
#306=EDGE_CURVE('',#243,#244,#187,.T.);
#307=EDGE_CURVE('',#244,#230,#19,.T.);
#308=EDGE_CURVE('',#227,#245,#188,.T.);
#309=EDGE_CURVE('',#245,#243,#189,.T.);
#310=EDGE_CURVE('',#228,#246,#20,.T.);
#311=EDGE_CURVE('',#246,#245,#190,.T.);
#312=EDGE_CURVE('',#247,#248,#191,.T.);
#313=EDGE_CURVE('',#249,#247,#192,.T.);
#314=EDGE_CURVE('',#250,#249,#193,.F.);
#315=EDGE_CURVE('',#251,#250,#118,.T.);
#316=EDGE_CURVE('',#252,#251,#194,.F.);
#317=EDGE_CURVE('',#253,#252,#195,.T.);
#318=EDGE_CURVE('',#254,#253,#196,.F.);
#319=EDGE_CURVE('',#255,#254,#119,.T.);
#320=EDGE_CURVE('',#256,#255,#197,.F.);
#321=EDGE_CURVE('',#257,#256,#198,.T.);
#322=EDGE_CURVE('',#258,#257,#199,.T.);
#323=EDGE_CURVE('',#248,#258,#200,.T.);
#324=EDGE_CURVE('',#243,#247,#120,.T.);
#325=EDGE_CURVE('',#248,#244,#121,.T.);
#326=EDGE_CURVE('',#246,#258,#122,.T.);
#327=EDGE_CURVE('',#257,#245,#123,.T.);
#328=EDGE_CURVE('',#259,#260,#201,.T.);
#329=EDGE_CURVE('',#260,#261,#202,.T.);
#330=EDGE_CURVE('',#261,#262,#203,.T.);
#331=EDGE_CURVE('',#262,#259,#204,.T.);
#332=EDGE_CURVE('',#263,#264,#205,.T.);
#333=EDGE_CURVE('',#264,#262,#206,.T.);
#334=EDGE_CURVE('',#261,#263,#207,.T.);
#335=EDGE_CURVE('',#265,#266,#208,.T.);
#336=EDGE_CURVE('',#266,#264,#209,.T.);
#337=EDGE_CURVE('',#263,#265,#210,.T.);
#338=EDGE_CURVE('',#267,#268,#211,.T.);
#339=EDGE_CURVE('',#268,#266,#124,.T.);
#340=EDGE_CURVE('',#265,#267,#125,.T.);
#341=EDGE_CURVE('',#269,#270,#212,.T.);
#342=EDGE_CURVE('',#270,#268,#213,.T.);
#343=EDGE_CURVE('',#267,#269,#214,.T.);
#344=EDGE_CURVE('',#271,#272,#215,.T.);
#345=EDGE_CURVE('',#272,#270,#216,.T.);
#346=EDGE_CURVE('',#269,#271,#217,.T.);
#347=EDGE_CURVE('',#273,#274,#218,.T.);
#348=EDGE_CURVE('',#274,#272,#219,.T.);
#349=EDGE_CURVE('',#271,#273,#220,.T.);
#350=EDGE_CURVE('',#273,#260,#126,.T.);
#351=EDGE_CURVE('',#259,#274,#127,.T.);
#352=EDGE_CURVE('',#270,#256,#128,.T.);
#353=EDGE_CURVE('',#249,#272,#129,.T.);
#354=EDGE_CURVE('',#274,#250,#130,.T.);
#355=EDGE_CURVE('',#251,#259,#131,.T.);
#356=EDGE_CURVE('',#262,#252,#132,.T.);
#357=EDGE_CURVE('',#255,#268,#133,.T.);
#358=EDGE_CURVE('',#266,#254,#134,.T.);
#359=EDGE_CURVE('',#253,#264,#135,.T.);
#360=EDGE_CURVE('',#231,#238,#136,.T.);
#361=ORIENTED_EDGE('',*,*,#275,.T.);
#362=ORIENTED_EDGE('',*,*,#276,.T.);
#363=ORIENTED_EDGE('',*,*,#277,.T.);
#364=ORIENTED_EDGE('',*,*,#278,.T.);
#365=ORIENTED_EDGE('',*,*,#276,.F.);
#366=ORIENTED_EDGE('',*,*,#279,.F.);
#367=ORIENTED_EDGE('',*,*,#280,.F.);
#368=ORIENTED_EDGE('',*,*,#281,.T.);
#369=ORIENTED_EDGE('',*,*,#282,.F.);
#370=ORIENTED_EDGE('',*,*,#283,.F.);
#371=ORIENTED_EDGE('',*,*,#284,.F.);
#372=ORIENTED_EDGE('',*,*,#285,.T.);
#373=ORIENTED_EDGE('',*,*,#286,.T.);
#374=ORIENTED_EDGE('',*,*,#275,.F.);
#375=ORIENTED_EDGE('',*,*,#287,.T.);
#376=ORIENTED_EDGE('',*,*,#288,.F.);
#377=ORIENTED_EDGE('',*,*,#289,.T.);
#378=ORIENTED_EDGE('',*,*,#290,.F.);
#379=ORIENTED_EDGE('',*,*,#291,.T.);
#380=ORIENTED_EDGE('',*,*,#292,.F.);
#381=ORIENTED_EDGE('',*,*,#279,.T.);
#382=ORIENTED_EDGE('',*,*,#293,.T.);
#383=ORIENTED_EDGE('',*,*,#280,.T.);
#384=ORIENTED_EDGE('',*,*,#292,.T.);
#385=ORIENTED_EDGE('',*,*,#294,.T.);
#386=ORIENTED_EDGE('',*,*,#295,.F.);
#387=ORIENTED_EDGE('',*,*,#277,.F.);
#388=ORIENTED_EDGE('',*,*,#281,.F.);
#389=ORIENTED_EDGE('',*,*,#293,.F.);
#390=ORIENTED_EDGE('',*,*,#296,.T.);
#391=ORIENTED_EDGE('',*,*,#297,.F.);
#392=ORIENTED_EDGE('',*,*,#298,.T.);
#393=ORIENTED_EDGE('',*,*,#299,.F.);
#394=ORIENTED_EDGE('',*,*,#300,.T.);
#395=ORIENTED_EDGE('',*,*,#294,.F.);
#396=ORIENTED_EDGE('',*,*,#291,.F.);
#397=ORIENTED_EDGE('',*,*,#301,.F.);
#398=ORIENTED_EDGE('',*,*,#296,.F.);
#399=ORIENTED_EDGE('',*,*,#297,.T.);
#400=ORIENTED_EDGE('',*,*,#301,.T.);
#401=ORIENTED_EDGE('',*,*,#290,.T.);
#402=ORIENTED_EDGE('',*,*,#302,.T.);
#403=ORIENTED_EDGE('',*,*,#299,.T.);
#404=ORIENTED_EDGE('',*,*,#303,.T.);
#405=ORIENTED_EDGE('',*,*,#288,.T.);
#406=ORIENTED_EDGE('',*,*,#304,.T.);
#407=ORIENTED_EDGE('',*,*,#302,.F.);
#408=ORIENTED_EDGE('',*,*,#289,.F.);
#409=ORIENTED_EDGE('',*,*,#303,.F.);
#410=ORIENTED_EDGE('',*,*,#298,.F.);
#411=ORIENTED_EDGE('',*,*,#305,.T.);
#412=ORIENTED_EDGE('',*,*,#306,.T.);
#413=ORIENTED_EDGE('',*,*,#307,.T.);
#414=ORIENTED_EDGE('',*,*,#284,.T.);
#415=ORIENTED_EDGE('',*,*,#308,.T.);
#416=ORIENTED_EDGE('',*,*,#309,.T.);
#417=ORIENTED_EDGE('',*,*,#305,.F.);
#418=ORIENTED_EDGE('',*,*,#283,.T.);
#419=ORIENTED_EDGE('',*,*,#310,.T.);
#420=ORIENTED_EDGE('',*,*,#311,.T.);
#421=ORIENTED_EDGE('',*,*,#308,.F.);
#422=ORIENTED_EDGE('',*,*,#282,.T.);
#423=ORIENTED_EDGE('',*,*,#312,.F.);
#424=ORIENTED_EDGE('',*,*,#313,.F.);
#425=ORIENTED_EDGE('',*,*,#314,.F.);
#426=ORIENTED_EDGE('',*,*,#315,.F.);
#427=ORIENTED_EDGE('',*,*,#316,.F.);
#428=ORIENTED_EDGE('',*,*,#317,.F.);
#429=ORIENTED_EDGE('',*,*,#318,.F.);
#430=ORIENTED_EDGE('',*,*,#319,.F.);
#431=ORIENTED_EDGE('',*,*,#320,.F.);
#432=ORIENTED_EDGE('',*,*,#321,.F.);
#433=ORIENTED_EDGE('',*,*,#322,.F.);
#434=ORIENTED_EDGE('',*,*,#323,.F.);
#435=ORIENTED_EDGE('',*,*,#306,.F.);
#436=ORIENTED_EDGE('',*,*,#324,.T.);
#437=ORIENTED_EDGE('',*,*,#312,.T.);
#438=ORIENTED_EDGE('',*,*,#325,.T.);
#439=ORIENTED_EDGE('',*,*,#311,.F.);
#440=ORIENTED_EDGE('',*,*,#326,.T.);
#441=ORIENTED_EDGE('',*,*,#322,.T.);
#442=ORIENTED_EDGE('',*,*,#327,.T.);
#443=ORIENTED_EDGE('',*,*,#328,.T.);
#444=ORIENTED_EDGE('',*,*,#329,.T.);
#445=ORIENTED_EDGE('',*,*,#330,.T.);
#446=ORIENTED_EDGE('',*,*,#331,.T.);
#447=ORIENTED_EDGE('',*,*,#332,.T.);
#448=ORIENTED_EDGE('',*,*,#333,.T.);
#449=ORIENTED_EDGE('',*,*,#330,.F.);
#450=ORIENTED_EDGE('',*,*,#334,.T.);
#451=ORIENTED_EDGE('',*,*,#335,.T.);
#452=ORIENTED_EDGE('',*,*,#336,.T.);
#453=ORIENTED_EDGE('',*,*,#332,.F.);
#454=ORIENTED_EDGE('',*,*,#337,.T.);
#455=ORIENTED_EDGE('',*,*,#338,.T.);
#456=ORIENTED_EDGE('',*,*,#339,.T.);
#457=ORIENTED_EDGE('',*,*,#335,.F.);
#458=ORIENTED_EDGE('',*,*,#340,.T.);
#459=ORIENTED_EDGE('',*,*,#341,.T.);
#460=ORIENTED_EDGE('',*,*,#342,.T.);
#461=ORIENTED_EDGE('',*,*,#338,.F.);
#462=ORIENTED_EDGE('',*,*,#343,.T.);
#463=ORIENTED_EDGE('',*,*,#344,.T.);
#464=ORIENTED_EDGE('',*,*,#345,.T.);
#465=ORIENTED_EDGE('',*,*,#341,.F.);
#466=ORIENTED_EDGE('',*,*,#346,.T.);
#467=ORIENTED_EDGE('',*,*,#347,.T.);
#468=ORIENTED_EDGE('',*,*,#348,.T.);
#469=ORIENTED_EDGE('',*,*,#344,.F.);
#470=ORIENTED_EDGE('',*,*,#349,.T.);
#471=ORIENTED_EDGE('',*,*,#347,.F.);
#472=ORIENTED_EDGE('',*,*,#350,.T.);
#473=ORIENTED_EDGE('',*,*,#328,.F.);
#474=ORIENTED_EDGE('',*,*,#351,.T.);
#475=ORIENTED_EDGE('',*,*,#309,.F.);
#476=ORIENTED_EDGE('',*,*,#327,.F.);
#477=ORIENTED_EDGE('',*,*,#321,.T.);
#478=ORIENTED_EDGE('',*,*,#352,.F.);
#479=ORIENTED_EDGE('',*,*,#345,.F.);
#480=ORIENTED_EDGE('',*,*,#353,.F.);
#481=ORIENTED_EDGE('',*,*,#313,.T.);
#482=ORIENTED_EDGE('',*,*,#324,.F.);
#483=ORIENTED_EDGE('',*,*,#348,.F.);
#484=ORIENTED_EDGE('',*,*,#354,.T.);
#485=ORIENTED_EDGE('',*,*,#314,.T.);
#486=ORIENTED_EDGE('',*,*,#353,.T.);
#487=ORIENTED_EDGE('',*,*,#351,.F.);
#488=ORIENTED_EDGE('',*,*,#355,.F.);
#489=ORIENTED_EDGE('',*,*,#315,.T.);
#490=ORIENTED_EDGE('',*,*,#354,.F.);
#491=ORIENTED_EDGE('',*,*,#331,.F.);
#492=ORIENTED_EDGE('',*,*,#356,.T.);
#493=ORIENTED_EDGE('',*,*,#316,.T.);
#494=ORIENTED_EDGE('',*,*,#355,.T.);
#495=ORIENTED_EDGE('',*,*,#329,.F.);
#496=ORIENTED_EDGE('',*,*,#350,.F.);
#497=ORIENTED_EDGE('',*,*,#349,.F.);
#498=ORIENTED_EDGE('',*,*,#346,.F.);
#499=ORIENTED_EDGE('',*,*,#343,.F.);
#500=ORIENTED_EDGE('',*,*,#340,.F.);
#501=ORIENTED_EDGE('',*,*,#337,.F.);
#502=ORIENTED_EDGE('',*,*,#334,.F.);
#503=ORIENTED_EDGE('',*,*,#342,.F.);
#504=ORIENTED_EDGE('',*,*,#352,.T.);
#505=ORIENTED_EDGE('',*,*,#320,.T.);
#506=ORIENTED_EDGE('',*,*,#357,.T.);
#507=ORIENTED_EDGE('',*,*,#339,.F.);
#508=ORIENTED_EDGE('',*,*,#357,.F.);
#509=ORIENTED_EDGE('',*,*,#319,.T.);
#510=ORIENTED_EDGE('',*,*,#358,.F.);
#511=ORIENTED_EDGE('',*,*,#336,.F.);
#512=ORIENTED_EDGE('',*,*,#358,.T.);
#513=ORIENTED_EDGE('',*,*,#318,.T.);
#514=ORIENTED_EDGE('',*,*,#359,.T.);
#515=ORIENTED_EDGE('',*,*,#333,.F.);
#516=ORIENTED_EDGE('',*,*,#359,.F.);
#517=ORIENTED_EDGE('',*,*,#317,.T.);
#518=ORIENTED_EDGE('',*,*,#356,.F.);
#519=ORIENTED_EDGE('',*,*,#278,.F.);
#520=ORIENTED_EDGE('',*,*,#300,.F.);
#521=ORIENTED_EDGE('',*,*,#304,.F.);
#522=ORIENTED_EDGE('',*,*,#287,.F.);
#523=ORIENTED_EDGE('',*,*,#325,.F.);
#524=ORIENTED_EDGE('',*,*,#323,.T.);
#525=ORIENTED_EDGE('',*,*,#326,.F.);
#526=ORIENTED_EDGE('',*,*,#310,.F.);
#527=ORIENTED_EDGE('',*,*,#286,.F.);
#528=ORIENTED_EDGE('',*,*,#360,.T.);
#529=ORIENTED_EDGE('',*,*,#295,.T.);
#530=ORIENTED_EDGE('',*,*,#360,.F.);
#531=ORIENTED_EDGE('',*,*,#285,.F.);
#532=ORIENTED_EDGE('',*,*,#307,.F.);
#533=CYLINDRICAL_SURFACE('',#598,0.5);
#534=CYLINDRICAL_SURFACE('',#601,1.64999999999999);
#535=CYLINDRICAL_SURFACE('',#614,0.5);
#536=CYLINDRICAL_SURFACE('',#622,0.5);
#537=CYLINDRICAL_SURFACE('',#623,0.5);
#538=CYLINDRICAL_SURFACE('',#624,3.88);
#539=CYLINDRICAL_SURFACE('',#644,1.);
#540=CYLINDRICAL_SURFACE('',#645,1.);
#541=CYLINDRICAL_SURFACE('',#657,0.3);
#542=CYLINDRICAL_SURFACE('',#669,0.3);
#543=CYLINDRICAL_SURFACE('',#670,15.25);
#544=CYLINDRICAL_SURFACE('',#671,0.4);
#545=CYLINDRICAL_SURFACE('',#673,0.4);
#546=CYLINDRICAL_SURFACE('',#675,0.4);
#547=CYLINDRICAL_SURFACE('',#677,0.4);
#548=CYLINDRICAL_SURFACE('',#678,16.2368048764725);
#549=CYLINDRICAL_SURFACE('',#680,17.25);
#550=ADVANCED_FACE('',(#36),#533,.T.);
#551=ADVANCED_FACE('',(#37),#534,.F.);
#552=ADVANCED_FACE('',(#38,#26),#28,.F.);
#553=ADVANCED_FACE('',(#39),#535,.T.);
#554=ADVANCED_FACE('',(#40,#27),#29,.T.);
#555=ADVANCED_FACE('',(#41),#30,.F.);
#556=ADVANCED_FACE('',(#42),#536,.F.);
#557=ADVANCED_FACE('',(#43),#537,.F.);
#558=ADVANCED_FACE('',(#44),#538,.F.);
#559=ADVANCED_FACE('',(#45),#21,.F.);
#560=ADVANCED_FACE('',(#46),#22,.F.);
#561=ADVANCED_FACE('',(#47),#23,.F.);
#562=ADVANCED_FACE('',(#48),#31,.T.);
#563=ADVANCED_FACE('',(#49),#539,.T.);
#564=ADVANCED_FACE('',(#50),#540,.T.);
#565=ADVANCED_FACE('',(#51),#15,.F.);
#566=ADVANCED_FACE('',(#52),#24,.T.);
#567=ADVANCED_FACE('',(#53),#16,.F.);
#568=ADVANCED_FACE('',(#54),#541,.T.);
#569=ADVANCED_FACE('',(#55),#17,.F.);
#570=ADVANCED_FACE('',(#56),#25,.T.);
#571=ADVANCED_FACE('',(#57),#18,.F.);
#572=ADVANCED_FACE('',(#58),#542,.T.);
#573=ADVANCED_FACE('',(#59),#543,.F.);
#574=ADVANCED_FACE('',(#60),#544,.T.);
#575=ADVANCED_FACE('',(#61),#32,.F.);
#576=ADVANCED_FACE('',(#62),#545,.T.);
#577=ADVANCED_FACE('',(#63),#33,.T.);
#578=ADVANCED_FACE('',(#64),#546,.T.);
#579=ADVANCED_FACE('',(#65),#34,.F.);
#580=ADVANCED_FACE('',(#66),#547,.T.);
#581=ADVANCED_FACE('',(#67),#548,.T.);
#582=ADVANCED_FACE('',(#68),#35,.F.);
#583=ADVANCED_FACE('',(#69),#549,.T.);
#584=CLOSED_SHELL('',(#550,#551,#552,#553,#554,#555,#556,#557,#558,#559,
#560,#561,#562,#563,#564,#565,#566,#567,#568,#569,#570,#571,#572,#573,#574,
#575,#576,#577,#578,#579,#580,#581,#582,#583));
#585=DERIVED_UNIT_ELEMENT(#587,1.);
#586=DERIVED_UNIT_ELEMENT(#1122,-3.);
#587=(
MASS_UNIT()
NAMED_UNIT(*)
SI_UNIT(.KILO.,.GRAM.)
);
#588=DERIVED_UNIT((#585,#586));
#589=MEASURE_REPRESENTATION_ITEM('density measure',
POSITIVE_RATIO_MEASURE(7850.),#588);
#590=PROPERTY_DEFINITION_REPRESENTATION(#595,#592);
#591=PROPERTY_DEFINITION_REPRESENTATION(#596,#593);
#592=REPRESENTATION('material name',(#594),#1119);
#593=REPRESENTATION('density',(#589),#1119);
#594=DESCRIPTIVE_REPRESENTATION_ITEM('Steel','Steel');
#595=PROPERTY_DEFINITION('material property','material name',#1129);
#596=PROPERTY_DEFINITION('material property','density of part',#1129);
#597=AXIS2_PLACEMENT_3D('',#880,#681,#682);
#598=AXIS2_PLACEMENT_3D('',#881,#683,#684);
#599=AXIS2_PLACEMENT_3D('',#884,#685,#686);
#600=AXIS2_PLACEMENT_3D('',#888,#688,#689);
#601=AXIS2_PLACEMENT_3D('',#890,#691,#692);
#602=AXIS2_PLACEMENT_3D('',#892,#693,#694);
#603=AXIS2_PLACEMENT_3D('',#895,#696,#697);
#604=AXIS2_PLACEMENT_3D('',#896,#698,#699);
#605=AXIS2_PLACEMENT_3D('',#899,#700,#701);
#606=AXIS2_PLACEMENT_3D('',#901,#702,#703);
#607=AXIS2_PLACEMENT_3D('',#903,#704,#705);
#608=AXIS2_PLACEMENT_3D('',#905,#706,#707);
#609=AXIS2_PLACEMENT_3D('',#906,#708,#709);
#610=AXIS2_PLACEMENT_3D('',#910,#711,#712);
#611=AXIS2_PLACEMENT_3D('',#912,#713,#714);
#612=AXIS2_PLACEMENT_3D('',#914,#715,#716);
#613=AXIS2_PLACEMENT_3D('',#917,#718,#719);
#614=AXIS2_PLACEMENT_3D('',#918,#720,#721);
#615=AXIS2_PLACEMENT_3D('',#920,#722,#723);
#616=AXIS2_PLACEMENT_3D('',#922,#725,#726);
#617=AXIS2_PLACEMENT_3D('',#924,#727,#728);
#618=AXIS2_PLACEMENT_3D('',#928,#730,#731);
#619=AXIS2_PLACEMENT_3D('',#930,#732,#733);
#620=AXIS2_PLACEMENT_3D('',#932,#734,#735);
#621=AXIS2_PLACEMENT_3D('',#934,#737,#738);
#622=AXIS2_PLACEMENT_3D('',#936,#740,#741);
#623=AXIS2_PLACEMENT_3D('',#938,#743,#744);
#624=AXIS2_PLACEMENT_3D('',#941,#747,#748);
#625=AXIS2_PLACEMENT_3D('',#942,#749,#750);
#626=AXIS2_PLACEMENT_3D('',#944,#751,#752);
#627=AXIS2_PLACEMENT_3D('',#946,#753,#754);
#628=AXIS2_PLACEMENT_3D('',#957,#755,#756);
#629=AXIS2_PLACEMENT_3D('',#959,#757,#758);
#630=AXIS2_PLACEMENT_3D('',#960,#759,#760);
#631=AXIS2_PLACEMENT_3D('',#961,#761,#762);
#632=AXIS2_PLACEMENT_3D('',#973,#763,#764);
#633=AXIS2_PLACEMENT_3D('',#974,#765,#766);
#634=AXIS2_PLACEMENT_3D('',#977,#767,#768);
#635=AXIS2_PLACEMENT_3D('',#979,#769,#770);
#636=AXIS2_PLACEMENT_3D('',#981,#771,#772);
#637=AXIS2_PLACEMENT_3D('',#985,#774,#775);
#638=AXIS2_PLACEMENT_3D('',#987,#776,#777);
#639=AXIS2_PLACEMENT_3D('',#989,#778,#779);
#640=AXIS2_PLACEMENT_3D('',#993,#781,#782);
#641=AXIS2_PLACEMENT_3D('',#995,#783,#784);
#642=AXIS2_PLACEMENT_3D('',#997,#785,#786);
#643=AXIS2_PLACEMENT_3D('',#998,#787,#788);
#644=AXIS2_PLACEMENT_3D('',#999,#789,#790);
#645=AXIS2_PLACEMENT_3D('',#1002,#793,#794);
#646=AXIS2_PLACEMENT_3D('',#1022,#797,#798);
#647=AXIS2_PLACEMENT_3D('',#1024,#799,#800);
#648=AXIS2_PLACEMENT_3D('',#1026,#801,#802);
#649=AXIS2_PLACEMENT_3D('',#1027,#803,#804);
#650=AXIS2_PLACEMENT_3D('',#1028,#805,#806);
#651=AXIS2_PLACEMENT_3D('',#1031,#807,#808);
#652=AXIS2_PLACEMENT_3D('',#1032,#809,#810);
#653=AXIS2_PLACEMENT_3D('',#1033,#811,#812);
#654=AXIS2_PLACEMENT_3D('',#1051,#813,#814);
#655=AXIS2_PLACEMENT_3D('',#1052,#815,#816);
#656=AXIS2_PLACEMENT_3D('',#1053,#817,#818);
#657=AXIS2_PLACEMENT_3D('',#1054,#819,#820);
#658=AXIS2_PLACEMENT_3D('',#1057,#821,#822);
#659=AXIS2_PLACEMENT_3D('',#1071,#825,#826);
#660=AXIS2_PLACEMENT_3D('',#1072,#827,#828);
#661=AXIS2_PLACEMENT_3D('',#1073,#829,#830);
#662=AXIS2_PLACEMENT_3D('',#1074,#831,#832);
#663=AXIS2_PLACEMENT_3D('',#1077,#833,#834);
#664=AXIS2_PLACEMENT_3D('',#1078,#835,#836);
#665=AXIS2_PLACEMENT_3D('',#1079,#837,#838);
#666=AXIS2_PLACEMENT_3D('',#1091,#839,#840);
#667=AXIS2_PLACEMENT_3D('',#1092,#841,#842);
#668=AXIS2_PLACEMENT_3D('',#1093,#843,#844);
#669=AXIS2_PLACEMENT_3D('',#1094,#845,#846);
#670=AXIS2_PLACEMENT_3D('',#1097,#849,#850);
#671=AXIS2_PLACEMENT_3D('',#1100,#853,#854);
#672=AXIS2_PLACEMENT_3D('',#1102,#856,#857);
#673=AXIS2_PLACEMENT_3D('',#1104,#859,#860);
#674=AXIS2_PLACEMENT_3D('',#1106,#862,#863);
#675=AXIS2_PLACEMENT_3D('',#1107,#864,#865);
#676=AXIS2_PLACEMENT_3D('',#1109,#867,#868);
#677=AXIS2_PLACEMENT_3D('',#1111,#870,#871);
#678=AXIS2_PLACEMENT_3D('',#1113,#873,#874);
#679=AXIS2_PLACEMENT_3D('',#1114,#875,#876);
#680=AXIS2_PLACEMENT_3D('',#1115,#877,#878);
#681=DIRECTION('axis',(0.,0.,1.));
#682=DIRECTION('refdir',(1.,0.,0.));
#683=DIRECTION('center_axis',(5.55111512312707E-16,-1.,-2.22044604925063E-16));
#684=DIRECTION('ref_axis',(-0.806946584785903,0.,0.590624423218654));
#685=DIRECTION('center_axis',(-5.55111512312714E-16,1.,2.2204460492506E-16));
#686=DIRECTION('ref_axis',(-0.806946584785903,0.,0.590624423218654));
#687=DIRECTION('',(-5.55111512312707E-16,1.,2.22044604925063E-16));
#688=DIRECTION('center_axis',(5.55111512312714E-16,-1.,-2.2204460492506E-16));
#689=DIRECTION('ref_axis',(-0.806946584785903,0.,0.590624423218654));
#690=DIRECTION('',(5.55111512312709E-16,-1.,-2.22044604925063E-16));
#691=DIRECTION('center_axis',(5.55111512312707E-16,-1.,-2.22044604925063E-16));
#692=DIRECTION('ref_axis',(1.,5.55111512312707E-16,5.82681350447341E-30));
#693=DIRECTION('center_axis',(-5.55111512312714E-16,1.,2.2204460492506E-16));
#694=DIRECTION('ref_axis',(1.,5.55111512312707E-16,5.82681350447341E-30));
#695=DIRECTION('',(5.55111512312707E-16,-1.,-2.22044604925063E-16));
#696=DIRECTION('center_axis',(-5.55111512312714E-16,1.,2.2204460492506E-16));
#697=DIRECTION('ref_axis',(1.,5.55111512312707E-16,5.82681350447341E-30));
#698=DIRECTION('center_axis',(-5.55111512312714E-16,1.,2.2204460492506E-16));
#699=DIRECTION('ref_axis',(4.99600361081315E-16,-2.2204460492506E-16,1.));
#700=DIRECTION('center_axis',(5.55111512312714E-16,-1.,-2.2204460492506E-16));
#701=DIRECTION('ref_axis',(-0.794074732879593,-3.05836843734637E-16,-0.607820136719905));
#702=DIRECTION('center_axis',(-5.55111512312714E-16,1.,2.2204460492506E-16));
#703=DIRECTION('ref_axis',(1.,5.5511151231271E-16,1.86226262097781E-14));
#704=DIRECTION('center_axis',(5.55111512312714E-16,-1.,-2.2204460492506E-16));
#705=DIRECTION('ref_axis',(-0.794074732879593,-5.75763207981572E-16,0.607820136719905));
#706=DIRECTION('center_axis',(5.55111512312714E-16,-1.,-2.2204460492506E-16));
#707=DIRECTION('ref_axis',(1.,5.55111512312708E-16,5.83071103859008E-30));
#708=DIRECTION('center_axis',(5.55111512312714E-16,-1.,-2.2204460492506E-16));
#709=DIRECTION('ref_axis',(1.,5.55111512312708E-16,5.83071103859008E-30));
#710=DIRECTION('',(-5.79319727271676E-30,-2.2204460492506E-16,1.));
#711=DIRECTION('center_axis',(5.55111512312714E-16,-1.,-2.2204460492506E-16));
#712=DIRECTION('ref_axis',(0.669495968674112,0.,-0.742815689070386));
#713=DIRECTION('center_axis',(5.55111512312714E-16,-1.,-2.2204460492506E-16));
#714=DIRECTION('ref_axis',(1.,5.55111512312709E-16,5.88208952451993E-30));
#715=DIRECTION('center_axis',(5.55111512312714E-16,-1.,-2.2204460492506E-16));
#716=DIRECTION('ref_axis',(0.669495968674112,0.,0.742815689070386));
#717=DIRECTION('',(-5.79319727271676E-30,-2.2204460492506E-16,1.));
#718=DIRECTION('center_axis',(-5.55111512312714E-16,1.,2.2204460492506E-16));
#719=DIRECTION('ref_axis',(-0.806946584785903,0.,-0.590624423218654));
#720=DIRECTION('center_axis',(-5.55111512312707E-16,1.,2.22044604925063E-16));
#721=DIRECTION('ref_axis',(-0.806946584785903,0.,-0.590624423218654));
#722=DIRECTION('center_axis',(5.55111512312714E-16,-1.,-2.2204460492506E-16));
#723=DIRECTION('ref_axis',(-0.806946584785903,0.,-0.590624423218654));
#724=DIRECTION('',(-5.55111512312709E-16,1.,2.22044604925063E-16));
#725=DIRECTION('center_axis',(-5.55111512312714E-16,1.,2.2204460492506E-16));
#726=DIRECTION('ref_axis',(4.99600361081315E-16,-2.2204460492506E-16,1.));
#727=DIRECTION('center_axis',(5.55111512312714E-16,-1.,-2.2204460492506E-16));
#728=DIRECTION('ref_axis',(1.,5.55111512312708E-16,5.83071103859008E-30));
#729=DIRECTION('',(-5.79319727271676E-30,-2.2204460492506E-16,1.));
#730=DIRECTION('center_axis',(-5.55111512312714E-16,1.,2.2204460492506E-16));
#731=DIRECTION('ref_axis',(0.669495968674112,0.,0.742815689070386));
#732=DIRECTION('center_axis',(5.55111512312714E-16,-1.,-2.2204460492506E-16));
#733=DIRECTION('ref_axis',(1.,5.55111512312709E-16,5.88208952451993E-30));
#734=DIRECTION('center_axis',(-5.55111512312714E-16,1.,2.2204460492506E-16));
#735=DIRECTION('ref_axis',(0.669495968674112,0.,-0.742815689070386));
#736=DIRECTION('',(-5.79319727271676E-30,-2.2204460492506E-16,1.));
#737=DIRECTION('center_axis',(1.,5.55111512312709E-16,5.91645678915759E-30));
#738=DIRECTION('ref_axis',(-5.81784917600496E-30,-2.2204460492506E-16,1.));
#739=DIRECTION('',(5.55111512312709E-16,-1.,-2.22044604925062E-16));
#740=DIRECTION('center_axis',(5.55111512312709E-16,-1.,-2.22044604925062E-16));
#741=DIRECTION('ref_axis',(0.669495968674112,0.,0.742815689070386));
#742=DIRECTION('',(-5.55111512312709E-16,1.,2.22044604925062E-16));
#743=DIRECTION('center_axis',(5.55111512312709E-16,-1.,-2.22044604925062E-16));
#744=DIRECTION('ref_axis',(0.669495968674112,0.,-0.742815689070386));
#745=DIRECTION('',(5.55111512312709E-16,-1.,-2.22044604925062E-16));
#746=DIRECTION('',(-5.55111512312709E-16,1.,2.22044604925062E-16));
#747=DIRECTION('center_axis',(-5.55111512312709E-16,1.,2.22044604925062E-16));
#748=DIRECTION('ref_axis',(-1.,-5.55111512312709E-16,1.22464679914729E-16));
#749=DIRECTION('center_axis',(5.55111512312714E-16,-1.,-2.2204460492506E-16));
#750=DIRECTION('ref_axis',(-0.794074732879577,0.,0.607820136719925));
#751=DIRECTION('center_axis',(0.794074732879576,0.,-0.607820136719927));
#752=DIRECTION('ref_axis',(0.,1.,0.));
#753=DIRECTION('center_axis',(-5.55111512312714E-16,1.,2.2204460492506E-16));
#754=DIRECTION('ref_axis',(-0.794074732879593,-5.55111512312588E-16,0.607820136719905));
#755=DIRECTION('center_axis',(5.55111512312714E-16,-1.,-2.2204460492506E-16));
#756=DIRECTION('ref_axis',(0.,0.,-1.));
#757=DIRECTION('center_axis',(-0.794074732879549,0.,-0.607820136719961));
#758=DIRECTION('ref_axis',(0.,1.,0.));
#759=DIRECTION('center_axis',(5.55111512312714E-16,-1.,-2.2204460492506E-16));
#760=DIRECTION('ref_axis',(1.,5.55111512312579E-16,1.86226262097781E-14));
#761=DIRECTION('center_axis',(5.55111512312714E-16,-1.,-2.2204460492506E-16));
#762=DIRECTION('ref_axis',(0.,0.,-1.));
#763=DIRECTION('center_axis',(-5.55111512312714E-16,1.,2.2204460492506E-16));
#764=DIRECTION('ref_axis',(-0.794074732879593,-2.77555756156294E-16,-0.607820136719905));
#765=DIRECTION('center_axis',(2.43474522825479E-28,-1.,4.43734259186819E-31));
#766=DIRECTION('ref_axis',(1.,2.43449870922191E-28,5.81784917600496E-30));
#767=DIRECTION('center_axis',(-2.43474522825479E-28,1.,-4.43734259186819E-31));
#768=DIRECTION('ref_axis',(-0.442820428209983,0.,0.896610321354783));
#769=DIRECTION('center_axis',(2.43474522825479E-28,-1.,4.43734259186819E-31));
#770=DIRECTION('ref_axis',(1.,5.55111512312709E-16,5.88412642418952E-30));
#771=DIRECTION('center_axis',(-2.43474522825479E-28,1.,-4.43734259186819E-31));
#772=DIRECTION('ref_axis',(-0.990612554997341,0.,-0.136699546018409));
#773=DIRECTION('',(-0.593570565759536,-1.44854583721208E-28,-0.804781947774616));
#774=DIRECTION('center_axis',(-2.43474522825479E-28,1.,-4.43734259186819E-31));
#775=DIRECTION('ref_axis',(-0.136848920303203,0.,0.990591930621206));
#776=DIRECTION('center_axis',(2.43474522825479E-28,-1.,4.43734259186819E-31));
#777=DIRECTION('ref_axis',(1.,2.43420063913038E-28,5.7694375961083E-30));
#778=DIRECTION('center_axis',(-2.43474522825479E-28,1.,-4.43734259186819E-31));
#779=DIRECTION('ref_axis',(-0.136848920303169,0.,-0.99059193062121));
#780=DIRECTION('',(0.593570565759564,1.44139678525852E-28,-0.804781947774595));
#781=DIRECTION('center_axis',(-2.43474522825479E-28,1.,-4.43734259186819E-31));
#782=DIRECTION('ref_axis',(-0.990612554997341,0.,0.136699546018409));
#783=DIRECTION('center_axis',(2.43474522825479E-28,-1.,4.43734259186819E-31));
#784=DIRECTION('ref_axis',(1.,5.55111512312709E-16,5.88412642418952E-30));
#785=DIRECTION('center_axis',(-2.43474522825479E-28,1.,-4.43734259186819E-31));
#786=DIRECTION('ref_axis',(-0.896610321354808,0.,0.442820428209932));
#787=DIRECTION('center_axis',(-2.43474522825479E-28,1.,-4.43734259186819E-31));
#788=DIRECTION('ref_axis',(1.,5.55111512312708E-16,5.83071103859008E-30));
#789=DIRECTION('center_axis',(5.55111512312709E-16,-1.,-2.22044604925062E-16));
#790=DIRECTION('ref_axis',(-0.8966103213548,0.,-0.442820428209948));
#791=DIRECTION('',(5.55111512312709E-16,-1.,-2.22044604925062E-16));
#792=DIRECTION('',(-5.55111512312707E-16,1.,2.22044604925063E-16));
#793=DIRECTION('center_axis',(5.55111512312709E-16,-1.,-2.22044604925062E-16));
#794=DIRECTION('ref_axis',(-0.442820428209919,0.,-0.896610321354815));
#795=DIRECTION('',(5.55111512312707E-16,-1.,-2.22044604925063E-16));
#796=DIRECTION('',(-5.55111512312709E-16,1.,2.22044604925062E-16));
#797=DIRECTION('center_axis',(0.593570565759592,0.,0.804781947774574));
#798=DIRECTION('ref_axis',(-0.804781947774574,0.,0.593570565759592));
#799=DIRECTION('center_axis',(-5.55111512312714E-16,1.,2.2204460492506E-16));
#800=DIRECTION('ref_axis',(-0.136848920303133,-2.95922004984575E-16,0.990591930621215));
#801=DIRECTION('center_axis',(-0.789533022748674,0.,0.613708078804037));
#802=DIRECTION('ref_axis',(0.,-1.,0.));
#803=DIRECTION('center_axis',(5.55111512312714E-16,-1.,-2.2204460492506E-16));
#804=DIRECTION('ref_axis',(-0.136848920303134,-3.46944695195387E-16,0.990591930621215));
#805=DIRECTION('center_axis',(5.55111512312714E-16,-1.,-2.2204460492506E-16));
#806=DIRECTION('ref_axis',(0.,0.,-1.));
#807=DIRECTION('center_axis',(0.789533022748527,0.,0.613708078804226));
#808=DIRECTION('ref_axis',(0.,-1.,0.));
#809=DIRECTION('center_axis',(5.55111512312714E-16,-1.,-2.2204460492506E-16));
#810=DIRECTION('ref_axis',(1.,5.5556263339411E-16,1.75085991270025E-14));
#811=DIRECTION('center_axis',(-5.55111512312714E-16,1.,2.2204460492506E-16));
#812=DIRECTION('ref_axis',(1.,5.5511151231271E-16,1.75085991270025E-14));
#813=DIRECTION('center_axis',(0.593570565759592,0.,-0.804781947774574));
#814=DIRECTION('ref_axis',(0.,-1.,0.));
#815=DIRECTION('center_axis',(5.55111512312714E-16,-1.,-2.2204460492506E-16));
#816=DIRECTION('ref_axis',(-0.136848920303221,1.73472347597691E-16,-0.990591930621203));
#817=DIRECTION('center_axis',(-5.55111512312714E-16,1.,2.2204460492506E-16));
#818=DIRECTION('ref_axis',(-0.136848920303221,1.43989182768855E-16,-0.990591930621203));
#819=DIRECTION('center_axis',(0.593570565759564,5.08195344067535E-16,-0.804781947774595));
#820=DIRECTION('ref_axis',(-0.569066772647888,-0.70710678118655,-0.419717772161382));
#821=DIRECTION('center_axis',(0.593570565759439,0.,-0.804781947774687));
#822=DIRECTION('ref_axis',(0.,-1.,0.));
#823=DIRECTION('',(0.593570565759564,5.08195344067535E-16,-0.804781947774595));
#824=DIRECTION('',(-0.593570565759564,-5.08195344067535E-16,0.804781947774595));
#825=DIRECTION('center_axis',(-0.789347903063801,0.,-0.613946160447951));
#826=DIRECTION('ref_axis',(0.,-1.,0.));
#827=DIRECTION('center_axis',(5.55111512312714E-16,-1.,-2.2204460492506E-16));
#828=DIRECTION('ref_axis',(-0.990612554997335,-5.20417042793058E-16,0.136699546018453));
#829=DIRECTION('center_axis',(-5.55111512312714E-16,1.,2.2204460492506E-16));
#830=DIRECTION('ref_axis',(-0.990612554997336,-5.80253830209634E-16,0.136699546018453));
#831=DIRECTION('center_axis',(5.55111512312714E-16,-1.,-2.2204460492506E-16));
#832=DIRECTION('ref_axis',(0.,0.,-1.));
#833=DIRECTION('center_axis',(0.78934790306389,0.,-0.613946160447836));
#834=DIRECTION('ref_axis',(0.,-1.,0.));
#835=DIRECTION('center_axis',(-5.55111512312714E-16,1.,2.2204460492506E-16));
#836=DIRECTION('ref_axis',(1.,5.55111512312579E-16,1.3982257974394E-14));
#837=DIRECTION('center_axis',(5.55111512312714E-16,-1.,-2.2204460492506E-16));
#838=DIRECTION('ref_axis',(1.,5.5511151231271E-16,1.3982257974394E-14));
#839=DIRECTION('center_axis',(-0.593570565759592,0.,-0.804781947774574));
#840=DIRECTION('ref_axis',(0.,-1.,0.));
#841=DIRECTION('center_axis',(5.55111512312714E-16,-1.,-2.2204460492506E-16));
#842=DIRECTION('ref_axis',(-0.990612554997336,-5.20417042793058E-16,-0.136699546018452));
#843=DIRECTION('center_axis',(-5.55111512312714E-16,1.,2.2204460492506E-16));
#844=DIRECTION('ref_axis',(-0.990612554997336,-5.1954703683143E-16,-0.136699546018452));
#845=DIRECTION('center_axis',(-0.593570565759536,-1.50800364778654E-16,
-0.804781947774616));
#846=DIRECTION('ref_axis',(-0.569066772647888,-0.70710678118655,0.419717772161382));
#847=DIRECTION('',(0.593570565759536,1.50800364778654E-16,0.804781947774616));
#848=DIRECTION('',(-0.593570565759536,-1.50800364778654E-16,-0.804781947774616));
#849=DIRECTION('center_axis',(5.55111512312709E-16,-1.,-2.22044604925062E-16));
#850=DIRECTION('ref_axis',(1.,5.55111512312709E-16,5.88412642418952E-30));
#851=DIRECTION('',(-5.55111512312709E-16,1.,2.22044604925062E-16));
#852=DIRECTION('',(5.55111512312709E-16,-1.,-2.22044604925062E-16));
#853=DIRECTION('center_axis',(-5.55111512312709E-16,1.,2.22044604925062E-16));
#854=DIRECTION('ref_axis',(-0.990612554997341,0.,-0.136699546018409));
#855=DIRECTION('',(-5.55111512312708E-16,1.,2.22044604925062E-16));
#856=DIRECTION('center_axis',(0.804781947774616,5.78542865880355E-16,-0.593570565759536));
#857=DIRECTION('ref_axis',(-0.593570565759536,-1.44903887527785E-28,-0.804781947774616));
#858=DIRECTION('',(5.55111512312708E-16,-1.,-2.22044604925063E-16));
#859=DIRECTION('center_axis',(5.55111512312708E-16,-1.,-2.22044604925063E-16));
#860=DIRECTION('ref_axis',(-0.136848920303203,0.,0.990591930621206));
#861=DIRECTION('',(-5.55111512312707E-16,1.,2.22044604925063E-16));
#862=DIRECTION('center_axis',(5.55111512312714E-16,-1.,-2.2204460492506E-16));
#863=DIRECTION('ref_axis',(-4.99600361081314E-16,2.2204460492506E-16,-1.));
#864=DIRECTION('center_axis',(5.55111512312709E-16,-1.,-2.22044604925062E-16));
#865=DIRECTION('ref_axis',(-0.990612554997341,0.,0.136699546018409));
#866=DIRECTION('',(5.55111512312708E-16,-1.,-2.22044604925063E-16));
#867=DIRECTION('center_axis',(0.804781947774595,3.14944582341894E-16,0.593570565759564));
#868=DIRECTION('ref_axis',(0.593570565759564,1.4416433042914E-28,-0.804781947774595));
#869=DIRECTION('',(-5.55111512312707E-16,1.,2.22044604925063E-16));
#870=DIRECTION('center_axis',(-5.55111512312707E-16,1.,2.22044604925063E-16));
#871=DIRECTION('ref_axis',(-0.136848920303169,0.,-0.99059193062121));
#872=DIRECTION('',(5.55111512312707E-16,-1.,-2.22044604925063E-16));
#873=DIRECTION('center_axis',(-5.55111512312707E-16,1.,2.22044604925063E-16));
#874=DIRECTION('ref_axis',(1.,5.55111512312707E-16,5.89089944023689E-30));
#875=DIRECTION('center_axis',(1.,5.55111512312709E-16,5.91645678915759E-30));
#876=DIRECTION('ref_axis',(-5.81784917600496E-30,-2.2204460492506E-16,1.));
#877=DIRECTION('center_axis',(5.55111512312707E-16,-1.,-2.22044604925063E-16));
#878=DIRECTION('ref_axis',(1.,5.55111512312708E-16,5.83071103859008E-30));
#879=DIRECTION('',(-5.55111512312708E-16,1.,2.22044604925063E-16));
#880=CARTESIAN_POINT('',(0.,0.,0.));
#881=CARTESIAN_POINT('Origin',(220.607737080576,465.780152326007,580.339379383214));
#882=CARTESIAN_POINT('',(220.107737080576,462.980152326007,580.339379383214));
#883=CARTESIAN_POINT('',(220.456574289879,462.980152326007,580.815981744421));
#884=CARTESIAN_POINT('Origin',(220.607737080576,462.980152326007,580.339379383214));
#885=CARTESIAN_POINT('',(220.456574289879,465.780152326007,580.815981744421));
#886=CARTESIAN_POINT('',(220.456574289879,465.780152326007,580.815981744421));
#887=CARTESIAN_POINT('',(220.107737080576,465.780152326007,580.339379383214));
#888=CARTESIAN_POINT('Origin',(220.607737080576,465.780152326007,580.339379383214));
#889=CARTESIAN_POINT('',(220.107737080576,465.780152326007,580.339379383214));
#890=CARTESIAN_POINT('Origin',(219.957737080576,465.780152326007,582.388769536406));
#891=CARTESIAN_POINT('',(220.456574289879,462.980152326007,583.96155732839));
#892=CARTESIAN_POINT('Origin',(219.957737080576,462.980152326007,582.388769536406));
#893=CARTESIAN_POINT('',(220.456574289879,465.780152326007,583.96155732839));
#894=CARTESIAN_POINT('',(220.456574289879,465.780152326007,583.96155732839));
#895=CARTESIAN_POINT('Origin',(219.957737080576,465.780152326007,582.388769536406));
#896=CARTESIAN_POINT('Origin',(219.957737080576,462.980152326007,582.388769536406));
#897=CARTESIAN_POINT('',(228.619174028835,462.980152326007,571.073204592872));
#898=CARTESIAN_POINT('',(228.971359647779,462.980152326007,567.68104679575));
#899=CARTESIAN_POINT('Origin',(229.834814302275,462.980152326007,569.485055127113));
#900=CARTESIAN_POINT('',(228.619174028835,462.980152326007,593.70433447994));
#901=CARTESIAN_POINT('Origin',(219.957737080576,462.980152326007,582.388769536406));
#902=CARTESIAN_POINT('',(228.971359647778,462.980152326007,597.096492277062));
#903=CARTESIAN_POINT('Origin',(229.834814302275,462.980152326007,595.292483945699));
#904=CARTESIAN_POINT('',(202.707737080576,462.980152326007,582.388769536406));
#905=CARTESIAN_POINT('Origin',(219.957737080576,462.980152326007,582.388769536406));
#906=CARTESIAN_POINT('Origin',(219.957737080576,462.980152326007,582.388769536406));
#907=CARTESIAN_POINT('',(220.107737080576,462.980152326007,579.026939677534));
#908=CARTESIAN_POINT('',(220.107737080576,462.980152326007,580.523769536406));
#909=CARTESIAN_POINT('',(219.555961932647,462.980152326007,578.529627568234));
#910=CARTESIAN_POINT('Origin',(219.607737080576,462.980152326007,579.026939677534));
#911=CARTESIAN_POINT('',(219.555961932647,462.980152326007,586.247911504578));
#912=CARTESIAN_POINT('Origin',(219.957737080576,462.980152326007,582.388769536406));
#913=CARTESIAN_POINT('',(220.107737080576,462.980152326007,585.750599395277));
#914=CARTESIAN_POINT('Origin',(219.607737080576,462.980152326007,585.750599395277));
#915=CARTESIAN_POINT('',(220.107737080576,462.980152326007,584.438159689598));
#916=CARTESIAN_POINT('',(220.107737080576,462.980152326007,583.213769536406));
#917=CARTESIAN_POINT('Origin',(220.607737080576,462.980152326007,584.438159689598));
#918=CARTESIAN_POINT('Origin',(220.607737080576,465.780152326007,584.438159689598));
#919=CARTESIAN_POINT('',(220.107737080576,465.780152326007,584.438159689598));
#920=CARTESIAN_POINT('Origin',(220.607737080576,465.780152326007,584.438159689598));
#921=CARTESIAN_POINT('',(220.107737080576,465.780152326007,584.438159689598));
#922=CARTESIAN_POINT('Origin',(219.957737080576,465.780152326007,582.388769536406));
#923=CARTESIAN_POINT('',(202.707737080576,465.780152326007,582.388769536406));
#924=CARTESIAN_POINT('Origin',(219.957737080576,465.780152326007,582.388769536406));
#925=CARTESIAN_POINT('',(220.107737080576,465.780152326007,585.750599395277));
#926=CARTESIAN_POINT('',(220.107737080576,465.780152326007,583.213769536406));
#927=CARTESIAN_POINT('',(219.555961932647,465.780152326007,586.247911504578));
#928=CARTESIAN_POINT('Origin',(219.607737080576,465.780152326007,585.750599395277));
#929=CARTESIAN_POINT('',(219.555961932647,465.780152326007,578.529627568234));
#930=CARTESIAN_POINT('Origin',(219.957737080576,465.780152326007,582.388769536406));
#931=CARTESIAN_POINT('',(220.107737080576,465.780152326007,579.026939677534));
#932=CARTESIAN_POINT('Origin',(219.607737080576,465.780152326007,579.026939677534));
#933=CARTESIAN_POINT('',(220.107737080576,465.780152326007,580.523769536406));
#934=CARTESIAN_POINT('Origin',(220.107737080576,465.780152326007,584.038769536406));
#935=CARTESIAN_POINT('',(220.107737080576,465.780152326007,585.750599395277));
#936=CARTESIAN_POINT('Origin',(219.607737080576,465.780152326007,585.750599395277));
#937=CARTESIAN_POINT('',(219.555961932647,465.780152326007,586.247911504578));
#938=CARTESIAN_POINT('Origin',(219.607737080576,465.780152326007,579.026939677534));
#939=CARTESIAN_POINT('',(219.555961932647,465.780152326007,578.529627568234));
#940=CARTESIAN_POINT('',(220.107737080576,465.780152326007,579.026939677534));
#941=CARTESIAN_POINT('Origin',(219.957737080576,465.780152326007,582.388769536406));
#942=CARTESIAN_POINT('Origin',(229.834814302275,461.980152326007,595.292483945699));
#943=CARTESIAN_POINT('',(229.226994165555,461.980152326007,594.49840921282));
#944=CARTESIAN_POINT('Origin',(228.619174028835,461.980152326007,593.70433447994));
#945=CARTESIAN_POINT('',(230.442634438995,461.980152326007,596.086558678579));
#946=CARTESIAN_POINT('Origin',(229.834814302275,461.980152326007,595.292483945699));
#947=CARTESIAN_POINT('Ctrl Pts',(230.442634438995,461.980152326007,596.086558678579));
#948=CARTESIAN_POINT('Ctrl Pts',(230.441759262151,461.981222037282,596.08722857788));
#949=CARTESIAN_POINT('Ctrl Pts',(230.440884022927,461.982291746342,596.087898391913));
#950=CARTESIAN_POINT('Ctrl Pts',(230.307227295103,462.145632485763,596.190164576163));
#951=CARTESIAN_POINT('Ctrl Pts',(230.134865090051,462.358122855679,596.318857039508));
#952=CARTESIAN_POINT('Ctrl Pts',(229.798052847347,462.667142291686,596.557741077481));
#953=CARTESIAN_POINT('Ctrl Pts',(229.628658700475,462.795623547653,596.674851018866));
#954=CARTESIAN_POINT('Ctrl Pts',(229.28377787453,462.944056105031,596.901460153418));
#955=CARTESIAN_POINT('Ctrl Pts',(229.129425673718,462.980152326007,596.99962157018));
#956=CARTESIAN_POINT('Ctrl Pts',(228.971359647778,462.980152326007,597.096492277063));
#957=CARTESIAN_POINT('Origin',(219.957737080576,461.980152326007,582.388769536406));
#958=CARTESIAN_POINT('',(229.226994165555,461.980152326007,570.279129859993));
#959=CARTESIAN_POINT('Origin',(228.619174028835,461.980152326007,571.073204592872));
#960=CARTESIAN_POINT('Origin',(219.957737080576,461.980152326007,582.388769536406));
#961=CARTESIAN_POINT('Origin',(229.834814302275,461.980152326007,569.485055127113));
#962=CARTESIAN_POINT('',(230.442634438995,461.980152326007,568.690980394233));
#963=CARTESIAN_POINT('Ctrl Pts',(228.971359647779,462.980152326007,567.68104679575));
#964=CARTESIAN_POINT('Ctrl Pts',(229.129425673718,462.980152326007,567.777917502632));
#965=CARTESIAN_POINT('Ctrl Pts',(229.283777874531,462.944056105031,567.876078919394));
#966=CARTESIAN_POINT('Ctrl Pts',(229.628658700474,462.795623547654,568.102688053945));
#967=CARTESIAN_POINT('Ctrl Pts',(229.798052847346,462.667142291687,568.21979799533));
#968=CARTESIAN_POINT('Ctrl Pts',(230.134862443481,462.358125283862,568.458680156225));
#969=CARTESIAN_POINT('Ctrl Pts',(230.307222768809,462.145638016975,568.587371033398));
#970=CARTESIAN_POINT('Ctrl Pts',(230.4408840241,461.982291744918,568.689640681796));
#971=CARTESIAN_POINT('Ctrl Pts',(230.441759260971,461.981222038726,568.690310494028));
#972=CARTESIAN_POINT('Ctrl Pts',(230.442634438995,461.980152326007,568.690980394233));
#973=CARTESIAN_POINT('Origin',(229.834814302275,461.980152326007,569.485055127113));
#974=CARTESIAN_POINT('Origin',(220.46433464234,440.980152326005,582.388769536406));
#975=CARTESIAN_POINT('',(229.226994165555,440.980152326005,594.49840921282));
#976=CARTESIAN_POINT('',(230.442634438995,440.980152326005,596.086558678579));
#977=CARTESIAN_POINT('Origin',(229.834814302275,440.980152326005,595.292483945699));
#978=CARTESIAN_POINT('',(229.320416027407,440.980152326005,594.426325058129));
#979=CARTESIAN_POINT('Origin',(219.957737080576,440.980152326005,582.388769536406));
#980=CARTESIAN_POINT('',(229.244081712476,440.980152326005,594.979492445659));
#981=CARTESIAN_POINT('Origin',(229.565994491586,440.980152326005,594.742064219355));
#982=CARTESIAN_POINT('',(229.354999396602,440.980152326005,595.129878187511));
#983=CARTESIAN_POINT('',(219.957737080576,440.980152326005,582.388769536406));
#984=CARTESIAN_POINT('',(229.922395407234,440.980152326005,595.208263170307));
#985=CARTESIAN_POINT('Origin',(229.676912175712,440.980152326005,594.892449961207));
#986=CARTESIAN_POINT('',(229.922395407234,440.980152326005,569.569275902506));
#987=CARTESIAN_POINT('Origin',(219.957737080576,440.980152326005,582.388769536406));
#988=CARTESIAN_POINT('',(229.354999396602,440.980152326005,569.647660885301));
#989=CARTESIAN_POINT('Origin',(229.676912175712,440.980152326005,569.885089111605));
#990=CARTESIAN_POINT('',(229.244081712477,440.980152326005,569.798046627153));
#991=CARTESIAN_POINT('',(219.957737080576,440.980152326005,582.388769536406));
#992=CARTESIAN_POINT('',(229.320416027407,440.980152326005,570.351214014683));
#993=CARTESIAN_POINT('Origin',(229.565994491586,440.980152326005,570.035474853457));
#994=CARTESIAN_POINT('',(229.226994165555,440.980152326005,570.279129859993));
#995=CARTESIAN_POINT('Origin',(219.957737080576,440.980152326005,582.388769536406));
#996=CARTESIAN_POINT('',(230.442634438995,440.980152326005,568.690980394233));
#997=CARTESIAN_POINT('Origin',(229.834814302275,440.980152326005,569.485055127113));
#998=CARTESIAN_POINT('Origin',(219.957737080576,440.980152326005,582.388769536406));
#999=CARTESIAN_POINT('Origin',(229.834814302275,465.780152326007,595.292483945699));
#1000=CARTESIAN_POINT('',(229.226994165555,465.780152326007,594.49840921282));
#1001=CARTESIAN_POINT('',(230.442634438995,465.780152326007,596.086558678579));
#1002=CARTESIAN_POINT('Origin',(229.834814302275,465.780152326007,569.485055127113));
#1003=CARTESIAN_POINT('',(230.442634438995,465.780152326007,568.690980394233));
#1004=CARTESIAN_POINT('',(229.226994165555,465.780152326007,570.279129859993));
#1005=CARTESIAN_POINT('Ctrl Pts',(229.596433980935,439.580152326007,594.951807017783));
#1006=CARTESIAN_POINT('Ctrl Pts',(229.621460793898,439.580152326007,594.985739170833));
#1007=CARTESIAN_POINT('Ctrl Pts',(229.663227283682,439.580152326007,594.991509154269));
#1008=CARTESIAN_POINT('Ctrl Pts',(229.704993773465,439.580152326007,594.997279137706));
#1009=CARTESIAN_POINT('Ctrl Pts',(229.738282983592,439.580152326007,594.971403263482));
#1010=CARTESIAN_POINT('Ctrl Pts',(229.354999396602,439.580152326007,595.129878187511));
#1011=CARTESIAN_POINT('Ctrl Pts',(229.455106648456,439.580152326007,595.265606799711));
#1012=CARTESIAN_POINT('Ctrl Pts',(229.622172607591,439.580152326007,595.288686733456));
#1013=CARTESIAN_POINT('Ctrl Pts',(229.789238566726,439.580152326007,595.311766667201));
#1014=CARTESIAN_POINT('Ctrl Pts',(229.922395407234,439.580152326007,595.208263170307));
#1015=CARTESIAN_POINT('Ctrl Pts',(229.354999396602,439.880152326007,595.129878187511));
#1016=CARTESIAN_POINT('Ctrl Pts',(229.455106648456,439.880152326007,595.265606799711));
#1017=CARTESIAN_POINT('Ctrl Pts',(229.622172607591,439.880152326007,595.288686733456));
#1018=CARTESIAN_POINT('Ctrl Pts',(229.789238566726,439.880152326007,595.311766667201));
#1019=CARTESIAN_POINT('Ctrl Pts',(229.922395407234,439.880152326007,595.208263170307));
#1020=CARTESIAN_POINT('',(229.354999396602,439.880152326007,595.129878187511));
#1021=CARTESIAN_POINT('',(229.596433980935,439.580152326007,594.951807017783));
#1022=CARTESIAN_POINT('Origin',(229.596433980935,439.880152326007,594.951807017783));
#1023=CARTESIAN_POINT('',(229.738282983592,439.580152326007,594.971403263482));
#1024=CARTESIAN_POINT('Origin',(229.676912175712,439.580152326007,594.892449961207));
#1025=CARTESIAN_POINT('',(229.922395407234,439.880152326007,595.208263170307));
#1026=CARTESIAN_POINT('Origin',(229.738282983592,439.880152326007,594.971403263482));
#1027=CARTESIAN_POINT('Origin',(229.676912175712,439.880152326007,594.892449961207));
#1028=CARTESIAN_POINT('Origin',(219.957737080576,439.880152326007,582.388769536406));
#1029=CARTESIAN_POINT('',(229.738282983593,439.580152326007,569.80613580933));
#1030=CARTESIAN_POINT('',(229.922395407234,439.880152326007,569.569275902506));
#1031=CARTESIAN_POINT('Origin',(229.738282983593,439.880152326007,569.80613580933));
#1032=CARTESIAN_POINT('Origin',(219.957737080576,439.880152326007,582.388769536406));
#1033=CARTESIAN_POINT('Origin',(219.957737080576,439.580152326007,582.388769536406));
#1034=CARTESIAN_POINT('Ctrl Pts',(229.738282983593,439.580152326007,569.80613580933));
#1035=CARTESIAN_POINT('Ctrl Pts',(229.704993773466,439.580152326007,569.780259935107));
#1036=CARTESIAN_POINT('Ctrl Pts',(229.663227283682,439.580152326007,569.786029918543));
#1037=CARTESIAN_POINT('Ctrl Pts',(229.621460793898,439.580152326007,569.791799901979));
#1038=CARTESIAN_POINT('Ctrl Pts',(229.596433980935,439.580152326007,569.825732055029));
#1039=CARTESIAN_POINT('Ctrl Pts',(229.922395407234,439.580152326007,569.569275902506));
#1040=CARTESIAN_POINT('Ctrl Pts',(229.789238566726,439.580152326007,569.465772405611));
#1041=CARTESIAN_POINT('Ctrl Pts',(229.622172607591,439.580152326007,569.488852339357));
#1042=CARTESIAN_POINT('Ctrl Pts',(229.455106648456,439.580152326007,569.511932273101));
#1043=CARTESIAN_POINT('Ctrl Pts',(229.354999396602,439.580152326007,569.647660885301));
#1044=CARTESIAN_POINT('Ctrl Pts',(229.922395407234,439.880152326007,569.569275902506));
#1045=CARTESIAN_POINT('Ctrl Pts',(229.789238566726,439.880152326007,569.465772405611));
#1046=CARTESIAN_POINT('Ctrl Pts',(229.622172607591,439.880152326007,569.488852339357));
#1047=CARTESIAN_POINT('Ctrl Pts',(229.455106648456,439.880152326007,569.511932273101));
#1048=CARTESIAN_POINT('Ctrl Pts',(229.354999396602,439.880152326007,569.647660885301));
#1049=CARTESIAN_POINT('',(229.596433980935,439.580152326007,569.825732055029));
#1050=CARTESIAN_POINT('',(229.354999396603,439.880152326007,569.647660885301));
#1051=CARTESIAN_POINT('Origin',(229.596433980935,439.880152326007,569.825732055029));
#1052=CARTESIAN_POINT('Origin',(229.676912175712,439.880152326007,569.885089111605));
#1053=CARTESIAN_POINT('Origin',(229.676912175712,439.580152326007,569.885089111605));
#1054=CARTESIAN_POINT('Origin',(227.026459489139,439.880152326007,573.310185625587));
#1055=CARTESIAN_POINT('',(229.485516296809,439.580152326007,569.976117796881));
#1056=CARTESIAN_POINT('',(229.244081712477,439.880152326007,569.798046627153));
#1057=CARTESIAN_POINT('Origin',(229.485516296809,439.880152326007,569.976117796881));
#1058=CARTESIAN_POINT('',(226.785024904806,439.880152326007,573.132114455859));
#1059=CARTESIAN_POINT('',(227.026459489139,439.580152326007,573.310185625587));
#1060=CARTESIAN_POINT('Ctrl Pts',(229.485516296809,439.580152326007,569.976117796881));
#1061=CARTESIAN_POINT('Ctrl Pts',(229.42765745175,439.580152326007,570.05456466859));
#1062=CARTESIAN_POINT('Ctrl Pts',(229.504599875542,439.580152326007,570.114409643764));
#1063=CARTESIAN_POINT('Ctrl Pts',(229.244081712477,439.580152326007,569.798046627153));
#1064=CARTESIAN_POINT('Ctrl Pts',(229.012646332242,439.580152326007,570.111834113988));
#1065=CARTESIAN_POINT('Ctrl Pts',(229.320416027407,439.580152326007,570.351214014683));
#1066=CARTESIAN_POINT('Ctrl Pts',(229.244081712477,439.880152326007,569.798046627153));
#1067=CARTESIAN_POINT('Ctrl Pts',(229.012646332242,439.880152326007,570.111834113988));
#1068=CARTESIAN_POINT('Ctrl Pts',(229.320416027407,439.880152326007,570.351214014683));
#1069=CARTESIAN_POINT('',(229.504599875542,439.580152326007,570.114409643764));
#1070=CARTESIAN_POINT('',(229.320416027407,439.880152326007,570.351214014683));
#1071=CARTESIAN_POINT('Origin',(229.504599875542,439.880152326007,570.114409643764));
#1072=CARTESIAN_POINT('Origin',(229.565994491586,439.880152326007,570.035474853457));
#1073=CARTESIAN_POINT('Origin',(229.565994491586,439.580152326007,570.035474853457));
#1074=CARTESIAN_POINT('Origin',(219.957737080576,439.880152326007,582.388769536406));
#1075=CARTESIAN_POINT('',(229.504599875541,439.580152326007,594.663129429048));
#1076=CARTESIAN_POINT('',(229.320416027407,439.880152326007,594.426325058129));
#1077=CARTESIAN_POINT('Origin',(229.504599875541,439.880152326007,594.663129429048));
#1078=CARTESIAN_POINT('Origin',(219.957737080576,439.880152326007,582.388769536406));
#1079=CARTESIAN_POINT('Origin',(219.957737080576,439.580152326007,582.388769536406));
#1080=CARTESIAN_POINT('Ctrl Pts',(229.504599875541,439.580152326007,594.663129429048));
#1081=CARTESIAN_POINT('Ctrl Pts',(229.42765745175,439.580152326007,594.722974404222));
#1082=CARTESIAN_POINT('Ctrl Pts',(229.485516296809,439.580152326007,594.801421275931));
#1083=CARTESIAN_POINT('Ctrl Pts',(229.320416027407,439.580152326007,594.426325058129));
#1084=CARTESIAN_POINT('Ctrl Pts',(229.012646332242,439.580152326007,594.665704958824));
#1085=CARTESIAN_POINT('Ctrl Pts',(229.244081712476,439.580152326007,594.979492445659));
#1086=CARTESIAN_POINT('Ctrl Pts',(229.320416027407,439.880152326007,594.426325058129));
#1087=CARTESIAN_POINT('Ctrl Pts',(229.012646332242,439.880152326007,594.665704958824));
#1088=CARTESIAN_POINT('Ctrl Pts',(229.244081712476,439.880152326007,594.979492445659));
#1089=CARTESIAN_POINT('',(229.485516296809,439.580152326007,594.801421275931));
#1090=CARTESIAN_POINT('',(229.244081712476,439.880152326007,594.979492445659));
#1091=CARTESIAN_POINT('Origin',(229.485516296809,439.880152326007,594.801421275931));
#1092=CARTESIAN_POINT('Origin',(229.565994491586,439.880152326007,594.742064219355));
#1093=CARTESIAN_POINT('Origin',(229.565994491586,439.580152326007,594.742064219355));
#1094=CARTESIAN_POINT('Origin',(227.319328653549,439.880152326007,591.864434822506));
#1095=CARTESIAN_POINT('',(227.319328653549,439.580152326007,591.864434822506));
#1096=CARTESIAN_POINT('',(227.077894069217,439.880152326007,592.042505992234));
#1097=CARTESIAN_POINT('Origin',(219.957737080576,465.780152326007,582.388769536406));
#1098=CARTESIAN_POINT('',(229.320416027407,465.780152326007,570.351214014683));
#1099=CARTESIAN_POINT('',(229.320416027407,465.780152326007,594.426325058129));
#1100=CARTESIAN_POINT('Origin',(229.565994491586,465.780152326007,594.742064219355));
#1101=CARTESIAN_POINT('',(229.244081712476,465.780152326007,594.979492445659));
#1102=CARTESIAN_POINT('Origin',(229.595426537231,438.180152326005,595.45585699053));
#1103=CARTESIAN_POINT('',(229.354999396602,438.180152326005,595.129878187511));
#1104=CARTESIAN_POINT('Origin',(229.676912175712,438.180152326005,594.892449961207));
#1105=CARTESIAN_POINT('',(229.922395407234,438.180152326005,595.208263170307));
#1106=CARTESIAN_POINT('Origin',(233.021275691426,439.580152326007,582.388769536406));
#1107=CARTESIAN_POINT('Origin',(229.565994491586,465.780152326007,570.035474853457));
#1108=CARTESIAN_POINT('',(229.244081712477,465.780152326007,569.798046627153));
#1109=CARTESIAN_POINT('Origin',(229.00968820841,438.180152326005,570.115844832843));
#1110=CARTESIAN_POINT('',(229.354999396603,438.180152326005,569.647660885301));
#1111=CARTESIAN_POINT('Origin',(229.676912175712,438.180152326005,569.885089111605));
#1112=CARTESIAN_POINT('',(229.922395407234,438.180152326005,569.569275902506));
#1113=CARTESIAN_POINT('Origin',(219.957737080576,438.180152326005,582.388769536406));
#1114=CARTESIAN_POINT('Origin',(220.107737080576,465.780152326007,578.658769536406));
#1115=CARTESIAN_POINT('Origin',(219.957737080576,465.780152326007,582.388769536406));
#1116=CARTESIAN_POINT('',(202.707737080576,465.780152326007,582.388769536406));
#1117=UNCERTAINTY_MEASURE_WITH_UNIT(LENGTH_MEASURE(0.01),#1121,
'DISTANCE_ACCURACY_VALUE',
'Maximum model space distance between geometric entities at asserted c
onnectivities');
#1118=UNCERTAINTY_MEASURE_WITH_UNIT(LENGTH_MEASURE(0.01),#1121,
'DISTANCE_ACCURACY_VALUE',
'Maximum model space distance between geometric entities at asserted c
onnectivities');
#1119=(
GEOMETRIC_REPRESENTATION_CONTEXT(3)
GLOBAL_UNCERTAINTY_ASSIGNED_CONTEXT((#1117))
GLOBAL_UNIT_ASSIGNED_CONTEXT((#1121,#1123,#1124))
REPRESENTATION_CONTEXT('','3D')
);
#1120=(
GEOMETRIC_REPRESENTATION_CONTEXT(3)
GLOBAL_UNCERTAINTY_ASSIGNED_CONTEXT((#1118))
GLOBAL_UNIT_ASSIGNED_CONTEXT((#1121,#1123,#1124))
REPRESENTATION_CONTEXT('','3D')
);
#1121=(
LENGTH_UNIT()
NAMED_UNIT(*)
SI_UNIT(.MILLI.,.METRE.)
);
#1122=(
LENGTH_UNIT()
NAMED_UNIT(*)
SI_UNIT($,.METRE.)
);
#1123=(
NAMED_UNIT(*)
PLANE_ANGLE_UNIT()
SI_UNIT($,.RADIAN.)
);
#1124=(
NAMED_UNIT(*)
SI_UNIT($,.STERADIAN.)
SOLID_ANGLE_UNIT()
);
#1125=SHAPE_DEFINITION_REPRESENTATION(#1126,#1127);
#1126=PRODUCT_DEFINITION_SHAPE('',$,#1129);
#1127=SHAPE_REPRESENTATION('',(#597),#1119);
#1128=PRODUCT_DEFINITION_CONTEXT('part definition',#1133,'design');
#1129=PRODUCT_DEFINITION('CPAP valve 3-way - Valve - A -',
'CPAP valve 3-way - Valve - A - v2',#1130,#1128);
#1130=PRODUCT_DEFINITION_FORMATION('',$,#1135);
#1131=PRODUCT_RELATED_PRODUCT_CATEGORY(
'CPAP valve 3-way - Valve - A - v2','CPAP valve 3-way - Valve - A - v2',
(#1135));
#1132=APPLICATION_PROTOCOL_DEFINITION('international standard',
'automotive_design',2009,#1133);
#1133=APPLICATION_CONTEXT(
'Core Data for Automotive Mechanical Design Process');
#1134=PRODUCT_CONTEXT('part definition',#1133,'mechanical');
#1135=PRODUCT('CPAP valve 3-way - Valve - A -',
'CPAP valve 3-way - Valve - A - v2',$,(#1134));
#1136=PRESENTATION_STYLE_ASSIGNMENT((#1137));
#1137=SURFACE_STYLE_USAGE(.BOTH.,#1138);
#1138=SURFACE_SIDE_STYLE('',(#1139));
#1139=SURFACE_STYLE_FILL_AREA(#1140);
#1140=FILL_AREA_STYLE('Steel - Satin',(#1141));
#1141=FILL_AREA_STYLE_COLOUR('Steel - Satin',#1142);
#1142=COLOUR_RGB('Steel - Satin',0.627450980392157,0.627450980392157,0.627450980392157);
ENDSEC;
END-ISO-10303-21;
