ISO-10303-21;
HEADER;
/* Generated by software containing ST-Developer
 * from STEP Tools, Inc. (www.steptools.com) 
 */

FILE_DESCRIPTION(
/* description */ (''),
/* implementation_level */ '2;1');

FILE_NAME(
/* name */ 'CPAP valve 3-way - Valve - B - v2.step',
/* time_stamp */ '2026-07-24T23:40:28+02:00',
/* author */ (''),
/* organization */ (''),
/* preprocessor_version */ 'ST-DEVELOPER v20.1',
/* originating_system */ 'Autodesk Translation Framework v15.8.0.0',
/* authorisation */ '');

FILE_SCHEMA (('AUTOMOTIVE_DESIGN { 1 0 10303 214 3 1 1 }'));
ENDSEC;

DATA;
#10=MECHANICAL_DESIGN_GEOMETRIC_PRESENTATION_REPRESENTATION('',(#13),#436);
#11=SHAPE_REPRESENTATION_RELATIONSHIP('SRR','None',#443,#12);
#12=ADVANCED_BREP_SHAPE_REPRESENTATION('',(#14),#435);
#13=STYLED_ITEM('',(#452),#14);
#14=MANIFOLD_SOLID_BREP('Body1',#240);
#15=FACE_BOUND('',#46,.T.);
#16=FACE_BOUND('',#50,.T.);
#17=PLANE('',#257);
#18=PLANE('',#265);
#19=PLANE('',#270);
#20=PLANE('',#279);
#21=PLANE('',#280);
#22=PLANE('',#284);
#23=FACE_OUTER_BOUND('',#36,.T.);
#24=FACE_OUTER_BOUND('',#37,.T.);
#25=FACE_OUTER_BOUND('',#38,.T.);
#26=FACE_OUTER_BOUND('',#39,.T.);
#27=FACE_OUTER_BOUND('',#40,.T.);
#28=FACE_OUTER_BOUND('',#41,.T.);
#29=FACE_OUTER_BOUND('',#42,.T.);
#30=FACE_OUTER_BOUND('',#43,.T.);
#31=FACE_OUTER_BOUND('',#44,.T.);
#32=FACE_OUTER_BOUND('',#45,.T.);
#33=FACE_OUTER_BOUND('',#47,.T.);
#34=FACE_OUTER_BOUND('',#48,.T.);
#35=FACE_OUTER_BOUND('',#49,.T.);
#36=EDGE_LOOP('',(#154,#155,#156,#157));
#37=EDGE_LOOP('',(#158,#159,#160,#161,#162,#163,#164,#165,#166,#167));
#38=EDGE_LOOP('',(#168,#169,#170,#171));
#39=EDGE_LOOP('',(#172,#173,#174,#175));
#40=EDGE_LOOP('',(#176,#177,#178,#179));
#41=EDGE_LOOP('',(#180,#181,#182,#183));
#42=EDGE_LOOP('',(#184,#185,#186,#187));
#43=EDGE_LOOP('',(#188,#189,#190,#191,#192,#193,#194,#195));
#44=EDGE_LOOP('',(#196,#197,#198,#199));
#45=EDGE_LOOP('',(#200));
#46=EDGE_LOOP('',(#201));
#47=EDGE_LOOP('',(#202,#203,#204,#205,#206,#207,#208,#209));
#48=EDGE_LOOP('',(#210,#211,#212,#213,#214,#215,#216,#217));
#49=EDGE_LOOP('',(#218));
#50=EDGE_LOOP('',(#219));
#51=LINE('',#370,#66);
#52=LINE('',#373,#67);
#53=LINE('',#376,#68);
#54=LINE('',#386,#69);
#55=LINE('',#394,#70);
#56=LINE('',#395,#71);
#57=LINE('',#399,#72);
#58=LINE('',#402,#73);
#59=LINE('',#405,#74);
#60=LINE('',#408,#75);
#61=LINE('',#409,#76);
#62=LINE('',#413,#77);
#63=LINE('',#417,#78);
#64=LINE('',#423,#79);
#65=LINE('',#431,#80);
#66=VECTOR('',#291,10.);
#67=VECTOR('',#294,10.);
#68=VECTOR('',#297,10.);
#69=VECTOR('',#306,10.);
#70=VECTOR('',#315,10.);
#71=VECTOR('',#316,10.);
#72=VECTOR('',#321,10.);
#73=VECTOR('',#324,10.);
#74=VECTOR('',#327,10.);
#75=VECTOR('',#330,10.);
#76=VECTOR('',#331,10.);
#77=VECTOR('',#336,10.);
#78=VECTOR('',#341,3.73000000000001);
#79=VECTOR('',#348,2.93000000000003);
#80=VECTOR('',#361,1.64999999999999);
#81=CIRCLE('',#255,0.5);
#82=CIRCLE('',#256,0.5);
#83=CIRCLE('',#258,0.5);
#84=CIRCLE('',#259,1.64999999999999);
#85=CIRCLE('',#260,1.64999999999999);
#86=CIRCLE('',#261,0.5);
#87=CIRCLE('',#262,0.5);
#88=CIRCLE('',#263,3.73000000000001);
#89=CIRCLE('',#264,3.73000000000001);
#90=CIRCLE('',#267,0.5);
#91=CIRCLE('',#269,0.5);
#92=CIRCLE('',#272,0.5);
#93=CIRCLE('',#274,3.73000000000001);
#94=CIRCLE('',#275,3.73000000000001);
#95=CIRCLE('',#277,2.93000000000003);
#96=CIRCLE('',#278,2.93000000000003);
#97=CIRCLE('',#281,1.64999999999999);
#98=CIRCLE('',#283,1.64999999999999);
#99=VERTEX_POINT('',#366);
#100=VERTEX_POINT('',#367);
#101=VERTEX_POINT('',#369);
#102=VERTEX_POINT('',#371);
#103=VERTEX_POINT('',#375);
#104=VERTEX_POINT('',#377);
#105=VERTEX_POINT('',#379);
#106=VERTEX_POINT('',#381);
#107=VERTEX_POINT('',#383);
#108=VERTEX_POINT('',#385);
#109=VERTEX_POINT('',#387);
#110=VERTEX_POINT('',#389);
#111=VERTEX_POINT('',#393);
#112=VERTEX_POINT('',#397);
#113=VERTEX_POINT('',#401);
#114=VERTEX_POINT('',#403);
#115=VERTEX_POINT('',#407);
#116=VERTEX_POINT('',#411);
#117=VERTEX_POINT('',#415);
#118=VERTEX_POINT('',#420);
#119=VERTEX_POINT('',#422);
#120=VERTEX_POINT('',#429);
#121=EDGE_CURVE('',#99,#100,#81,.T.);
#122=EDGE_CURVE('',#100,#101,#51,.T.);
#123=EDGE_CURVE('',#101,#102,#82,.F.);
#124=EDGE_CURVE('',#102,#99,#52,.T.);
#125=EDGE_CURVE('',#99,#103,#53,.T.);
#126=EDGE_CURVE('',#104,#103,#83,.T.);
#127=EDGE_CURVE('',#104,#105,#84,.T.);
#128=EDGE_CURVE('',#105,#106,#85,.T.);
#129=EDGE_CURVE('',#107,#106,#86,.T.);
#130=EDGE_CURVE('',#107,#108,#54,.T.);
#131=EDGE_CURVE('',#109,#108,#87,.T.);
#132=EDGE_CURVE('',#109,#110,#88,.T.);
#133=EDGE_CURVE('',#110,#100,#89,.T.);
#134=EDGE_CURVE('',#111,#102,#55,.T.);
#135=EDGE_CURVE('',#103,#111,#56,.T.);
#136=EDGE_CURVE('',#111,#112,#90,.F.);
#137=EDGE_CURVE('',#112,#104,#57,.T.);
#138=EDGE_CURVE('',#106,#113,#58,.T.);
#139=EDGE_CURVE('',#113,#114,#91,.F.);
#140=EDGE_CURVE('',#114,#107,#59,.T.);
#141=EDGE_CURVE('',#115,#114,#60,.T.);
#142=EDGE_CURVE('',#108,#115,#61,.T.);
#143=EDGE_CURVE('',#115,#116,#92,.F.);
#144=EDGE_CURVE('',#116,#109,#62,.T.);
#145=EDGE_CURVE('',#117,#117,#93,.T.);
#146=EDGE_CURVE('',#117,#110,#63,.T.);
#147=EDGE_CURVE('',#101,#116,#94,.T.);
#148=EDGE_CURVE('',#118,#118,#95,.T.);
#149=EDGE_CURVE('',#118,#119,#64,.T.);
#150=EDGE_CURVE('',#119,#119,#96,.T.);
#151=EDGE_CURVE('',#113,#112,#97,.T.);
#152=EDGE_CURVE('',#120,#120,#98,.T.);
#153=EDGE_CURVE('',#120,#105,#65,.T.);
#154=ORIENTED_EDGE('',*,*,#121,.T.);
#155=ORIENTED_EDGE('',*,*,#122,.T.);
#156=ORIENTED_EDGE('',*,*,#123,.T.);
#157=ORIENTED_EDGE('',*,*,#124,.T.);
#158=ORIENTED_EDGE('',*,*,#121,.F.);
#159=ORIENTED_EDGE('',*,*,#125,.T.);
#160=ORIENTED_EDGE('',*,*,#126,.F.);
#161=ORIENTED_EDGE('',*,*,#127,.T.);
#162=ORIENTED_EDGE('',*,*,#128,.T.);
#163=ORIENTED_EDGE('',*,*,#129,.F.);
#164=ORIENTED_EDGE('',*,*,#130,.T.);
#165=ORIENTED_EDGE('',*,*,#131,.F.);
#166=ORIENTED_EDGE('',*,*,#132,.T.);
#167=ORIENTED_EDGE('',*,*,#133,.T.);
#168=ORIENTED_EDGE('',*,*,#124,.F.);
#169=ORIENTED_EDGE('',*,*,#134,.F.);
#170=ORIENTED_EDGE('',*,*,#135,.F.);
#171=ORIENTED_EDGE('',*,*,#125,.F.);
#172=ORIENTED_EDGE('',*,*,#126,.T.);
#173=ORIENTED_EDGE('',*,*,#135,.T.);
#174=ORIENTED_EDGE('',*,*,#136,.T.);
#175=ORIENTED_EDGE('',*,*,#137,.T.);
#176=ORIENTED_EDGE('',*,*,#129,.T.);
#177=ORIENTED_EDGE('',*,*,#138,.T.);
#178=ORIENTED_EDGE('',*,*,#139,.T.);
#179=ORIENTED_EDGE('',*,*,#140,.T.);
#180=ORIENTED_EDGE('',*,*,#140,.F.);
#181=ORIENTED_EDGE('',*,*,#141,.F.);
#182=ORIENTED_EDGE('',*,*,#142,.F.);
#183=ORIENTED_EDGE('',*,*,#130,.F.);
#184=ORIENTED_EDGE('',*,*,#131,.T.);
#185=ORIENTED_EDGE('',*,*,#142,.T.);
#186=ORIENTED_EDGE('',*,*,#143,.T.);
#187=ORIENTED_EDGE('',*,*,#144,.T.);
#188=ORIENTED_EDGE('',*,*,#145,.F.);
#189=ORIENTED_EDGE('',*,*,#146,.T.);
#190=ORIENTED_EDGE('',*,*,#132,.F.);
#191=ORIENTED_EDGE('',*,*,#144,.F.);
#192=ORIENTED_EDGE('',*,*,#147,.F.);
#193=ORIENTED_EDGE('',*,*,#122,.F.);
#194=ORIENTED_EDGE('',*,*,#133,.F.);
#195=ORIENTED_EDGE('',*,*,#146,.F.);
#196=ORIENTED_EDGE('',*,*,#148,.F.);
#197=ORIENTED_EDGE('',*,*,#149,.T.);
#198=ORIENTED_EDGE('',*,*,#150,.F.);
#199=ORIENTED_EDGE('',*,*,#149,.F.);
#200=ORIENTED_EDGE('',*,*,#145,.T.);
#201=ORIENTED_EDGE('',*,*,#148,.T.);
#202=ORIENTED_EDGE('',*,*,#134,.T.);
#203=ORIENTED_EDGE('',*,*,#123,.F.);
#204=ORIENTED_EDGE('',*,*,#147,.T.);
#205=ORIENTED_EDGE('',*,*,#143,.F.);
#206=ORIENTED_EDGE('',*,*,#141,.T.);
#207=ORIENTED_EDGE('',*,*,#139,.F.);
#208=ORIENTED_EDGE('',*,*,#151,.T.);
#209=ORIENTED_EDGE('',*,*,#136,.F.);
#210=ORIENTED_EDGE('',*,*,#152,.T.);
#211=ORIENTED_EDGE('',*,*,#153,.T.);
#212=ORIENTED_EDGE('',*,*,#127,.F.);
#213=ORIENTED_EDGE('',*,*,#137,.F.);
#214=ORIENTED_EDGE('',*,*,#151,.F.);
#215=ORIENTED_EDGE('',*,*,#138,.F.);
#216=ORIENTED_EDGE('',*,*,#128,.F.);
#217=ORIENTED_EDGE('',*,*,#153,.F.);
#218=ORIENTED_EDGE('',*,*,#150,.T.);
#219=ORIENTED_EDGE('',*,*,#152,.F.);
#220=CYLINDRICAL_SURFACE('',#254,0.5);
#221=CYLINDRICAL_SURFACE('',#266,0.5);
#222=CYLINDRICAL_SURFACE('',#268,0.5);
#223=CYLINDRICAL_SURFACE('',#271,0.5);
#224=CYLINDRICAL_SURFACE('',#273,3.73000000000001);
#225=CYLINDRICAL_SURFACE('',#276,2.93000000000003);
#226=CYLINDRICAL_SURFACE('',#282,1.64999999999999);
#227=ADVANCED_FACE('',(#23),#220,.T.);
#228=ADVANCED_FACE('',(#24),#17,.T.);
#229=ADVANCED_FACE('',(#25),#18,.T.);
#230=ADVANCED_FACE('',(#26),#221,.T.);
#231=ADVANCED_FACE('',(#27),#222,.T.);
#232=ADVANCED_FACE('',(#28),#19,.T.);
#233=ADVANCED_FACE('',(#29),#223,.T.);
#234=ADVANCED_FACE('',(#30),#224,.T.);
#235=ADVANCED_FACE('',(#31),#225,.F.);
#236=ADVANCED_FACE('',(#32,#15),#20,.F.);
#237=ADVANCED_FACE('',(#33),#21,.F.);
#238=ADVANCED_FACE('',(#34),#226,.F.);
#239=ADVANCED_FACE('',(#35,#16),#22,.T.);
#240=CLOSED_SHELL('',(#227,#228,#229,#230,#231,#232,#233,#234,#235,#236,
#237,#238,#239));
#241=DERIVED_UNIT_ELEMENT(#243,1.);
#242=DERIVED_UNIT_ELEMENT(#438,-3.);
#243=(
MASS_UNIT()
NAMED_UNIT(*)
SI_UNIT(.KILO.,.GRAM.)
);
#244=DERIVED_UNIT((#241,#242));
#245=MEASURE_REPRESENTATION_ITEM('density measure',
POSITIVE_RATIO_MEASURE(7850.),#244);
#246=PROPERTY_DEFINITION_REPRESENTATION(#251,#248);
#247=PROPERTY_DEFINITION_REPRESENTATION(#252,#249);
#248=REPRESENTATION('material name',(#250),#435);
#249=REPRESENTATION('density',(#245),#435);
#250=DESCRIPTIVE_REPRESENTATION_ITEM('Steel','Steel');
#251=PROPERTY_DEFINITION('material property','material name',#445);
#252=PROPERTY_DEFINITION('material property','density of part',#445);
#253=AXIS2_PLACEMENT_3D('',#364,#285,#286);
#254=AXIS2_PLACEMENT_3D('',#365,#287,#288);
#255=AXIS2_PLACEMENT_3D('',#368,#289,#290);
#256=AXIS2_PLACEMENT_3D('',#372,#292,#293);
#257=AXIS2_PLACEMENT_3D('',#374,#295,#296);
#258=AXIS2_PLACEMENT_3D('',#378,#298,#299);
#259=AXIS2_PLACEMENT_3D('',#380,#300,#301);
#260=AXIS2_PLACEMENT_3D('',#382,#302,#303);
#261=AXIS2_PLACEMENT_3D('',#384,#304,#305);
#262=AXIS2_PLACEMENT_3D('',#388,#307,#308);
#263=AXIS2_PLACEMENT_3D('',#390,#309,#310);
#264=AXIS2_PLACEMENT_3D('',#391,#311,#312);
#265=AXIS2_PLACEMENT_3D('',#392,#313,#314);
#266=AXIS2_PLACEMENT_3D('',#396,#317,#318);
#267=AXIS2_PLACEMENT_3D('',#398,#319,#320);
#268=AXIS2_PLACEMENT_3D('',#400,#322,#323);
#269=AXIS2_PLACEMENT_3D('',#404,#325,#326);
#270=AXIS2_PLACEMENT_3D('',#406,#328,#329);
#271=AXIS2_PLACEMENT_3D('',#410,#332,#333);
#272=AXIS2_PLACEMENT_3D('',#412,#334,#335);
#273=AXIS2_PLACEMENT_3D('',#414,#337,#338);
#274=AXIS2_PLACEMENT_3D('',#416,#339,#340);
#275=AXIS2_PLACEMENT_3D('',#418,#342,#343);
#276=AXIS2_PLACEMENT_3D('',#419,#344,#345);
#277=AXIS2_PLACEMENT_3D('',#421,#346,#347);
#278=AXIS2_PLACEMENT_3D('',#424,#349,#350);
#279=AXIS2_PLACEMENT_3D('',#425,#351,#352);
#280=AXIS2_PLACEMENT_3D('',#426,#353,#354);
#281=AXIS2_PLACEMENT_3D('',#427,#355,#356);
#282=AXIS2_PLACEMENT_3D('',#428,#357,#358);
#283=AXIS2_PLACEMENT_3D('',#430,#359,#360);
#284=AXIS2_PLACEMENT_3D('',#432,#362,#363);
#285=DIRECTION('axis',(0.,0.,1.));
#286=DIRECTION('refdir',(1.,0.,0.));
#287=DIRECTION('center_axis',(5.55111512312707E-16,-1.,-2.22044604925063E-16));
#288=DIRECTION('ref_axis',(0.650077394773212,0.,-0.759868002224645));
#289=DIRECTION('center_axis',(-5.55111512312714E-16,1.,2.2204460492506E-16));
#290=DIRECTION('ref_axis',(0.650077394773212,0.,-0.759868002224645));
#291=DIRECTION('',(-5.55111512312707E-16,1.,2.22044604925063E-16));
#292=DIRECTION('center_axis',(-5.55111512312713E-16,1.,2.22044604925061E-16));
#293=DIRECTION('ref_axis',(0.650077394773212,0.,-0.759868002224645));
#294=DIRECTION('',(5.55111512312707E-16,-1.,-2.22044604925063E-16));
#295=DIRECTION('center_axis',(5.55111512312714E-16,-1.,-2.2204460492506E-16));
#296=DIRECTION('ref_axis',(-4.99600361081315E-16,2.2204460492506E-16,-1.));
#297=DIRECTION('',(-5.71924156285234E-30,-2.2204460492506E-16,1.));
#298=DIRECTION('center_axis',(-5.55111512312714E-16,1.,2.2204460492506E-16));
#299=DIRECTION('ref_axis',(0.785034438586958,0.,0.619452121017));
#300=DIRECTION('center_axis',(-5.55111512312714E-16,1.,2.2204460492506E-16));
#301=DIRECTION('ref_axis',(1.,5.55111512312707E-16,5.82681350447341E-30));
#302=DIRECTION('center_axis',(-5.55111512312714E-16,1.,2.2204460492506E-16));
#303=DIRECTION('ref_axis',(1.,5.55111512312707E-16,5.82681350447341E-30));
#304=DIRECTION('center_axis',(-5.55111512312714E-16,1.,2.2204460492506E-16));
#305=DIRECTION('ref_axis',(0.785034438586958,0.,-0.619452121017));
#306=DIRECTION('',(-5.71924156285234E-30,-2.2204460492506E-16,1.));
#307=DIRECTION('center_axis',(-5.55111512312714E-16,1.,2.2204460492506E-16));
#308=DIRECTION('ref_axis',(0.650077394773212,0.,0.759868002224645));
#309=DIRECTION('center_axis',(5.55111512312714E-16,-1.,-2.2204460492506E-16));
#310=DIRECTION('ref_axis',(1.,5.55111512312707E-16,5.81599863098599E-30));
#311=DIRECTION('center_axis',(5.55111512312714E-16,-1.,-2.2204460492506E-16));
#312=DIRECTION('ref_axis',(1.,5.55111512312707E-16,5.81599863098599E-30));
#313=DIRECTION('center_axis',(1.,5.55111512312707E-16,5.81784917600496E-30));
#314=DIRECTION('ref_axis',(-5.71924156285234E-30,-2.2204460492506E-16,1.));
#315=DIRECTION('',(5.69458965956413E-30,2.22044604925061E-16,-1.));
#316=DIRECTION('',(-5.55111512312707E-16,1.,2.22044604925063E-16));
#317=DIRECTION('center_axis',(5.55111512312707E-16,-1.,-2.22044604925063E-16));
#318=DIRECTION('ref_axis',(0.785034438586958,0.,0.619452121017));
#319=DIRECTION('center_axis',(-5.55111512312713E-16,1.,2.22044604925061E-16));
#320=DIRECTION('ref_axis',(0.785034438586958,0.,0.619452121017));
#321=DIRECTION('',(5.55111512312707E-16,-1.,-2.22044604925063E-16));
#322=DIRECTION('center_axis',(5.55111512312707E-16,-1.,-2.22044604925063E-16));
#323=DIRECTION('ref_axis',(0.785034438586958,0.,-0.619452121017));
#324=DIRECTION('',(-5.55111512312707E-16,1.,2.22044604925063E-16));
#325=DIRECTION('center_axis',(-5.55111512312713E-16,1.,2.22044604925061E-16));
#326=DIRECTION('ref_axis',(0.785034438586958,0.,-0.619452121017));
#327=DIRECTION('',(5.55111512312707E-16,-1.,-2.22044604925063E-16));
#328=DIRECTION('center_axis',(1.,5.55111512312707E-16,5.81784917600496E-30));
#329=DIRECTION('ref_axis',(-5.71924156285234E-30,-2.2204460492506E-16,1.));
#330=DIRECTION('',(5.69458965956413E-30,2.22044604925061E-16,-1.));
#331=DIRECTION('',(-5.55111512312707E-16,1.,2.22044604925063E-16));
#332=DIRECTION('center_axis',(5.55111512312707E-16,-1.,-2.22044604925063E-16));
#333=DIRECTION('ref_axis',(0.650077394773212,0.,0.759868002224645));
#334=DIRECTION('center_axis',(-5.55111512312713E-16,1.,2.22044604925061E-16));
#335=DIRECTION('ref_axis',(0.650077394773212,0.,0.759868002224645));
#336=DIRECTION('',(5.55111512312707E-16,-1.,-2.22044604925063E-16));
#337=DIRECTION('center_axis',(-5.55111512312707E-16,1.,2.22044604925063E-16));
#338=DIRECTION('ref_axis',(1.,5.55111512312707E-16,5.81599863098599E-30));
#339=DIRECTION('center_axis',(-3.91423005119408E-14,1.,4.30282572803663E-16));
#340=DIRECTION('ref_axis',(1.,5.5511151231271E-16,5.94818041805386E-30));
#341=DIRECTION('',(5.55111512312707E-16,-1.,-2.22044604925063E-16));
#342=DIRECTION('center_axis',(5.55111512312713E-16,-1.,-2.22044604925061E-16));
#343=DIRECTION('ref_axis',(1.,5.55111512312707E-16,5.81599863098599E-30));
#344=DIRECTION('center_axis',(-5.5511151231271E-16,1.,2.22044604925062E-16));
#345=DIRECTION('ref_axis',(1.,5.5511151231271E-16,5.97366939747134E-30));
#346=DIRECTION('center_axis',(3.91423005119408E-14,-1.,-4.30282572803663E-16));
#347=DIRECTION('ref_axis',(1.,5.5511151231271E-16,5.97366939747134E-30));
#348=DIRECTION('',(5.5511151231271E-16,-1.,-2.22044604925062E-16));
#349=DIRECTION('center_axis',(-3.91423005119408E-14,1.,4.30282572803663E-16));
#350=DIRECTION('ref_axis',(1.,5.5511151231271E-16,5.97366939747134E-30));
#351=DIRECTION('center_axis',(3.91423005119408E-14,-1.,-4.30282572803663E-16));
#352=DIRECTION('ref_axis',(-4.99600361081314E-16,4.30282572803643E-16,-1.));
#353=DIRECTION('center_axis',(-5.55111512312713E-16,1.,2.22044604925061E-16));
#354=DIRECTION('ref_axis',(4.99600361081315E-16,-2.2204460492506E-16,1.));
#355=DIRECTION('center_axis',(-5.55111512312713E-16,1.,2.22044604925061E-16));
#356=DIRECTION('ref_axis',(1.,5.55111512312707E-16,5.82681350447341E-30));
#357=DIRECTION('center_axis',(-5.55111512312707E-16,1.,2.22044604925063E-16));
#358=DIRECTION('ref_axis',(1.,5.55111512312707E-16,5.82681350447341E-30));
#359=DIRECTION('center_axis',(-3.91423005119408E-14,1.,4.30282572803663E-16));
#360=DIRECTION('ref_axis',(1.,5.55111512312707E-16,5.82681350447341E-30));
#361=DIRECTION('',(5.55111512312707E-16,-1.,-2.22044604925063E-16));
#362=DIRECTION('center_axis',(-3.91423005119408E-14,1.,4.30282572803663E-16));
#363=DIRECTION('ref_axis',(4.99600361081315E-16,-4.30282572803643E-16,1.));
#364=CARTESIAN_POINT('',(0.,0.,0.));
#365=CARTESIAN_POINT('Origin',(219.457737080576,465.780152326007,579.197703883681));
#366=CARTESIAN_POINT('',(219.957737080576,462.980152326007,579.197703883681));
#367=CARTESIAN_POINT('',(219.380337699771,462.980152326007,578.703730872423));
#368=CARTESIAN_POINT('Origin',(219.457737080576,462.980152326007,579.197703883681));
#369=CARTESIAN_POINT('',(219.380337699771,465.780152326007,578.703730872423));
#370=CARTESIAN_POINT('',(219.380337699771,465.780152326007,578.703730872423));
#371=CARTESIAN_POINT('',(219.957737080576,465.780152326007,579.197703883681));
#372=CARTESIAN_POINT('Origin',(219.457737080576,465.780152326007,579.197703883681));
#373=CARTESIAN_POINT('',(219.957737080576,465.780152326007,579.197703883681));
#374=CARTESIAN_POINT('Origin',(218.092737080576,462.980152326007,582.388769536406));
#375=CARTESIAN_POINT('',(219.957737080576,462.980152326007,580.297717169773));
#376=CARTESIAN_POINT('',(219.957737080576,462.980152326007,580.523769536406));
#377=CARTESIAN_POINT('',(219.574016150344,462.980152326007,580.784008417827));
#378=CARTESIAN_POINT('Origin',(219.457737080576,462.980152326007,580.297717169773));
#379=CARTESIAN_POINT('',(218.307737080576,462.980152326007,582.388769536406));
#380=CARTESIAN_POINT('Origin',(219.957737080576,462.980152326007,582.388769536406));
#381=CARTESIAN_POINT('',(219.574016150344,462.980152326007,583.993530654984));
#382=CARTESIAN_POINT('Origin',(219.957737080576,462.980152326007,582.388769536406));
#383=CARTESIAN_POINT('',(219.957737080576,462.980152326007,584.479821903039));
#384=CARTESIAN_POINT('Origin',(219.457737080576,462.980152326007,584.479821903039));
#385=CARTESIAN_POINT('',(219.957737080576,462.980152326007,585.579835189131));
#386=CARTESIAN_POINT('',(219.957737080576,462.980152326007,583.213769536406));
#387=CARTESIAN_POINT('',(219.380337699771,462.980152326007,586.073808200388));
#388=CARTESIAN_POINT('Origin',(219.457737080576,462.980152326007,585.579835189131));
#389=CARTESIAN_POINT('',(216.227737080576,462.980152326007,582.388769536406));
#390=CARTESIAN_POINT('Origin',(219.957737080576,462.980152326007,582.388769536406));
#391=CARTESIAN_POINT('Origin',(219.957737080576,462.980152326007,582.388769536406));
#392=CARTESIAN_POINT('Origin',(219.957737080576,465.780152326007,578.658769536406));
#393=CARTESIAN_POINT('',(219.957737080576,465.780152326007,580.297717169773));
#394=CARTESIAN_POINT('',(219.957737080576,465.780152326007,580.523769536406));
#395=CARTESIAN_POINT('',(219.957737080576,465.780152326007,580.297717169773));
#396=CARTESIAN_POINT('Origin',(219.457737080576,465.780152326007,580.297717169773));
#397=CARTESIAN_POINT('',(219.574016150344,465.780152326007,580.784008417827));
#398=CARTESIAN_POINT('Origin',(219.457737080576,465.780152326007,580.297717169773));
#399=CARTESIAN_POINT('',(219.574016150344,465.780152326007,580.784008417827));
#400=CARTESIAN_POINT('Origin',(219.457737080576,465.780152326007,584.479821903039));
#401=CARTESIAN_POINT('',(219.574016150344,465.780152326007,583.993530654984));
#402=CARTESIAN_POINT('',(219.574016150344,465.780152326007,583.993530654984));
#403=CARTESIAN_POINT('',(219.957737080576,465.780152326007,584.479821903039));
#404=CARTESIAN_POINT('Origin',(219.457737080576,465.780152326007,584.479821903039));
#405=CARTESIAN_POINT('',(219.957737080576,465.780152326007,584.479821903039));
#406=CARTESIAN_POINT('Origin',(219.957737080576,465.780152326007,584.038769536406));
#407=CARTESIAN_POINT('',(219.957737080576,465.780152326007,585.579835189131));
#408=CARTESIAN_POINT('',(219.957737080576,465.780152326007,583.213769536406));
#409=CARTESIAN_POINT('',(219.957737080576,465.780152326007,585.579835189131));
#410=CARTESIAN_POINT('Origin',(219.457737080576,465.780152326007,585.579835189131));
#411=CARTESIAN_POINT('',(219.380337699771,465.780152326007,586.073808200388));
#412=CARTESIAN_POINT('Origin',(219.457737080576,465.780152326007,585.579835189131));
#413=CARTESIAN_POINT('',(219.380337699771,465.780152326007,586.073808200388));
#414=CARTESIAN_POINT('Origin',(219.957737080576,465.780152326007,582.388769536406));
#415=CARTESIAN_POINT('',(216.227737080576,486.580152326005,582.388769536406));
#416=CARTESIAN_POINT('Origin',(219.957737080576,486.580152326005,582.388769536406));
#417=CARTESIAN_POINT('',(216.227737080576,465.780152326007,582.388769536406));
#418=CARTESIAN_POINT('Origin',(219.957737080576,465.780152326007,582.388769536406));
#419=CARTESIAN_POINT('Origin',(219.957737080576,483.580152326005,582.388769536406));
#420=CARTESIAN_POINT('',(217.027737080576,486.580152326005,582.388769536406));
#421=CARTESIAN_POINT('Origin',(219.957737080576,486.580152326005,582.388769536406));
#422=CARTESIAN_POINT('',(217.027737080576,483.580152326005,582.388769536406));
#423=CARTESIAN_POINT('',(217.027737080576,483.580152326005,582.388769536406));
#424=CARTESIAN_POINT('Origin',(219.957737080576,483.580152326005,582.388769536406));
#425=CARTESIAN_POINT('Origin',(219.957737080576,486.580152326005,582.388769536406));
#426=CARTESIAN_POINT('Origin',(219.957737080576,465.780152326007,582.388769536406));
#427=CARTESIAN_POINT('Origin',(219.957737080576,465.780152326007,582.388769536406));
#428=CARTESIAN_POINT('Origin',(219.957737080576,465.780152326007,582.388769536406));
#429=CARTESIAN_POINT('',(218.307737080576,483.580152326005,582.388769536406));
#430=CARTESIAN_POINT('Origin',(219.957737080576,483.580152326005,582.388769536406));
#431=CARTESIAN_POINT('',(218.307737080576,465.780152326007,582.388769536406));
#432=CARTESIAN_POINT('Origin',(219.957737080576,483.580152326005,582.388769536406));
#433=UNCERTAINTY_MEASURE_WITH_UNIT(LENGTH_MEASURE(0.01),#437,
'DISTANCE_ACCURACY_VALUE',
'Maximum model space distance between geometric entities at asserted c
onnectivities');
#434=UNCERTAINTY_MEASURE_WITH_UNIT(LENGTH_MEASURE(0.01),#437,
'DISTANCE_ACCURACY_VALUE',
'Maximum model space distance between geometric entities at asserted c
onnectivities');
#435=(
GEOMETRIC_REPRESENTATION_CONTEXT(3)
GLOBAL_UNCERTAINTY_ASSIGNED_CONTEXT((#433))
GLOBAL_UNIT_ASSIGNED_CONTEXT((#437,#439,#440))
REPRESENTATION_CONTEXT('','3D')
);
#436=(
GEOMETRIC_REPRESENTATION_CONTEXT(3)
GLOBAL_UNCERTAINTY_ASSIGNED_CONTEXT((#434))
GLOBAL_UNIT_ASSIGNED_CONTEXT((#437,#439,#440))
REPRESENTATION_CONTEXT('','3D')
);
#437=(
LENGTH_UNIT()
NAMED_UNIT(*)
SI_UNIT(.MILLI.,.METRE.)
);
#438=(
LENGTH_UNIT()
NAMED_UNIT(*)
SI_UNIT($,.METRE.)
);
#439=(
NAMED_UNIT(*)
PLANE_ANGLE_UNIT()
SI_UNIT($,.RADIAN.)
);
#440=(
NAMED_UNIT(*)
SI_UNIT($,.STERADIAN.)
SOLID_ANGLE_UNIT()
);
#441=SHAPE_DEFINITION_REPRESENTATION(#442,#443);
#442=PRODUCT_DEFINITION_SHAPE('',$,#445);
#443=SHAPE_REPRESENTATION('',(#253),#435);
#444=PRODUCT_DEFINITION_CONTEXT('part definition',#449,'design');
#445=PRODUCT_DEFINITION('CPAP valve 3-way - Valve - B -',
'CPAP valve 3-way - Valve - B - v2',#446,#444);
#446=PRODUCT_DEFINITION_FORMATION('',$,#451);
#447=PRODUCT_RELATED_PRODUCT_CATEGORY(
'CPAP valve 3-way - Valve - B - v2','CPAP valve 3-way - Valve - B - v2',
(#451));
#448=APPLICATION_PROTOCOL_DEFINITION('international standard',
'automotive_design',2009,#449);
#449=APPLICATION_CONTEXT(
'Core Data for Automotive Mechanical Design Process');
#450=PRODUCT_CONTEXT('part definition',#449,'mechanical');
#451=PRODUCT('CPAP valve 3-way - Valve - B -',
'CPAP valve 3-way - Valve - B - v2',$,(#450));
#452=PRESENTATION_STYLE_ASSIGNMENT((#453));
#453=SURFACE_STYLE_USAGE(.BOTH.,#454);
#454=SURFACE_SIDE_STYLE('',(#455));
#455=SURFACE_STYLE_FILL_AREA(#456);
#456=FILL_AREA_STYLE('Steel - Satin',(#457));
#457=FILL_AREA_STYLE_COLOUR('Steel - Satin',#458);
#458=COLOUR_RGB('Steel - Satin',0.627450980392157,0.627450980392157,0.627450980392157);
ENDSEC;
END-ISO-10303-21;
