ISO-10303-21;
HEADER;
/* Generated by software containing ST-Developer
 * from STEP Tools, Inc. (www.steptools.com) 
 */

FILE_DESCRIPTION(
/* description */ (''),
/* implementation_level */ '2;1');

FILE_NAME(
/* name */ 
'CPAP valve 3-way - Valve - A - v2 - straight-gradual-valve-side - v2.
step',
/* time_stamp */ '2026-07-29T00:15:44+02:00',
/* author */ (''),
/* organization */ (''),
/* preprocessor_version */ 'ST-DEVELOPER v20.1',
/* originating_system */ 'Autodesk Translation Framework v15.8.0.0',
/* authorisation */ '');

FILE_SCHEMA (('AUTOMOTIVE_DESIGN { 1 0 10303 214 3 1 1 }'));
ENDSEC;

DATA;
#10=MECHANICAL_DESIGN_GEOMETRIC_PRESENTATION_REPRESENTATION('',(#13),#962);
#11=SHAPE_REPRESENTATION_RELATIONSHIP('SRR','None',#969,#12);
#12=ADVANCED_BREP_SHAPE_REPRESENTATION('',(#14),#961);
#13=STYLED_ITEM('',(#978),#14);
#14=MANIFOLD_SOLID_BREP('Body1',#491);
#15=(
BOUNDED_SURFACE()
B_SPLINE_SURFACE(2,2,((#921,#922,#923,#924,#925),(#926,#927,#928,#929,#930),
(#931,#932,#933,#934,#935)),.UNSPECIFIED.,.F.,.F.,.F.)
B_SPLINE_SURFACE_WITH_KNOTS((3,3),(3,2,3),(-1.57079632679498,7.71390487840528E-16),
(-0.935308019802577,-0.137279703253302,0.660748613295973),.UNSPECIFIED.)
GEOMETRIC_REPRESENTATION_ITEM()
RATIONAL_B_SPLINE_SURFACE(((1.,0.921444451209027,1.,0.921444451209027,1.),
(0.707106781186452,0.651559619936532,0.707106781186452,0.651559619936532,
0.707106781186452),(1.,0.921444451209027,1.,0.921444451209027,1.)))
REPRESENTATION_ITEM('')
SURFACE()
);
#16=(
BOUNDED_SURFACE()
B_SPLINE_SURFACE(2,2,((#939,#940,#941),(#942,#943,#944),(#945,#946,#947)),
 .UNSPECIFIED.,.F.,.F.,.F.)
B_SPLINE_SURFACE_WITH_KNOTS((3,3),(3,3),(-1.57079632679498,7.90375728231305E-16),
(-2.48054245752352,-0.935308019801936),.UNSPECIFIED.)
GEOMETRIC_REPRESENTATION_ITEM()
RATIONAL_B_SPLINE_SURFACE(((1.,0.716086274631486,1.),(0.707106781186452,
0.506349460706468,0.707106781186452),(1.,0.716086274631486,1.)))
REPRESENTATION_ITEM('')
SURFACE()
);
#17=TOROIDAL_SURFACE('',#527,15.9368048764725,0.3);
#18=TOROIDAL_SURFACE('',#539,15.55,0.3);
#19=CYLINDRICAL_SURFACE('',#516,15.25);
#20=CYLINDRICAL_SURFACE('',#530,16.2368048764725);
#21=CYLINDRICAL_SURFACE('',#537,17.25);
#22=CYLINDRICAL_SURFACE('',#541,0.5);
#23=CYLINDRICAL_SURFACE('',#543,1.64999999999999);
#24=CYLINDRICAL_SURFACE('',#545,0.5);
#25=CYLINDRICAL_SURFACE('',#552,0.5);
#26=CYLINDRICAL_SURFACE('',#553,0.5);
#27=CYLINDRICAL_SURFACE('',#554,3.88);
#28=CYLINDRICAL_SURFACE('',#555,1.);
#29=CYLINDRICAL_SURFACE('',#560,0.3);
#30=CYLINDRICAL_SURFACE('',#561,0.4);
#31=CYLINDRICAL_SURFACE('',#563,0.4);
#32=FACE_BOUND('',#108,.T.);
#33=FACE_BOUND('',#122,.T.);
#34=CIRCLE('',#506,15.25);
#35=CIRCLE('',#507,1.);
#36=CIRCLE('',#508,17.25);
#37=CIRCLE('',#509,17.25);
#38=CIRCLE('',#510,3.88);
#39=CIRCLE('',#511,0.5);
#40=CIRCLE('',#512,0.5);
#41=CIRCLE('',#513,1.64999999999999);
#42=CIRCLE('',#514,0.5);
#43=CIRCLE('',#515,0.5);
#44=CIRCLE('',#517,15.25);
#45=CIRCLE('',#518,15.25);
#46=CIRCLE('',#520,0.3);
#47=CIRCLE('',#521,0.3);
#48=CIRCLE('',#523,15.9368048764725);
#49=CIRCLE('',#524,0.1);
#50=CIRCLE('',#525,0.1);
#51=CIRCLE('',#526,15.55);
#52=CIRCLE('',#528,16.2368048764725);
#53=CIRCLE('',#529,0.300000000000011);
#54=CIRCLE('',#531,16.2368048764725);
#55=CIRCLE('',#533,17.25);
#56=CIRCLE('',#534,1.);
#57=CIRCLE('',#535,0.4);
#58=CIRCLE('',#536,0.4);
#59=CIRCLE('',#538,17.25);
#60=CIRCLE('',#540,0.300000000000011);
#61=CIRCLE('',#542,0.5);
#62=CIRCLE('',#544,1.64999999999999);
#63=CIRCLE('',#546,0.5);
#64=CIRCLE('',#548,0.5);
#65=CIRCLE('',#549,3.88);
#66=CIRCLE('',#550,0.5);
#67=CIRCLE('',#556,0.300000000000038);
#68=CIRCLE('',#557,0.4);
#69=CIRCLE('',#558,0.300000000000011);
#70=CIRCLE('',#559,0.4);
#71=PLANE('',#505);
#72=PLANE('',#519);
#73=PLANE('',#522);
#74=PLANE('',#532);
#75=PLANE('',#547);
#76=PLANE('',#551);
#77=PLANE('',#562);
#78=PLANE('',#564);
#79=FACE_OUTER_BOUND('',#106,.T.);
#80=FACE_OUTER_BOUND('',#107,.T.);
#81=FACE_OUTER_BOUND('',#109,.T.);
#82=FACE_OUTER_BOUND('',#110,.T.);
#83=FACE_OUTER_BOUND('',#111,.T.);
#84=FACE_OUTER_BOUND('',#112,.T.);
#85=FACE_OUTER_BOUND('',#113,.T.);
#86=FACE_OUTER_BOUND('',#114,.T.);
#87=FACE_OUTER_BOUND('',#115,.T.);
#88=FACE_OUTER_BOUND('',#116,.T.);
#89=FACE_OUTER_BOUND('',#117,.T.);
#90=FACE_OUTER_BOUND('',#118,.T.);
#91=FACE_OUTER_BOUND('',#119,.T.);
#92=FACE_OUTER_BOUND('',#120,.T.);
#93=FACE_OUTER_BOUND('',#121,.T.);
#94=FACE_OUTER_BOUND('',#123,.T.);
#95=FACE_OUTER_BOUND('',#124,.T.);
#96=FACE_OUTER_BOUND('',#125,.T.);
#97=FACE_OUTER_BOUND('',#126,.T.);
#98=FACE_OUTER_BOUND('',#127,.T.);
#99=FACE_OUTER_BOUND('',#128,.T.);
#100=FACE_OUTER_BOUND('',#129,.T.);
#101=FACE_OUTER_BOUND('',#130,.T.);
#102=FACE_OUTER_BOUND('',#131,.T.);
#103=FACE_OUTER_BOUND('',#132,.T.);
#104=FACE_OUTER_BOUND('',#133,.T.);
#105=FACE_OUTER_BOUND('',#134,.T.);
#106=EDGE_LOOP('',(#318,#319,#320,#321));
#107=EDGE_LOOP('',(#322,#323,#324,#325,#326));
#108=EDGE_LOOP('',(#327,#328,#329,#330,#331,#332,#333,#334));
#109=EDGE_LOOP('',(#335,#336,#337,#338,#339,#340,#341,#342,#343));
#110=EDGE_LOOP('',(#344,#345,#346,#347,#348,#349));
#111=EDGE_LOOP('',(#350,#351,#352,#353,#354,#355,#356));
#112=EDGE_LOOP('',(#357,#358,#359,#360,#361,#362));
#113=EDGE_LOOP('',(#363,#364,#365,#366));
#114=EDGE_LOOP('',(#367,#368,#369,#370));
#115=EDGE_LOOP('',(#371,#372,#373,#374,#375,#376,#377,#378));
#116=EDGE_LOOP('',(#379,#380,#381,#382,#383,#384,#385,#386,#387,#388));
#117=EDGE_LOOP('',(#389,#390,#391,#392));
#118=EDGE_LOOP('',(#393,#394,#395,#396));
#119=EDGE_LOOP('',(#397,#398,#399,#400));
#120=EDGE_LOOP('',(#401,#402,#403,#404));
#121=EDGE_LOOP('',(#405));
#122=EDGE_LOOP('',(#406,#407,#408,#409,#410,#411,#412,#413));
#123=EDGE_LOOP('',(#414,#415,#416,#417));
#124=EDGE_LOOP('',(#418,#419,#420,#421));
#125=EDGE_LOOP('',(#422,#423,#424,#425));
#126=EDGE_LOOP('',(#426,#427,#428,#429));
#127=EDGE_LOOP('',(#430,#431,#432,#433));
#128=EDGE_LOOP('',(#434,#435,#436,#437));
#129=EDGE_LOOP('',(#438,#439,#440,#441));
#130=EDGE_LOOP('',(#442,#443,#444,#445));
#131=EDGE_LOOP('',(#446,#447,#448,#449));
#132=EDGE_LOOP('',(#450,#451,#452,#453));
#133=EDGE_LOOP('',(#454,#455,#456,#457));
#134=EDGE_LOOP('',(#458,#459,#460,#461));
#135=LINE('',#761,#164);
#136=LINE('',#770,#165);
#137=LINE('',#785,#166);
#138=LINE('',#793,#167);
#139=LINE('',#809,#168);
#140=LINE('',#813,#169);
#141=LINE('',#816,#170);
#142=LINE('',#819,#171);
#143=LINE('',#821,#172);
#144=LINE('',#825,#173);
#145=LINE('',#853,#174);
#146=LINE('',#860,#175);
#147=LINE('',#871,#176);
#148=LINE('',#879,#177);
#149=LINE('',#883,#178);
#150=LINE('',#885,#179);
#151=LINE('',#890,#180);
#152=LINE('',#893,#181);
#153=LINE('',#896,#182);
#154=LINE('',#901,#183);
#155=LINE('',#904,#184);
#156=LINE('',#911,#185);
#157=LINE('',#913,#186);
#158=LINE('',#915,#187);
#159=LINE('',#917,#188);
#160=LINE('',#918,#189);
#161=LINE('',#952,#190);
#162=LINE('',#954,#191);
#163=LINE('',#956,#192);
#164=VECTOR('',#567,10.);
#165=VECTOR('',#568,10.);
#166=VECTOR('',#583,10.);
#167=VECTOR('',#590,10.);
#168=VECTOR('',#595,10.);
#169=VECTOR('',#598,10.);
#170=VECTOR('',#601,10.);
#171=VECTOR('',#604,10.);
#172=VECTOR('',#605,10.);
#173=VECTOR('',#608,10.);
#174=VECTOR('',#611,10.);
#175=VECTOR('',#618,10.);
#176=VECTOR('',#633,10.);
#177=VECTOR('',#642,10.);
#178=VECTOR('',#647,17.25);
#179=VECTOR('',#650,10.);
#180=VECTOR('',#657,10.);
#181=VECTOR('',#660,10.);
#182=VECTOR('',#663,10.);
#183=VECTOR('',#670,10.);
#184=VECTOR('',#673,10.);
#185=VECTOR('',#680,10.);
#186=VECTOR('',#683,10.);
#187=VECTOR('',#686,10.);
#188=VECTOR('',#689,10.);
#189=VECTOR('',#690,10.);
#190=VECTOR('',#705,10.);
#191=VECTOR('',#708,10.);
#192=VECTOR('',#711,10.);
#193=B_SPLINE_CURVE_WITH_KNOTS('',3,(#747,#748,#749,#750,#751,#752,#753,
#754,#755,#756,#757,#758,#759),.UNSPECIFIED.,.F.,.F.,(4,3,3,3,4),(0.,0.805165348484865,
1.61033069696973,2.01291337121216,2.81807871969703),.UNSPECIFIED.);
#194=B_SPLINE_CURVE_WITH_KNOTS('',3,(#763,#764,#765,#766,#767,#768,#769),
 .UNSPECIFIED.,.F.,.F.,(4,1,1,1,4),(0.,0.432746620649257,0.649119930973886,
1.08186655162314,1.5146131722724),.UNSPECIFIED.);
#195=B_SPLINE_CURVE_WITH_KNOTS('',3,(#797,#798,#799,#800,#801,#802),
 .UNSPECIFIED.,.F.,.F.,(4,2,4),(0.,0.528377550158286,0.645731692246246),
 .UNSPECIFIED.);
#196=B_SPLINE_CURVE_WITH_KNOTS('',3,(#804,#805,#806,#807),.UNSPECIFIED.,
 .F.,.F.,(4,4),(0.206096469945067,0.617389113887311),.UNSPECIFIED.);
#197=B_SPLINE_CURVE_WITH_KNOTS('',3,(#844,#845,#846,#847),.UNSPECIFIED.,
 .F.,.F.,(4,4),(0.221167571017762,0.568747049230554),.UNSPECIFIED.);
#198=B_SPLINE_CURVE_WITH_KNOTS('',3,(#849,#850,#851,#852),.UNSPECIFIED.,
 .F.,.F.,(4,4),(0.,0.221167571017759),.UNSPECIFIED.);
#199=VERTEX_POINT('',#745);
#200=VERTEX_POINT('',#746);
#201=VERTEX_POINT('',#760);
#202=VERTEX_POINT('',#762);
#203=VERTEX_POINT('',#772);
#204=VERTEX_POINT('',#774);
#205=VERTEX_POINT('',#776);
#206=VERTEX_POINT('',#779);
#207=VERTEX_POINT('',#780);
#208=VERTEX_POINT('',#782);
#209=VERTEX_POINT('',#784);
#210=VERTEX_POINT('',#786);
#211=VERTEX_POINT('',#788);
#212=VERTEX_POINT('',#790);
#213=VERTEX_POINT('',#792);
#214=VERTEX_POINT('',#796);
#215=VERTEX_POINT('',#803);
#216=VERTEX_POINT('',#808);
#217=VERTEX_POINT('',#810);
#218=VERTEX_POINT('',#812);
#219=VERTEX_POINT('',#814);
#220=VERTEX_POINT('',#818);
#221=VERTEX_POINT('',#820);
#222=VERTEX_POINT('',#822);
#223=VERTEX_POINT('',#824);
#224=VERTEX_POINT('',#843);
#225=VERTEX_POINT('',#848);
#226=VERTEX_POINT('',#855);
#227=VERTEX_POINT('',#857);
#228=VERTEX_POINT('',#859);
#229=VERTEX_POINT('',#861);
#230=VERTEX_POINT('',#865);
#231=VERTEX_POINT('',#869);
#232=VERTEX_POINT('',#873);
#233=VERTEX_POINT('',#876);
#234=VERTEX_POINT('',#878);
#235=VERTEX_POINT('',#882);
#236=VERTEX_POINT('',#889);
#237=VERTEX_POINT('',#891);
#238=VERTEX_POINT('',#895);
#239=VERTEX_POINT('',#899);
#240=VERTEX_POINT('',#903);
#241=VERTEX_POINT('',#905);
#242=VERTEX_POINT('',#907);
#243=VERTEX_POINT('',#909);
#244=VERTEX_POINT('',#936);
#245=VERTEX_POINT('',#948);
#246=EDGE_CURVE('',#199,#200,#193,.T.);
#247=EDGE_CURVE('',#201,#199,#135,.T.);
#248=EDGE_CURVE('',#202,#201,#194,.T.);
#249=EDGE_CURVE('',#200,#202,#136,.T.);
#250=EDGE_CURVE('',#203,#199,#34,.T.);
#251=EDGE_CURVE('',#204,#203,#35,.T.);
#252=EDGE_CURVE('',#205,#204,#36,.T.);
#253=EDGE_CURVE('',#201,#205,#37,.T.);
#254=EDGE_CURVE('',#206,#207,#38,.F.);
#255=EDGE_CURVE('',#208,#207,#39,.T.);
#256=EDGE_CURVE('',#208,#209,#137,.F.);
#257=EDGE_CURVE('',#210,#209,#40,.T.);
#258=EDGE_CURVE('',#210,#211,#41,.T.);
#259=EDGE_CURVE('',#212,#211,#42,.T.);
#260=EDGE_CURVE('',#212,#213,#138,.F.);
#261=EDGE_CURVE('',#206,#213,#43,.T.);
#262=EDGE_CURVE('',#200,#214,#195,.T.);
#263=EDGE_CURVE('',#214,#215,#196,.T.);
#264=EDGE_CURVE('',#215,#216,#139,.T.);
#265=EDGE_CURVE('',#217,#216,#44,.T.);
#266=EDGE_CURVE('',#218,#217,#140,.T.);
#267=EDGE_CURVE('',#218,#219,#45,.T.);
#268=EDGE_CURVE('',#203,#219,#141,.T.);
#269=EDGE_CURVE('',#215,#220,#142,.T.);
#270=EDGE_CURVE('',#221,#220,#143,.T.);
#271=EDGE_CURVE('',#222,#221,#46,.T.);
#272=EDGE_CURVE('',#223,#222,#144,.T.);
#273=EDGE_CURVE('',#216,#223,#47,.T.);
#274=EDGE_CURVE('',#224,#202,#197,.T.);
#275=EDGE_CURVE('',#225,#224,#198,.T.);
#276=EDGE_CURVE('',#220,#225,#145,.T.);
#277=EDGE_CURVE('',#226,#222,#48,.T.);
#278=EDGE_CURVE('',#227,#226,#49,.T.);
#279=EDGE_CURVE('',#228,#227,#146,.T.);
#280=EDGE_CURVE('',#229,#228,#50,.T.);
#281=EDGE_CURVE('',#223,#229,#51,.T.);
#282=EDGE_CURVE('',#221,#230,#52,.T.);
#283=EDGE_CURVE('',#226,#230,#53,.T.);
#284=EDGE_CURVE('',#220,#231,#54,.T.);
#285=EDGE_CURVE('',#230,#231,#147,.T.);
#286=EDGE_CURVE('',#232,#225,#55,.T.);
#287=EDGE_CURVE('',#219,#232,#56,.T.);
#288=EDGE_CURVE('',#233,#218,#57,.F.);
#289=EDGE_CURVE('',#234,#233,#148,.T.);
#290=EDGE_CURVE('',#231,#234,#58,.F.);
#291=EDGE_CURVE('',#205,#235,#149,.T.);
#292=EDGE_CURVE('',#235,#235,#59,.T.);
#293=EDGE_CURVE('',#232,#204,#150,.T.);
#294=EDGE_CURVE('',#229,#217,#60,.T.);
#295=EDGE_CURVE('',#211,#236,#151,.T.);
#296=EDGE_CURVE('',#236,#237,#61,.T.);
#297=EDGE_CURVE('',#237,#212,#152,.T.);
#298=EDGE_CURVE('',#238,#210,#153,.T.);
#299=EDGE_CURVE('',#238,#236,#62,.T.);
#300=EDGE_CURVE('',#239,#238,#63,.T.);
#301=EDGE_CURVE('',#209,#239,#154,.T.);
#302=EDGE_CURVE('',#239,#240,#155,.T.);
#303=EDGE_CURVE('',#241,#240,#64,.T.);
#304=EDGE_CURVE('',#241,#242,#65,.T.);
#305=EDGE_CURVE('',#243,#242,#66,.T.);
#306=EDGE_CURVE('',#243,#237,#156,.T.);
#307=EDGE_CURVE('',#240,#208,#157,.T.);
#308=EDGE_CURVE('',#207,#241,#158,.T.);
#309=EDGE_CURVE('',#242,#206,#159,.T.);
#310=EDGE_CURVE('',#213,#243,#160,.T.);
#311=EDGE_CURVE('',#244,#227,#67,.T.);
#312=EDGE_CURVE('',#230,#244,#68,.T.);
#313=EDGE_CURVE('',#228,#245,#69,.T.);
#314=EDGE_CURVE('',#245,#217,#70,.T.);
#315=EDGE_CURVE('',#244,#245,#161,.T.);
#316=EDGE_CURVE('',#245,#233,#162,.T.);
#317=EDGE_CURVE('',#234,#244,#163,.T.);
#318=ORIENTED_EDGE('',*,*,#246,.F.);
#319=ORIENTED_EDGE('',*,*,#247,.F.);
#320=ORIENTED_EDGE('',*,*,#248,.F.);
#321=ORIENTED_EDGE('',*,*,#249,.F.);
#322=ORIENTED_EDGE('',*,*,#247,.T.);
#323=ORIENTED_EDGE('',*,*,#250,.F.);
#324=ORIENTED_EDGE('',*,*,#251,.F.);
#325=ORIENTED_EDGE('',*,*,#252,.F.);
#326=ORIENTED_EDGE('',*,*,#253,.F.);
#327=ORIENTED_EDGE('',*,*,#254,.T.);
#328=ORIENTED_EDGE('',*,*,#255,.F.);
#329=ORIENTED_EDGE('',*,*,#256,.T.);
#330=ORIENTED_EDGE('',*,*,#257,.F.);
#331=ORIENTED_EDGE('',*,*,#258,.T.);
#332=ORIENTED_EDGE('',*,*,#259,.F.);
#333=ORIENTED_EDGE('',*,*,#260,.T.);
#334=ORIENTED_EDGE('',*,*,#261,.F.);
#335=ORIENTED_EDGE('',*,*,#250,.T.);
#336=ORIENTED_EDGE('',*,*,#246,.T.);
#337=ORIENTED_EDGE('',*,*,#262,.T.);
#338=ORIENTED_EDGE('',*,*,#263,.T.);
#339=ORIENTED_EDGE('',*,*,#264,.T.);
#340=ORIENTED_EDGE('',*,*,#265,.F.);
#341=ORIENTED_EDGE('',*,*,#266,.F.);
#342=ORIENTED_EDGE('',*,*,#267,.T.);
#343=ORIENTED_EDGE('',*,*,#268,.F.);
#344=ORIENTED_EDGE('',*,*,#264,.F.);
#345=ORIENTED_EDGE('',*,*,#269,.T.);
#346=ORIENTED_EDGE('',*,*,#270,.F.);
#347=ORIENTED_EDGE('',*,*,#271,.F.);
#348=ORIENTED_EDGE('',*,*,#272,.F.);
#349=ORIENTED_EDGE('',*,*,#273,.F.);
#350=ORIENTED_EDGE('',*,*,#263,.F.);
#351=ORIENTED_EDGE('',*,*,#262,.F.);
#352=ORIENTED_EDGE('',*,*,#249,.T.);
#353=ORIENTED_EDGE('',*,*,#274,.F.);
#354=ORIENTED_EDGE('',*,*,#275,.F.);
#355=ORIENTED_EDGE('',*,*,#276,.F.);
#356=ORIENTED_EDGE('',*,*,#269,.F.);
#357=ORIENTED_EDGE('',*,*,#272,.T.);
#358=ORIENTED_EDGE('',*,*,#277,.F.);
#359=ORIENTED_EDGE('',*,*,#278,.F.);
#360=ORIENTED_EDGE('',*,*,#279,.F.);
#361=ORIENTED_EDGE('',*,*,#280,.F.);
#362=ORIENTED_EDGE('',*,*,#281,.F.);
#363=ORIENTED_EDGE('',*,*,#271,.T.);
#364=ORIENTED_EDGE('',*,*,#282,.T.);
#365=ORIENTED_EDGE('',*,*,#283,.F.);
#366=ORIENTED_EDGE('',*,*,#277,.T.);
#367=ORIENTED_EDGE('',*,*,#270,.T.);
#368=ORIENTED_EDGE('',*,*,#284,.T.);
#369=ORIENTED_EDGE('',*,*,#285,.F.);
#370=ORIENTED_EDGE('',*,*,#282,.F.);
#371=ORIENTED_EDGE('',*,*,#286,.F.);
#372=ORIENTED_EDGE('',*,*,#287,.F.);
#373=ORIENTED_EDGE('',*,*,#267,.F.);
#374=ORIENTED_EDGE('',*,*,#288,.F.);
#375=ORIENTED_EDGE('',*,*,#289,.F.);
#376=ORIENTED_EDGE('',*,*,#290,.F.);
#377=ORIENTED_EDGE('',*,*,#284,.F.);
#378=ORIENTED_EDGE('',*,*,#276,.T.);
#379=ORIENTED_EDGE('',*,*,#253,.T.);
#380=ORIENTED_EDGE('',*,*,#291,.T.);
#381=ORIENTED_EDGE('',*,*,#292,.T.);
#382=ORIENTED_EDGE('',*,*,#291,.F.);
#383=ORIENTED_EDGE('',*,*,#252,.T.);
#384=ORIENTED_EDGE('',*,*,#293,.F.);
#385=ORIENTED_EDGE('',*,*,#286,.T.);
#386=ORIENTED_EDGE('',*,*,#275,.T.);
#387=ORIENTED_EDGE('',*,*,#274,.T.);
#388=ORIENTED_EDGE('',*,*,#248,.T.);
#389=ORIENTED_EDGE('',*,*,#273,.T.);
#390=ORIENTED_EDGE('',*,*,#281,.T.);
#391=ORIENTED_EDGE('',*,*,#294,.T.);
#392=ORIENTED_EDGE('',*,*,#265,.T.);
#393=ORIENTED_EDGE('',*,*,#259,.T.);
#394=ORIENTED_EDGE('',*,*,#295,.T.);
#395=ORIENTED_EDGE('',*,*,#296,.T.);
#396=ORIENTED_EDGE('',*,*,#297,.T.);
#397=ORIENTED_EDGE('',*,*,#295,.F.);
#398=ORIENTED_EDGE('',*,*,#258,.F.);
#399=ORIENTED_EDGE('',*,*,#298,.F.);
#400=ORIENTED_EDGE('',*,*,#299,.T.);
#401=ORIENTED_EDGE('',*,*,#300,.T.);
#402=ORIENTED_EDGE('',*,*,#298,.T.);
#403=ORIENTED_EDGE('',*,*,#257,.T.);
#404=ORIENTED_EDGE('',*,*,#301,.T.);
#405=ORIENTED_EDGE('',*,*,#292,.F.);
#406=ORIENTED_EDGE('',*,*,#296,.F.);
#407=ORIENTED_EDGE('',*,*,#299,.F.);
#408=ORIENTED_EDGE('',*,*,#300,.F.);
#409=ORIENTED_EDGE('',*,*,#302,.T.);
#410=ORIENTED_EDGE('',*,*,#303,.F.);
#411=ORIENTED_EDGE('',*,*,#304,.T.);
#412=ORIENTED_EDGE('',*,*,#305,.F.);
#413=ORIENTED_EDGE('',*,*,#306,.T.);
#414=ORIENTED_EDGE('',*,*,#301,.F.);
#415=ORIENTED_EDGE('',*,*,#256,.F.);
#416=ORIENTED_EDGE('',*,*,#307,.F.);
#417=ORIENTED_EDGE('',*,*,#302,.F.);
#418=ORIENTED_EDGE('',*,*,#303,.T.);
#419=ORIENTED_EDGE('',*,*,#307,.T.);
#420=ORIENTED_EDGE('',*,*,#255,.T.);
#421=ORIENTED_EDGE('',*,*,#308,.T.);
#422=ORIENTED_EDGE('',*,*,#305,.T.);
#423=ORIENTED_EDGE('',*,*,#309,.T.);
#424=ORIENTED_EDGE('',*,*,#261,.T.);
#425=ORIENTED_EDGE('',*,*,#310,.T.);
#426=ORIENTED_EDGE('',*,*,#308,.F.);
#427=ORIENTED_EDGE('',*,*,#254,.F.);
#428=ORIENTED_EDGE('',*,*,#309,.F.);
#429=ORIENTED_EDGE('',*,*,#304,.F.);
#430=ORIENTED_EDGE('',*,*,#251,.T.);
#431=ORIENTED_EDGE('',*,*,#268,.T.);
#432=ORIENTED_EDGE('',*,*,#287,.T.);
#433=ORIENTED_EDGE('',*,*,#293,.T.);
#434=ORIENTED_EDGE('',*,*,#311,.T.);
#435=ORIENTED_EDGE('',*,*,#278,.T.);
#436=ORIENTED_EDGE('',*,*,#283,.T.);
#437=ORIENTED_EDGE('',*,*,#312,.T.);
#438=ORIENTED_EDGE('',*,*,#313,.T.);
#439=ORIENTED_EDGE('',*,*,#314,.T.);
#440=ORIENTED_EDGE('',*,*,#294,.F.);
#441=ORIENTED_EDGE('',*,*,#280,.T.);
#442=ORIENTED_EDGE('',*,*,#313,.F.);
#443=ORIENTED_EDGE('',*,*,#279,.T.);
#444=ORIENTED_EDGE('',*,*,#311,.F.);
#445=ORIENTED_EDGE('',*,*,#315,.T.);
#446=ORIENTED_EDGE('',*,*,#314,.F.);
#447=ORIENTED_EDGE('',*,*,#316,.T.);
#448=ORIENTED_EDGE('',*,*,#288,.T.);
#449=ORIENTED_EDGE('',*,*,#266,.T.);
#450=ORIENTED_EDGE('',*,*,#315,.F.);
#451=ORIENTED_EDGE('',*,*,#317,.F.);
#452=ORIENTED_EDGE('',*,*,#289,.T.);
#453=ORIENTED_EDGE('',*,*,#316,.F.);
#454=ORIENTED_EDGE('',*,*,#312,.F.);
#455=ORIENTED_EDGE('',*,*,#285,.T.);
#456=ORIENTED_EDGE('',*,*,#290,.T.);
#457=ORIENTED_EDGE('',*,*,#317,.T.);
#458=ORIENTED_EDGE('',*,*,#297,.F.);
#459=ORIENTED_EDGE('',*,*,#306,.F.);
#460=ORIENTED_EDGE('',*,*,#310,.F.);
#461=ORIENTED_EDGE('',*,*,#260,.F.);
#462=B_SPLINE_SURFACE_WITH_KNOTS('',3,3,((#717,#718,#719,#720),(#721,#722,
#723,#724),(#725,#726,#727,#728),(#729,#730,#731,#732),(#733,#734,#735,
#736),(#737,#738,#739,#740),(#741,#742,#743,#744)),.UNSPECIFIED.,.F.,.F.,
 .F.,(4,1,1,1,4),(4,4),(0.,0.432746620649257,0.649119930973886,1.08186655162314,
1.5146131722724),(-0.200000000000023,0.),.UNSPECIFIED.);
#463=B_SPLINE_SURFACE_WITH_KNOTS('',3,3,((#827,#828,#829,#830),(#831,#832,
#833,#834),(#835,#836,#837,#838),(#839,#840,#841,#842)),.UNSPECIFIED.,.F.,
 .F.,.F.,(4,4),(4,4),(0.,0.568747049230554),(-0.200000000000087,0.),
 .UNSPECIFIED.);
#464=ADVANCED_FACE('',(#79),#462,.T.);
#465=ADVANCED_FACE('',(#80,#32),#71,.F.);
#466=ADVANCED_FACE('',(#81),#19,.F.);
#467=ADVANCED_FACE('',(#82),#72,.T.);
#468=ADVANCED_FACE('',(#83),#463,.T.);
#469=ADVANCED_FACE('',(#84),#73,.T.);
#470=ADVANCED_FACE('',(#85),#17,.T.);
#471=ADVANCED_FACE('',(#86),#20,.T.);
#472=ADVANCED_FACE('',(#87),#74,.T.);
#473=ADVANCED_FACE('',(#88),#21,.T.);
#474=ADVANCED_FACE('',(#89),#18,.T.);
#475=ADVANCED_FACE('',(#90),#22,.T.);
#476=ADVANCED_FACE('',(#91),#23,.F.);
#477=ADVANCED_FACE('',(#92),#24,.T.);
#478=ADVANCED_FACE('',(#93,#33),#75,.T.);
#479=ADVANCED_FACE('',(#94),#76,.F.);
#480=ADVANCED_FACE('',(#95),#25,.F.);
#481=ADVANCED_FACE('',(#96),#26,.F.);
#482=ADVANCED_FACE('',(#97),#27,.F.);
#483=ADVANCED_FACE('',(#98),#28,.T.);
#484=ADVANCED_FACE('',(#99),#15,.F.);
#485=ADVANCED_FACE('',(#100),#16,.F.);
#486=ADVANCED_FACE('',(#101),#29,.T.);
#487=ADVANCED_FACE('',(#102),#30,.T.);
#488=ADVANCED_FACE('',(#103),#77,.F.);
#489=ADVANCED_FACE('',(#104),#31,.T.);
#490=ADVANCED_FACE('',(#105),#78,.F.);
#491=CLOSED_SHELL('',(#464,#465,#466,#467,#468,#469,#470,#471,#472,#473,
#474,#475,#476,#477,#478,#479,#480,#481,#482,#483,#484,#485,#486,#487,#488,
#489,#490));
#492=DERIVED_UNIT_ELEMENT(#494,1.);
#493=DERIVED_UNIT_ELEMENT(#964,-3.);
#494=(
MASS_UNIT()
NAMED_UNIT(*)
SI_UNIT(.KILO.,.GRAM.)
);
#495=DERIVED_UNIT((#492,#493));
#496=MEASURE_REPRESENTATION_ITEM('density measure',
POSITIVE_RATIO_MEASURE(7850.),#495);
#497=PROPERTY_DEFINITION_REPRESENTATION(#502,#499);
#498=PROPERTY_DEFINITION_REPRESENTATION(#503,#500);
#499=REPRESENTATION('material name',(#501),#961);
#500=REPRESENTATION('density',(#496),#961);
#501=DESCRIPTIVE_REPRESENTATION_ITEM('Steel','Steel');
#502=PROPERTY_DEFINITION('material property','material name',#971);
#503=PROPERTY_DEFINITION('material property','density of part',#971);
#504=AXIS2_PLACEMENT_3D('',#716,#565,#566);
#505=AXIS2_PLACEMENT_3D('',#771,#569,#570);
#506=AXIS2_PLACEMENT_3D('',#773,#571,#572);
#507=AXIS2_PLACEMENT_3D('',#775,#573,#574);
#508=AXIS2_PLACEMENT_3D('',#777,#575,#576);
#509=AXIS2_PLACEMENT_3D('',#778,#577,#578);
#510=AXIS2_PLACEMENT_3D('',#781,#579,#580);
#511=AXIS2_PLACEMENT_3D('',#783,#581,#582);
#512=AXIS2_PLACEMENT_3D('',#787,#584,#585);
#513=AXIS2_PLACEMENT_3D('',#789,#586,#587);
#514=AXIS2_PLACEMENT_3D('',#791,#588,#589);
#515=AXIS2_PLACEMENT_3D('',#794,#591,#592);
#516=AXIS2_PLACEMENT_3D('',#795,#593,#594);
#517=AXIS2_PLACEMENT_3D('',#811,#596,#597);
#518=AXIS2_PLACEMENT_3D('',#815,#599,#600);
#519=AXIS2_PLACEMENT_3D('',#817,#602,#603);
#520=AXIS2_PLACEMENT_3D('',#823,#606,#607);
#521=AXIS2_PLACEMENT_3D('',#826,#609,#610);
#522=AXIS2_PLACEMENT_3D('',#854,#612,#613);
#523=AXIS2_PLACEMENT_3D('',#856,#614,#615);
#524=AXIS2_PLACEMENT_3D('',#858,#616,#617);
#525=AXIS2_PLACEMENT_3D('',#862,#619,#620);
#526=AXIS2_PLACEMENT_3D('',#863,#621,#622);
#527=AXIS2_PLACEMENT_3D('',#864,#623,#624);
#528=AXIS2_PLACEMENT_3D('',#866,#625,#626);
#529=AXIS2_PLACEMENT_3D('',#867,#627,#628);
#530=AXIS2_PLACEMENT_3D('',#868,#629,#630);
#531=AXIS2_PLACEMENT_3D('',#870,#631,#632);
#532=AXIS2_PLACEMENT_3D('',#872,#634,#635);
#533=AXIS2_PLACEMENT_3D('',#874,#636,#637);
#534=AXIS2_PLACEMENT_3D('',#875,#638,#639);
#535=AXIS2_PLACEMENT_3D('',#877,#640,#641);
#536=AXIS2_PLACEMENT_3D('',#880,#643,#644);
#537=AXIS2_PLACEMENT_3D('',#881,#645,#646);
#538=AXIS2_PLACEMENT_3D('',#884,#648,#649);
#539=AXIS2_PLACEMENT_3D('',#886,#651,#652);
#540=AXIS2_PLACEMENT_3D('',#887,#653,#654);
#541=AXIS2_PLACEMENT_3D('',#888,#655,#656);
#542=AXIS2_PLACEMENT_3D('',#892,#658,#659);
#543=AXIS2_PLACEMENT_3D('',#894,#661,#662);
#544=AXIS2_PLACEMENT_3D('',#897,#664,#665);
#545=AXIS2_PLACEMENT_3D('',#898,#666,#667);
#546=AXIS2_PLACEMENT_3D('',#900,#668,#669);
#547=AXIS2_PLACEMENT_3D('',#902,#671,#672);
#548=AXIS2_PLACEMENT_3D('',#906,#674,#675);
#549=AXIS2_PLACEMENT_3D('',#908,#676,#677);
#550=AXIS2_PLACEMENT_3D('',#910,#678,#679);
#551=AXIS2_PLACEMENT_3D('',#912,#681,#682);
#552=AXIS2_PLACEMENT_3D('',#914,#684,#685);
#553=AXIS2_PLACEMENT_3D('',#916,#687,#688);
#554=AXIS2_PLACEMENT_3D('',#919,#691,#692);
#555=AXIS2_PLACEMENT_3D('',#920,#693,#694);
#556=AXIS2_PLACEMENT_3D('',#937,#695,#696);
#557=AXIS2_PLACEMENT_3D('',#938,#697,#698);
#558=AXIS2_PLACEMENT_3D('',#949,#699,#700);
#559=AXIS2_PLACEMENT_3D('',#950,#701,#702);
#560=AXIS2_PLACEMENT_3D('',#951,#703,#704);
#561=AXIS2_PLACEMENT_3D('',#953,#706,#707);
#562=AXIS2_PLACEMENT_3D('',#955,#709,#710);
#563=AXIS2_PLACEMENT_3D('',#957,#712,#713);
#564=AXIS2_PLACEMENT_3D('',#958,#714,#715);
#565=DIRECTION('axis',(0.,0.,1.));
#566=DIRECTION('refdir',(1.,0.,0.));
#567=DIRECTION('',(0.841470984807891,-2.00790870772814E-16,0.540302305868149));
#568=DIRECTION('',(0.492198158838005,1.28721510101467E-16,-0.870483183316299));
#569=DIRECTION('center_axis',(-5.55111512312714E-16,1.,2.2204460492506E-16));
#570=DIRECTION('ref_axis',(4.99600361081315E-16,-2.2204460492506E-16,1.));
#571=DIRECTION('center_axis',(-5.55111512312714E-16,1.,2.2204460492506E-16));
#572=DIRECTION('ref_axis',(1.,-9.60456868809018E-17,5.56082277450878E-30));
#573=DIRECTION('center_axis',(5.55111512312714E-16,-1.,-2.2204460492506E-16));
#574=DIRECTION('ref_axis',(-0.8966103213548,0.,-0.442820428209948));
#575=DIRECTION('center_axis',(-5.55111512312715E-16,1.,2.2204460492506E-16));
#576=DIRECTION('ref_axis',(1.,5.55111512312708E-16,5.83071103859008E-30));
#577=DIRECTION('center_axis',(-5.55111512312715E-16,1.,2.2204460492506E-16));
#578=DIRECTION('ref_axis',(1.,5.55111512312708E-16,5.83071103859008E-30));
#579=DIRECTION('center_axis',(5.55111512312714E-16,-1.,-2.2204460492506E-16));
#580=DIRECTION('ref_axis',(1.,5.55111512312709E-16,5.88208952451993E-30));
#581=DIRECTION('center_axis',(5.55111512312714E-16,-1.,-2.2204460492506E-16));
#582=DIRECTION('ref_axis',(0.669495968674112,0.,0.742815689070386));
#583=DIRECTION('',(-5.79319727271676E-30,-2.2204460492506E-16,1.));
#584=DIRECTION('center_axis',(-5.55111512312714E-16,1.,2.2204460492506E-16));
#585=DIRECTION('ref_axis',(-0.806946584785903,0.,-0.590624423218654));
#586=DIRECTION('center_axis',(-5.55111512312714E-16,1.,2.2204460492506E-16));
#587=DIRECTION('ref_axis',(1.,5.55111512312707E-16,5.82681350447341E-30));
#588=DIRECTION('center_axis',(-5.55111512312714E-16,1.,2.2204460492506E-16));
#589=DIRECTION('ref_axis',(-0.806946584785903,0.,0.590624423218654));
#590=DIRECTION('',(-5.79319727271676E-30,-2.2204460492506E-16,1.));
#591=DIRECTION('center_axis',(5.55111512312714E-16,-1.,-2.2204460492506E-16));
#592=DIRECTION('ref_axis',(0.669495968674112,0.,-0.742815689070386));
#593=DIRECTION('center_axis',(5.55111512312709E-16,-1.,-2.22044604925062E-16));
#594=DIRECTION('ref_axis',(1.,5.55111512312709E-16,5.88412642418952E-30));
#595=DIRECTION('',(5.55111512312709E-16,-1.,-2.22044604925062E-16));
#596=DIRECTION('center_axis',(-5.55111512312714E-16,1.,2.2204460492506E-16));
#597=DIRECTION('ref_axis',(1.,5.55111512312579E-16,1.3982257974394E-14));
#598=DIRECTION('',(5.55111512312709E-16,-1.,-2.22044604925062E-16));
#599=DIRECTION('center_axis',(2.43474522825479E-28,-1.,4.43734259186819E-31));
#600=DIRECTION('ref_axis',(1.,5.55111512312709E-16,5.88412642418952E-30));
#601=DIRECTION('',(5.55111512312709E-16,-1.,-2.22044604925062E-16));
#602=DIRECTION('center_axis',(-0.468362135260685,-4.09988502589073E-16,
-0.883536592481631));
#603=DIRECTION('ref_axis',(-0.883536592481631,-7.88860905221012E-31,0.468362135260685));
#604=DIRECTION('',(0.883536592481631,8.0118685686509E-31,-0.468362135260685));
#605=DIRECTION('',(-5.55111512312708E-16,1.,2.22044604925063E-16));
#606=DIRECTION('center_axis',(0.468362135260685,4.09988502589073E-16,0.883536592481631));
#607=DIRECTION('ref_axis',(0.883536592481631,5.94458619321916E-16,-0.468362135260685));
#608=DIRECTION('',(0.883536592481631,5.94458619321916E-16,-0.468362135260685));
#609=DIRECTION('center_axis',(0.468362135260685,4.09988502589073E-16,0.883536592481631));
#610=DIRECTION('ref_axis',(0.883536592481631,5.94458619321916E-16,-0.468362135260685));
#611=DIRECTION('',(0.883536592481632,1.91374063765083E-17,-0.468362135260684));
#612=DIRECTION('center_axis',(5.55111512312714E-16,-1.,-2.2204460492506E-16));
#613=DIRECTION('ref_axis',(-4.99600361081314E-16,2.2204460492506E-16,-1.));
#614=DIRECTION('center_axis',(-5.55111512312714E-16,1.,2.2204460492506E-16));
#615=DIRECTION('ref_axis',(1.,5.5511151231271E-16,1.75085991270025E-14));
#616=DIRECTION('center_axis',(-5.55111512312714E-16,1.,2.2204460492506E-16));
#617=DIRECTION('ref_axis',(-0.136848920303133,-2.95922004984575E-16,0.990591930621215));
#618=DIRECTION('',(0.593570565759536,1.50800364778654E-16,0.804781947774616));
#619=DIRECTION('center_axis',(-5.55111512312714E-16,1.,2.2204460492506E-16));
#620=DIRECTION('ref_axis',(-0.990612554997336,-5.1954703683143E-16,-0.136699546018452));
#621=DIRECTION('center_axis',(5.55111512312714E-16,-1.,-2.2204460492506E-16));
#622=DIRECTION('ref_axis',(1.,5.5511151231271E-16,1.3982257974394E-14));
#623=DIRECTION('center_axis',(5.55111512312714E-16,-1.,-2.2204460492506E-16));
#624=DIRECTION('ref_axis',(0.,0.,-1.));
#625=DIRECTION('center_axis',(5.55111512312714E-16,-1.,-2.2204460492506E-16));
#626=DIRECTION('ref_axis',(1.,5.5556263339411E-16,1.75085991270025E-14));
#627=DIRECTION('center_axis',(-0.789533022748674,0.,0.613708078804037));
#628=DIRECTION('ref_axis',(0.,-1.,0.));
#629=DIRECTION('center_axis',(-5.55111512312707E-16,1.,2.22044604925063E-16));
#630=DIRECTION('ref_axis',(1.,5.55111512312707E-16,5.89089944023689E-30));
#631=DIRECTION('center_axis',(2.43474522825479E-28,-1.,4.43734259186819E-31));
#632=DIRECTION('ref_axis',(1.,2.43420063913038E-28,5.7694375961083E-30));
#633=DIRECTION('',(-5.55111512312707E-16,1.,2.22044604925063E-16));
#634=DIRECTION('center_axis',(2.43474522825479E-28,-1.,4.43734259186819E-31));
#635=DIRECTION('ref_axis',(1.,2.43449870922191E-28,5.81784917600496E-30));
#636=DIRECTION('center_axis',(-2.43474522825479E-28,1.,-4.43734259186819E-31));
#637=DIRECTION('ref_axis',(1.,5.55111512312708E-16,5.83071103859008E-30));
#638=DIRECTION('center_axis',(-2.43474522825479E-28,1.,-4.43734259186819E-31));
#639=DIRECTION('ref_axis',(-0.442820428209983,0.,0.896610321354783));
#640=DIRECTION('center_axis',(-2.43474522825479E-28,1.,-4.43734259186819E-31));
#641=DIRECTION('ref_axis',(-0.990612554997341,0.,-0.136699546018409));
#642=DIRECTION('',(-0.593570565759536,-1.44854583721208E-28,-0.804781947774616));
#643=DIRECTION('center_axis',(-2.43474522825479E-28,1.,-4.43734259186819E-31));
#644=DIRECTION('ref_axis',(-0.136848920303203,0.,0.990591930621206));
#645=DIRECTION('center_axis',(5.55111512312707E-16,-1.,-2.22044604925063E-16));
#646=DIRECTION('ref_axis',(1.,5.55111512312708E-16,5.83071103859008E-30));
#647=DIRECTION('',(-5.55111512312708E-16,1.,2.22044604925063E-16));
#648=DIRECTION('center_axis',(5.55111512312714E-16,-1.,-2.2204460492506E-16));
#649=DIRECTION('ref_axis',(1.,5.55111512312708E-16,5.83071103859008E-30));
#650=DIRECTION('',(-5.55111512312707E-16,1.,2.22044604925063E-16));
#651=DIRECTION('center_axis',(5.55111512312714E-16,-1.,-2.2204460492506E-16));
#652=DIRECTION('ref_axis',(0.,0.,-1.));
#653=DIRECTION('center_axis',(0.78934790306389,0.,-0.613946160447836));
#654=DIRECTION('ref_axis',(0.,-1.,0.));
#655=DIRECTION('center_axis',(5.55111512312707E-16,-1.,-2.22044604925063E-16));
#656=DIRECTION('ref_axis',(-0.806946584785903,0.,0.590624423218654));
#657=DIRECTION('',(-5.55111512312707E-16,1.,2.22044604925063E-16));
#658=DIRECTION('center_axis',(5.55111512312714E-16,-1.,-2.2204460492506E-16));
#659=DIRECTION('ref_axis',(-0.806946584785903,0.,0.590624423218654));
#660=DIRECTION('',(5.55111512312709E-16,-1.,-2.22044604925063E-16));
#661=DIRECTION('center_axis',(5.55111512312707E-16,-1.,-2.22044604925063E-16));
#662=DIRECTION('ref_axis',(1.,5.55111512312707E-16,5.82681350447341E-30));
#663=DIRECTION('',(5.55111512312707E-16,-1.,-2.22044604925063E-16));
#664=DIRECTION('center_axis',(-5.55111512312714E-16,1.,2.2204460492506E-16));
#665=DIRECTION('ref_axis',(1.,5.55111512312707E-16,5.82681350447341E-30));
#666=DIRECTION('center_axis',(-5.55111512312707E-16,1.,2.22044604925063E-16));
#667=DIRECTION('ref_axis',(-0.806946584785903,0.,-0.590624423218654));
#668=DIRECTION('center_axis',(5.55111512312714E-16,-1.,-2.2204460492506E-16));
#669=DIRECTION('ref_axis',(-0.806946584785903,0.,-0.590624423218654));
#670=DIRECTION('',(-5.55111512312709E-16,1.,2.22044604925063E-16));
#671=DIRECTION('center_axis',(-5.55111512312714E-16,1.,2.2204460492506E-16));
#672=DIRECTION('ref_axis',(4.99600361081315E-16,-2.2204460492506E-16,1.));
#673=DIRECTION('',(-5.79319727271676E-30,-2.2204460492506E-16,1.));
#674=DIRECTION('center_axis',(-5.55111512312714E-16,1.,2.2204460492506E-16));
#675=DIRECTION('ref_axis',(0.669495968674112,0.,0.742815689070386));
#676=DIRECTION('center_axis',(5.55111512312714E-16,-1.,-2.2204460492506E-16));
#677=DIRECTION('ref_axis',(1.,5.55111512312709E-16,5.88208952451993E-30));
#678=DIRECTION('center_axis',(-5.55111512312714E-16,1.,2.2204460492506E-16));
#679=DIRECTION('ref_axis',(0.669495968674112,0.,-0.742815689070386));
#680=DIRECTION('',(-5.79319727271676E-30,-2.2204460492506E-16,1.));
#681=DIRECTION('center_axis',(1.,5.55111512312709E-16,5.91645678915759E-30));
#682=DIRECTION('ref_axis',(-5.81784917600496E-30,-2.2204460492506E-16,1.));
#683=DIRECTION('',(5.55111512312709E-16,-1.,-2.22044604925062E-16));
#684=DIRECTION('center_axis',(5.55111512312709E-16,-1.,-2.22044604925062E-16));
#685=DIRECTION('ref_axis',(0.669495968674112,0.,0.742815689070386));
#686=DIRECTION('',(-5.55111512312709E-16,1.,2.22044604925062E-16));
#687=DIRECTION('center_axis',(5.55111512312709E-16,-1.,-2.22044604925062E-16));
#688=DIRECTION('ref_axis',(0.669495968674112,0.,-0.742815689070386));
#689=DIRECTION('',(5.55111512312709E-16,-1.,-2.22044604925062E-16));
#690=DIRECTION('',(-5.55111512312709E-16,1.,2.22044604925062E-16));
#691=DIRECTION('center_axis',(-5.55111512312709E-16,1.,2.22044604925062E-16));
#692=DIRECTION('ref_axis',(-1.,-5.55111512312709E-16,1.22464679914729E-16));
#693=DIRECTION('center_axis',(5.55111512312709E-16,-1.,-2.22044604925062E-16));
#694=DIRECTION('ref_axis',(-0.8966103213548,0.,-0.442820428209948));
#695=DIRECTION('center_axis',(0.593570565759592,0.,0.804781947774574));
#696=DIRECTION('ref_axis',(-0.804781947774574,0.,0.593570565759592));
#697=DIRECTION('center_axis',(5.55111512312714E-16,-1.,-2.2204460492506E-16));
#698=DIRECTION('ref_axis',(-0.136848920303134,-3.46944695195387E-16,0.990591930621215));
#699=DIRECTION('center_axis',(-0.593570565759592,0.,-0.804781947774574));
#700=DIRECTION('ref_axis',(0.,-1.,0.));
#701=DIRECTION('center_axis',(5.55111512312714E-16,-1.,-2.2204460492506E-16));
#702=DIRECTION('ref_axis',(-0.990612554997336,-5.20417042793058E-16,-0.136699546018452));
#703=DIRECTION('center_axis',(-0.593570565759536,-1.50800364778654E-16,
-0.804781947774616));
#704=DIRECTION('ref_axis',(-0.569066772647888,-0.70710678118655,0.419717772161382));
#705=DIRECTION('',(-0.593570565759536,-1.50800364778654E-16,-0.804781947774616));
#706=DIRECTION('center_axis',(-5.55111512312709E-16,1.,2.22044604925062E-16));
#707=DIRECTION('ref_axis',(-0.990612554997341,0.,-0.136699546018409));
#708=DIRECTION('',(-5.55111512312708E-16,1.,2.22044604925062E-16));
#709=DIRECTION('center_axis',(0.804781947774616,5.78542865880355E-16,-0.593570565759536));
#710=DIRECTION('ref_axis',(-0.593570565759536,-1.44903887527785E-28,-0.804781947774616));
#711=DIRECTION('',(5.55111512312708E-16,-1.,-2.22044604925063E-16));
#712=DIRECTION('center_axis',(5.55111512312708E-16,-1.,-2.22044604925063E-16));
#713=DIRECTION('ref_axis',(-0.136848920303203,0.,0.990591930621206));
#714=DIRECTION('center_axis',(1.,5.55111512312709E-16,5.91645678915759E-30));
#715=DIRECTION('ref_axis',(-5.81784917600496E-30,-2.2204460492506E-16,1.));
#716=CARTESIAN_POINT('',(0.,0.,0.));
#717=CARTESIAN_POINT('Ctrl Pts',(227.463759002856,446.986043651917,569.113900990833));
#718=CARTESIAN_POINT('Ctrl Pts',(227.791891108748,446.986043651917,568.533578868622));
#719=CARTESIAN_POINT('Ctrl Pts',(228.12002321464,446.986043651917,567.953256746411));
#720=CARTESIAN_POINT('Ctrl Pts',(228.448155320532,446.986043651917,567.3729346242));
#721=CARTESIAN_POINT('Ctrl Pts',(225.548874168636,448.509292097069,568.031165783704));
#722=CARTESIAN_POINT('Ctrl Pts',(225.793322822613,448.509292097069,567.403319016831));
#723=CARTESIAN_POINT('Ctrl Pts',(226.03768939506,448.509292097069,566.776048123992));
#724=CARTESIAN_POINT('Ctrl Pts',(226.282138049037,448.509292097069,566.14820135712));
#725=CARTESIAN_POINT('Ctrl Pts',(222.321259949007,450.794164764796,567.041951179385));
#726=CARTESIAN_POINT('Ctrl Pts',(222.42459164551,450.794164764796,566.371087981856));
#727=CARTESIAN_POINT('Ctrl Pts',(222.527898464759,450.794164764796,565.700116887467));
#728=CARTESIAN_POINT('Ctrl Pts',(222.631230161261,450.794164764796,565.029253689939));
#729=CARTESIAN_POINT('Ctrl Pts',(216.790157839693,454.602285877674,567.186484563404));
#730=CARTESIAN_POINT('Ctrl Pts',(216.651658978224,454.602285877674,566.521824258339));
#731=CARTESIAN_POINT('Ctrl Pts',(216.51323647285,454.602285877674,565.857402576928));
#732=CARTESIAN_POINT('Ctrl Pts',(216.374737611381,454.602285877674,565.192742271863));
#733=CARTESIAN_POINT('Ctrl Pts',(211.504618864075,458.410406990552,569.118896582138));
#734=CARTESIAN_POINT('Ctrl Pts',(211.135078763635,458.410406990552,568.538735256147));
#735=CARTESIAN_POINT('Ctrl Pts',(210.765553296777,458.410406990552,567.958746701013));
#736=CARTESIAN_POINT('Ctrl Pts',(210.396013196337,458.410406990552,567.378585375021));
#737=CARTESIAN_POINT('Ctrl Pts',(208.313859046973,461.456903880855,572.298095436246));
#738=CARTESIAN_POINT('Ctrl Pts',(207.804746975956,461.456903880855,571.856990808046));
#739=CARTESIAN_POINT('Ctrl Pts',(207.29590514637,461.456903880855,571.415832969342));
#740=CARTESIAN_POINT('Ctrl Pts',(206.786793075353,461.456903880855,570.974728341143));
#741=CARTESIAN_POINT('Ctrl Pts',(207.125304562256,462.980152326006,574.149159371917));
#742=CARTESIAN_POINT('Ctrl Pts',(206.564323905718,462.980152326006,573.788957834671));
#743=CARTESIAN_POINT('Ctrl Pts',(206.003343249179,462.980152326006,573.428756297426));
#744=CARTESIAN_POINT('Ctrl Pts',(205.44236259264,462.980152326006,573.06855476018));
#745=CARTESIAN_POINT('',(207.125304562256,462.980152326006,574.149159371917));
#746=CARTESIAN_POINT('',(227.463759002856,446.986043651917,569.113900990832));
#747=CARTESIAN_POINT('Ctrl Pts',(207.125304562256,462.980152326006,574.149159371917));
#748=CARTESIAN_POINT('Ctrl Pts',(208.313859046973,461.456903880855,572.298095436246));
#749=CARTESIAN_POINT('Ctrl Pts',(209.909238955524,459.933655435704,570.708496009192));
#750=CARTESIAN_POINT('Ctrl Pts',(211.764036704923,458.410406990552,569.527213891918));
#751=CARTESIAN_POINT('Ctrl Pts',(213.618834454322,456.887158545401,568.345931774644));
#752=CARTESIAN_POINT('Ctrl Pts',(215.73305004457,455.36391010025,567.572966967151));
#753=CARTESIAN_POINT('Ctrl Pts',(217.912749137136,453.840661655098,567.276769795581));
#754=CARTESIAN_POINT('Ctrl Pts',(219.002598683419,453.079037432523,567.128671209796));
#755=CARTESIAN_POINT('Ctrl Pts',(220.108819105282,452.317413209947,567.099764532992));
#756=CARTESIAN_POINT('Ctrl Pts',(221.204923188705,451.555788987371,567.190406148936));
#757=CARTESIAN_POINT('Ctrl Pts',(223.39713135555,450.03254054222,567.371689380824));
#758=CARTESIAN_POINT('Ctrl Pts',(225.548874168636,448.509292097069,568.031165783704));
#759=CARTESIAN_POINT('Ctrl Pts',(227.463759002856,446.986043651917,569.113900990832));
#760=CARTESIAN_POINT('',(205.44236259264,462.980152326006,573.06855476018));
#761=CARTESIAN_POINT('',(205.44236259264,462.980152326006,573.06855476018));
#762=CARTESIAN_POINT('',(228.448155320532,446.986043651917,567.3729346242));
#763=CARTESIAN_POINT('Ctrl Pts',(228.448155320532,446.986043651917,567.3729346242));
#764=CARTESIAN_POINT('Ctrl Pts',(226.282138049037,448.509292097069,566.14820135712));
#765=CARTESIAN_POINT('Ctrl Pts',(222.631230161261,450.794164764796,565.029253689939));
#766=CARTESIAN_POINT('Ctrl Pts',(216.374737611381,454.602285877674,565.192742271863));
#767=CARTESIAN_POINT('Ctrl Pts',(210.396013196337,458.410406990552,567.378585375021));
#768=CARTESIAN_POINT('Ctrl Pts',(206.786793075353,461.456903880855,570.974728341143));
#769=CARTESIAN_POINT('Ctrl Pts',(205.44236259264,462.980152326006,573.06855476018));
#770=CARTESIAN_POINT('',(228.448155320532,446.986043651917,567.3729346242));
#771=CARTESIAN_POINT('Origin',(219.957737080576,462.980152326007,582.388769536406));
#772=CARTESIAN_POINT('',(229.226994165555,462.980152326007,594.49840921282));
#773=CARTESIAN_POINT('Origin',(219.957737080576,462.980152326007,582.388769536406));
#774=CARTESIAN_POINT('',(230.442634438995,462.980152326007,596.086558678579));
#775=CARTESIAN_POINT('Origin',(229.834814302275,462.980152326007,595.292483945699));
#776=CARTESIAN_POINT('',(202.707737080576,462.980152326007,582.388769536406));
#777=CARTESIAN_POINT('Origin',(219.957737080576,462.980152326007,582.388769536406));
#778=CARTESIAN_POINT('Origin',(219.957737080576,462.980152326007,582.388769536406));
#779=CARTESIAN_POINT('',(219.555961932647,462.980152326007,578.529627568234));
#780=CARTESIAN_POINT('',(219.555961932647,462.980152326007,586.247911504578));
#781=CARTESIAN_POINT('Origin',(219.957737080576,462.980152326007,582.388769536406));
#782=CARTESIAN_POINT('',(220.107737080576,462.980152326007,585.750599395277));
#783=CARTESIAN_POINT('Origin',(219.607737080576,462.980152326007,585.750599395277));
#784=CARTESIAN_POINT('',(220.107737080576,462.980152326007,584.438159689598));
#785=CARTESIAN_POINT('',(220.107737080576,462.980152326007,583.213769536406));
#786=CARTESIAN_POINT('',(220.456574289879,462.980152326007,583.96155732839));
#787=CARTESIAN_POINT('Origin',(220.607737080576,462.980152326007,584.438159689598));
#788=CARTESIAN_POINT('',(220.456574289879,462.980152326007,580.815981744421));
#789=CARTESIAN_POINT('Origin',(219.957737080576,462.980152326007,582.388769536406));
#790=CARTESIAN_POINT('',(220.107737080576,462.980152326007,580.339379383214));
#791=CARTESIAN_POINT('Origin',(220.607737080576,462.980152326007,580.339379383214));
#792=CARTESIAN_POINT('',(220.107737080576,462.980152326007,579.026939677534));
#793=CARTESIAN_POINT('',(220.107737080576,462.980152326007,580.523769536406));
#794=CARTESIAN_POINT('Origin',(219.607737080576,462.980152326007,579.026939677534));
#795=CARTESIAN_POINT('Origin',(219.957737080576,465.780152326007,582.388769536406));
#796=CARTESIAN_POINT('',(231.536624517433,443.315651733248,572.464462723102));
#797=CARTESIAN_POINT('Ctrl Pts',(227.463759002856,446.986043651917,569.113900990832));
#798=CARTESIAN_POINT('Ctrl Pts',(228.724215596478,445.983378367768,569.826602196975));
#799=CARTESIAN_POINT('Ctrl Pts',(229.876764833692,444.985763273111,570.715206144426));
#800=CARTESIAN_POINT('Ctrl Pts',(231.110943124343,443.760403205303,571.983389959401));
#801=CARTESIAN_POINT('Ctrl Pts',(231.327697397558,443.53795863618,572.220703269767));
#802=CARTESIAN_POINT('Ctrl Pts',(231.536624517433,443.315651733248,572.464462723102));
#803=CARTESIAN_POINT('',(233.431670115921,440.980152326006,575.246246973681));
#804=CARTESIAN_POINT('Ctrl Pts',(231.533915357475,443.315651733248,572.467033264124));
#805=CARTESIAN_POINT('Ctrl Pts',(232.266179547214,442.537151930834,573.319994485347));
#806=CARTESIAN_POINT('Ctrl Pts',(232.905105327208,441.75865212842,574.25291462652));
#807=CARTESIAN_POINT('Ctrl Pts',(233.431670115921,440.980152326006,575.246246973681));
#808=CARTESIAN_POINT('',(233.431670115921,439.880152326007,575.246246973681));
#809=CARTESIAN_POINT('',(233.431670115921,465.780152326007,575.246246973681));
#810=CARTESIAN_POINT('',(229.320416027407,439.880152326007,594.426325058129));
#811=CARTESIAN_POINT('Origin',(219.957737080576,439.880152326007,582.388769536406));
#812=CARTESIAN_POINT('',(229.320416027407,440.980152326005,594.426325058129));
#813=CARTESIAN_POINT('',(229.320416027407,465.780152326007,594.426325058129));
#814=CARTESIAN_POINT('',(229.226994165555,440.980152326005,594.49840921282));
#815=CARTESIAN_POINT('Origin',(219.957737080576,440.980152326005,582.388769536406));
#816=CARTESIAN_POINT('',(229.226994165555,465.780152326007,594.49840921282));
#817=CARTESIAN_POINT('Origin',(235.198743300885,439.580152326006,574.309522703159));
#818=CARTESIAN_POINT('',(234.303548333925,440.980152326005,574.784064934651));
#819=CARTESIAN_POINT('',(235.198743300885,440.980152326006,574.309522703159));
#820=CARTESIAN_POINT('',(234.303548333924,439.880152326007,574.78406493465));
#821=CARTESIAN_POINT('',(234.303548333924,438.180152326005,574.78406493465));
#822=CARTESIAN_POINT('',(234.03848735618,439.580152326007,574.924573575228));
#823=CARTESIAN_POINT('Origin',(234.03848735618,439.880152326007,574.924573575228));
#824=CARTESIAN_POINT('',(233.696731093666,439.580152326007,575.105738333102));
#825=CARTESIAN_POINT('',(232.677180399809,439.580152326007,575.646201449225));
#826=CARTESIAN_POINT('Origin',(233.696731093666,439.880152326007,575.105738333102));
#827=CARTESIAN_POINT('Ctrl Pts',(233.431670115921,440.980152326006,575.246246973681));
#828=CARTESIAN_POINT('Ctrl Pts',(234.020694510909,440.980152326006,574.934005550174));
#829=CARTESIAN_POINT('Ctrl Pts',(234.609718905897,440.980152326006,574.621764126666));
#830=CARTESIAN_POINT('Ctrl Pts',(235.198743300885,440.980152326006,574.309522703159));
#831=CARTESIAN_POINT('Ctrl Pts',(232.077573905383,442.98211610131,572.691827088554));
#832=CARTESIAN_POINT('Ctrl Pts',(232.607559550462,442.98211610131,572.267778125188));
#833=CARTESIAN_POINT('Ctrl Pts',(233.137075057002,442.98211610131,571.844145894823));
#834=CARTESIAN_POINT('Ctrl Pts',(233.66706070208,442.98211610131,571.420096931457));
#835=CARTESIAN_POINT('Ctrl Pts',(229.980439774262,444.984079876614,570.536910264085));
#836=CARTESIAN_POINT('Ctrl Pts',(230.418733829866,444.984079876614,570.018643317288));
#837=CARTESIAN_POINT('Ctrl Pts',(230.856598530945,444.984079876614,569.500835011233));
#838=CARTESIAN_POINT('Ctrl Pts',(231.294892586549,444.984079876614,568.982568064436));
#839=CARTESIAN_POINT('Ctrl Pts',(227.463759002856,446.986043651917,569.113900990833));
#840=CARTESIAN_POINT('Ctrl Pts',(227.791891108748,446.986043651917,568.533578868622));
#841=CARTESIAN_POINT('Ctrl Pts',(228.12002321464,446.986043651917,567.953256746411));
#842=CARTESIAN_POINT('Ctrl Pts',(228.448155320532,446.986043651917,567.3729346242));
#843=CARTESIAN_POINT('',(233.052102672479,443.315651733248,571.165821949725));
#844=CARTESIAN_POINT('Ctrl Pts',(233.052102672479,443.315651733248,571.165821949725));
#845=CARTESIAN_POINT('Ctrl Pts',(231.75037621935,444.539115706138,569.649535613839));
#846=CARTESIAN_POINT('Ctrl Pts',(230.18788734177,445.762579679027,568.356633004751));
#847=CARTESIAN_POINT('Ctrl Pts',(228.448155320532,446.986043651917,567.3729346242));
#848=CARTESIAN_POINT('',(235.198743300885,440.980152326006,574.309522703159));
#849=CARTESIAN_POINT('Ctrl Pts',(235.198743300885,440.980152326006,574.309522703159));
#850=CARTESIAN_POINT('Ctrl Pts',(234.603120834964,441.75865212842,573.185917261288));
#851=CARTESIAN_POINT('Ctrl Pts',(233.880401510053,442.537151930834,572.130646937667));
#852=CARTESIAN_POINT('Ctrl Pts',(233.052102672479,443.315651733248,571.165821949725));
#853=CARTESIAN_POINT('',(235.198743300885,440.980152326006,574.309522703159));
#854=CARTESIAN_POINT('Origin',(233.021275691426,439.580152326007,582.388769536406));
#855=CARTESIAN_POINT('',(229.738282983592,439.580152326007,594.971403263482));
#856=CARTESIAN_POINT('Origin',(219.957737080576,439.580152326007,582.388769536406));
#857=CARTESIAN_POINT('',(229.596433980935,439.580152326007,594.951807017783));
#858=CARTESIAN_POINT('Origin',(229.676912175712,439.580152326007,594.892449961207));
#859=CARTESIAN_POINT('',(229.485516296809,439.580152326007,594.801421275931));
#860=CARTESIAN_POINT('',(227.319328653549,439.580152326007,591.864434822506));
#861=CARTESIAN_POINT('',(229.504599875541,439.580152326007,594.663129429048));
#862=CARTESIAN_POINT('Origin',(229.565994491586,439.580152326007,594.742064219355));
#863=CARTESIAN_POINT('Origin',(219.957737080576,439.580152326007,582.388769536406));
#864=CARTESIAN_POINT('Origin',(219.957737080576,439.880152326007,582.388769536406));
#865=CARTESIAN_POINT('',(229.922395407234,439.880152326007,595.208263170307));
#866=CARTESIAN_POINT('Origin',(219.957737080576,439.880152326007,582.388769536406));
#867=CARTESIAN_POINT('Origin',(229.738282983592,439.880152326007,594.971403263482));
#868=CARTESIAN_POINT('Origin',(219.957737080576,438.180152326005,582.388769536406));
#869=CARTESIAN_POINT('',(229.922395407234,440.980152326005,595.208263170307));
#870=CARTESIAN_POINT('Origin',(219.957737080576,440.980152326005,582.388769536406));
#871=CARTESIAN_POINT('',(229.922395407234,438.180152326005,595.208263170307));
#872=CARTESIAN_POINT('Origin',(220.46433464234,440.980152326005,582.388769536406));
#873=CARTESIAN_POINT('',(230.442634438995,440.980152326005,596.086558678579));
#874=CARTESIAN_POINT('Origin',(219.957737080576,440.980152326005,582.388769536406));
#875=CARTESIAN_POINT('Origin',(229.834814302275,440.980152326005,595.292483945699));
#876=CARTESIAN_POINT('',(229.244081712476,440.980152326005,594.979492445659));
#877=CARTESIAN_POINT('Origin',(229.565994491586,440.980152326005,594.742064219355));
#878=CARTESIAN_POINT('',(229.354999396602,440.980152326005,595.129878187511));
#879=CARTESIAN_POINT('',(219.957737080576,440.980152326005,582.388769536406));
#880=CARTESIAN_POINT('Origin',(229.676912175712,440.980152326005,594.892449961207));
#881=CARTESIAN_POINT('Origin',(219.957737080576,465.780152326007,582.388769536406));
#882=CARTESIAN_POINT('',(202.707737080576,465.780152326007,582.388769536406));
#883=CARTESIAN_POINT('',(202.707737080576,465.780152326007,582.388769536406));
#884=CARTESIAN_POINT('Origin',(219.957737080576,465.780152326007,582.388769536406));
#885=CARTESIAN_POINT('',(230.442634438995,465.780152326007,596.086558678579));
#886=CARTESIAN_POINT('Origin',(219.957737080576,439.880152326007,582.388769536406));
#887=CARTESIAN_POINT('Origin',(229.504599875541,439.880152326007,594.663129429048));
#888=CARTESIAN_POINT('Origin',(220.607737080576,465.780152326007,580.339379383214));
#889=CARTESIAN_POINT('',(220.456574289879,465.780152326007,580.815981744421));
#890=CARTESIAN_POINT('',(220.456574289879,465.780152326007,580.815981744421));
#891=CARTESIAN_POINT('',(220.107737080576,465.780152326007,580.339379383214));
#892=CARTESIAN_POINT('Origin',(220.607737080576,465.780152326007,580.339379383214));
#893=CARTESIAN_POINT('',(220.107737080576,465.780152326007,580.339379383214));
#894=CARTESIAN_POINT('Origin',(219.957737080576,465.780152326007,582.388769536406));
#895=CARTESIAN_POINT('',(220.456574289879,465.780152326007,583.96155732839));
#896=CARTESIAN_POINT('',(220.456574289879,465.780152326007,583.96155732839));
#897=CARTESIAN_POINT('Origin',(219.957737080576,465.780152326007,582.388769536406));
#898=CARTESIAN_POINT('Origin',(220.607737080576,465.780152326007,584.438159689598));
#899=CARTESIAN_POINT('',(220.107737080576,465.780152326007,584.438159689598));
#900=CARTESIAN_POINT('Origin',(220.607737080576,465.780152326007,584.438159689598));
#901=CARTESIAN_POINT('',(220.107737080576,465.780152326007,584.438159689598));
#902=CARTESIAN_POINT('Origin',(219.957737080576,465.780152326007,582.388769536406));
#903=CARTESIAN_POINT('',(220.107737080576,465.780152326007,585.750599395277));
#904=CARTESIAN_POINT('',(220.107737080576,465.780152326007,583.213769536406));
#905=CARTESIAN_POINT('',(219.555961932647,465.780152326007,586.247911504578));
#906=CARTESIAN_POINT('Origin',(219.607737080576,465.780152326007,585.750599395277));
#907=CARTESIAN_POINT('',(219.555961932647,465.780152326007,578.529627568234));
#908=CARTESIAN_POINT('Origin',(219.957737080576,465.780152326007,582.388769536406));
#909=CARTESIAN_POINT('',(220.107737080576,465.780152326007,579.026939677534));
#910=CARTESIAN_POINT('Origin',(219.607737080576,465.780152326007,579.026939677534));
#911=CARTESIAN_POINT('',(220.107737080576,465.780152326007,580.523769536406));
#912=CARTESIAN_POINT('Origin',(220.107737080576,465.780152326007,584.038769536406));
#913=CARTESIAN_POINT('',(220.107737080576,465.780152326007,585.750599395277));
#914=CARTESIAN_POINT('Origin',(219.607737080576,465.780152326007,585.750599395277));
#915=CARTESIAN_POINT('',(219.555961932647,465.780152326007,586.247911504578));
#916=CARTESIAN_POINT('Origin',(219.607737080576,465.780152326007,579.026939677534));
#917=CARTESIAN_POINT('',(219.555961932647,465.780152326007,578.529627568234));
#918=CARTESIAN_POINT('',(220.107737080576,465.780152326007,579.026939677534));
#919=CARTESIAN_POINT('Origin',(219.957737080576,465.780152326007,582.388769536406));
#920=CARTESIAN_POINT('Origin',(229.834814302275,465.780152326007,595.292483945699));
#921=CARTESIAN_POINT('Ctrl Pts',(229.596433980935,439.580152326007,594.951807017783));
#922=CARTESIAN_POINT('Ctrl Pts',(229.621460793898,439.580152326007,594.985739170833));
#923=CARTESIAN_POINT('Ctrl Pts',(229.663227283682,439.580152326007,594.991509154269));
#924=CARTESIAN_POINT('Ctrl Pts',(229.704993773465,439.580152326007,594.997279137706));
#925=CARTESIAN_POINT('Ctrl Pts',(229.738282983592,439.580152326007,594.971403263482));
#926=CARTESIAN_POINT('Ctrl Pts',(229.354999396602,439.580152326007,595.129878187511));
#927=CARTESIAN_POINT('Ctrl Pts',(229.455106648456,439.580152326007,595.265606799711));
#928=CARTESIAN_POINT('Ctrl Pts',(229.622172607591,439.580152326007,595.288686733456));
#929=CARTESIAN_POINT('Ctrl Pts',(229.789238566726,439.580152326007,595.311766667201));
#930=CARTESIAN_POINT('Ctrl Pts',(229.922395407234,439.580152326007,595.208263170307));
#931=CARTESIAN_POINT('Ctrl Pts',(229.354999396602,439.880152326007,595.129878187511));
#932=CARTESIAN_POINT('Ctrl Pts',(229.455106648456,439.880152326007,595.265606799711));
#933=CARTESIAN_POINT('Ctrl Pts',(229.622172607591,439.880152326007,595.288686733456));
#934=CARTESIAN_POINT('Ctrl Pts',(229.789238566726,439.880152326007,595.311766667201));
#935=CARTESIAN_POINT('Ctrl Pts',(229.922395407234,439.880152326007,595.208263170307));
#936=CARTESIAN_POINT('',(229.354999396602,439.880152326007,595.129878187511));
#937=CARTESIAN_POINT('Origin',(229.596433980935,439.880152326007,594.951807017783));
#938=CARTESIAN_POINT('Origin',(229.676912175712,439.880152326007,594.892449961207));
#939=CARTESIAN_POINT('Ctrl Pts',(229.504599875541,439.580152326007,594.663129429048));
#940=CARTESIAN_POINT('Ctrl Pts',(229.42765745175,439.580152326007,594.722974404222));
#941=CARTESIAN_POINT('Ctrl Pts',(229.485516296809,439.580152326007,594.801421275931));
#942=CARTESIAN_POINT('Ctrl Pts',(229.320416027407,439.580152326007,594.426325058129));
#943=CARTESIAN_POINT('Ctrl Pts',(229.012646332242,439.580152326007,594.665704958824));
#944=CARTESIAN_POINT('Ctrl Pts',(229.244081712476,439.580152326007,594.979492445659));
#945=CARTESIAN_POINT('Ctrl Pts',(229.320416027407,439.880152326007,594.426325058129));
#946=CARTESIAN_POINT('Ctrl Pts',(229.012646332242,439.880152326007,594.665704958824));
#947=CARTESIAN_POINT('Ctrl Pts',(229.244081712476,439.880152326007,594.979492445659));
#948=CARTESIAN_POINT('',(229.244081712476,439.880152326007,594.979492445659));
#949=CARTESIAN_POINT('Origin',(229.485516296809,439.880152326007,594.801421275931));
#950=CARTESIAN_POINT('Origin',(229.565994491586,439.880152326007,594.742064219355));
#951=CARTESIAN_POINT('Origin',(227.319328653549,439.880152326007,591.864434822506));
#952=CARTESIAN_POINT('',(227.077894069217,439.880152326007,592.042505992234));
#953=CARTESIAN_POINT('Origin',(229.565994491586,465.780152326007,594.742064219355));
#954=CARTESIAN_POINT('',(229.244081712476,465.780152326007,594.979492445659));
#955=CARTESIAN_POINT('Origin',(229.595426537231,438.180152326005,595.45585699053));
#956=CARTESIAN_POINT('',(229.354999396602,438.180152326005,595.129878187511));
#957=CARTESIAN_POINT('Origin',(229.676912175712,438.180152326005,594.892449961207));
#958=CARTESIAN_POINT('Origin',(220.107737080576,465.780152326007,578.658769536406));
#959=UNCERTAINTY_MEASURE_WITH_UNIT(LENGTH_MEASURE(0.01),#963,
'DISTANCE_ACCURACY_VALUE',
'Maximum model space distance between geometric entities at asserted c
onnectivities');
#960=UNCERTAINTY_MEASURE_WITH_UNIT(LENGTH_MEASURE(0.01),#963,
'DISTANCE_ACCURACY_VALUE',
'Maximum model space distance between geometric entities at asserted c
onnectivities');
#961=(
GEOMETRIC_REPRESENTATION_CONTEXT(3)
GLOBAL_UNCERTAINTY_ASSIGNED_CONTEXT((#959))
GLOBAL_UNIT_ASSIGNED_CONTEXT((#963,#965,#966))
REPRESENTATION_CONTEXT('','3D')
);
#962=(
GEOMETRIC_REPRESENTATION_CONTEXT(3)
GLOBAL_UNCERTAINTY_ASSIGNED_CONTEXT((#960))
GLOBAL_UNIT_ASSIGNED_CONTEXT((#963,#965,#966))
REPRESENTATION_CONTEXT('','3D')
);
#963=(
LENGTH_UNIT()
NAMED_UNIT(*)
SI_UNIT(.MILLI.,.METRE.)
);
#964=(
LENGTH_UNIT()
NAMED_UNIT(*)
SI_UNIT($,.METRE.)
);
#965=(
NAMED_UNIT(*)
PLANE_ANGLE_UNIT()
SI_UNIT($,.RADIAN.)
);
#966=(
NAMED_UNIT(*)
SI_UNIT($,.STERADIAN.)
SOLID_ANGLE_UNIT()
);
#967=SHAPE_DEFINITION_REPRESENTATION(#968,#969);
#968=PRODUCT_DEFINITION_SHAPE('',$,#971);
#969=SHAPE_REPRESENTATION('',(#504),#961);
#970=PRODUCT_DEFINITION_CONTEXT('part definition',#975,'design');
#971=PRODUCT_DEFINITION(
'CPAP valve 3-way - Valve - A - v2 - straight-gradual-valve-side -',
'CPAP valve 3-way - Valve - A - v2 - straight-gradual-valve-side - v2',
#972,#970);
#972=PRODUCT_DEFINITION_FORMATION('',$,#977);
#973=PRODUCT_RELATED_PRODUCT_CATEGORY(
'CPAP valve 3-way - Valve - A - v2 - straight-gradual-valve-side - v2',
'CPAP valve 3-way - Valve - A - v2 - straight-gradual-valve-side - v2',
(#977));
#974=APPLICATION_PROTOCOL_DEFINITION('international standard',
'automotive_design',2009,#975);
#975=APPLICATION_CONTEXT(
'Core Data for Automotive Mechanical Design Process');
#976=PRODUCT_CONTEXT('part definition',#975,'mechanical');
#977=PRODUCT(
'CPAP valve 3-way - Valve - A - v2 - straight-gradual-valve-side -',
'CPAP valve 3-way - Valve - A - v2 - straight-gradual-valve-side - v2',
$,(#976));
#978=PRESENTATION_STYLE_ASSIGNMENT((#979));
#979=SURFACE_STYLE_USAGE(.BOTH.,#980);
#980=SURFACE_SIDE_STYLE('',(#981));
#981=SURFACE_STYLE_FILL_AREA(#982);
#982=FILL_AREA_STYLE('Steel - Satin',(#983));
#983=FILL_AREA_STYLE_COLOUR('Steel - Satin',#984);
#984=COLOUR_RGB('Steel - Satin',0.627450980392157,0.627450980392157,0.627450980392157);
ENDSEC;
END-ISO-10303-21;
