ISO-10303-21;
HEADER;
/* Generated by software containing ST-Developer
 * from STEP Tools, Inc. (www.steptools.com) 
 */

FILE_DESCRIPTION(
/* description */ (''),
/* implementation_level */ '2;1');

FILE_NAME(
/* name */ 
'CPAP valve 3-way - Valve - A - v2 - curved-valve-side - v1.step',
/* time_stamp */ '2026-07-28T20:15:18+02:00',
/* author */ (''),
/* organization */ (''),
/* preprocessor_version */ 'ST-DEVELOPER v20.1',
/* originating_system */ 'Autodesk Translation Framework v15.8.0.0',
/* authorisation */ '');

FILE_SCHEMA (('AUTOMOTIVE_DESIGN { 1 0 10303 214 3 1 1 }'));
ENDSEC;

DATA;
#10=MECHANICAL_DESIGN_GEOMETRIC_PRESENTATION_REPRESENTATION('',(#13),#1206);
#11=SHAPE_REPRESENTATION_RELATIONSHIP('SRR','None',#1213,#12);
#12=ADVANCED_BREP_SHAPE_REPRESENTATION('',(#14),#1205);
#13=STYLED_ITEM('',(#1222),#14);
#14=MANIFOLD_SOLID_BREP('curved-valve-side',#598);
#15=B_SPLINE_SURFACE_WITH_KNOTS('',3,3,((#1142,#1143,#1144,#1145),(#1146,
#1147,#1148,#1149),(#1150,#1151,#1152,#1153),(#1154,#1155,#1156,#1157),
(#1158,#1159,#1160,#1161),(#1162,#1163,#1164,#1165),(#1166,#1167,#1168,
#1169),(#1170,#1171,#1172,#1173),(#1174,#1175,#1176,#1177)),
 .UNSPECIFIED.,.F.,.F.,.F.,(4,1,1,1,1,1,4),(4,4),(0.0423220738997256,0.127093435369975,
0.296636158310475,0.381407519780724,0.466178881250974,0.550950242721223,
0.635721604191473),(-0.200000000000055,0.),.UNSPECIFIED.);
#16=B_SPLINE_SURFACE_WITH_KNOTS('',3,3,((#1179,#1180,#1181,#1182),(#1183,
#1184,#1185,#1186),(#1187,#1188,#1189,#1190),(#1191,#1192,#1193,#1194),
(#1195,#1196,#1197,#1198),(#1199,#1200,#1201,#1202)),.UNSPECIFIED.,.F.,
 .F.,.F.,(4,1,1,4),(4,4),(0.635721604191475,0.843880687510632,0.895920458340421,
1.),(-0.200000000000066,0.),.UNSPECIFIED.);
#17=B_SPLINE_CURVE_WITH_KNOTS('',3,(#1084,#1085,#1086,#1087,#1088,#1089,
#1090,#1091,#1092,#1093),.UNSPECIFIED.,.F.,.F.,(4,3,3,4),(0.,0.311036409999751,
0.466554614999628,1.08862743499913),.UNSPECIFIED.);
#18=B_SPLINE_CURVE_WITH_KNOTS('',3,(#1095,#1096,#1097,#1098,#1099,#1100,
#1101,#1102,#1103,#1104,#1105,#1106,#1107,#1108,#1109,#1110,#1111,#1112,
#1113),.UNSPECIFIED.,.F.,.F.,(4,3,3,3,3,3,4),(0.,0.408548037722746,0.817096075445491,
1.22564411316824,1.63419215089098,2.45128822633647,2.85983626405911),
 .UNSPECIFIED.);
#19=B_SPLINE_CURVE_WITH_KNOTS('',3,(#1120,#1121,#1122,#1123,#1124,#1125,
#1126,#1127,#1128),.UNSPECIFIED.,.F.,.F.,(4,1,1,1,1,1,4),(0.0423220738997256,
0.127093435369975,0.296636158310475,0.381407519780724,0.466178881250974,
0.550950242721223,0.635721604191473),.UNSPECIFIED.);
#20=B_SPLINE_CURVE_WITH_KNOTS('',3,(#1129,#1130,#1131,#1132,#1133,#1134),
 .UNSPECIFIED.,.F.,.F.,(4,1,1,4),(0.635721604191475,0.843880687510632,0.895920458340421,
1.),.UNSPECIFIED.);
#21=B_SPLINE_CURVE_WITH_KNOTS('',3,(#1136,#1137,#1138,#1139,#1140,#1141),
 .UNSPECIFIED.,.F.,.F.,(4,2,4),(-0.200000000000059,-0.100000000000022,0.),
 .UNSPECIFIED.);
#22=TOROIDAL_SURFACE('',#654,15.9368048764725,0.3);
#23=TOROIDAL_SURFACE('',#666,15.55,0.3);
#24=(
BOUNDED_SURFACE()
B_SPLINE_SURFACE(2,2,((#973,#974,#975,#976,#977),(#978,#979,#980,#981,#982),
(#983,#984,#985,#986,#987)),.UNSPECIFIED.,.F.,.F.,.F.)
B_SPLINE_SURFACE_WITH_KNOTS((3,3),(3,2,3),(-1.57079632679498,7.71390487840529E-16),
(-0.935308019802577,-0.137279703253302,0.660748613295973),.UNSPECIFIED.)
GEOMETRIC_REPRESENTATION_ITEM()
RATIONAL_B_SPLINE_SURFACE(((1.,0.921444451209027,1.,0.921444451209027,1.),
(0.707106781186452,0.651559619936532,0.707106781186452,0.651559619936532,
0.707106781186452),(1.,0.921444451209027,1.,0.921444451209027,1.)))
REPRESENTATION_ITEM('')
SURFACE()
);
#25=(
BOUNDED_SURFACE()
B_SPLINE_SURFACE(2,2,((#1002,#1003,#1004,#1005,#1006),(#1007,#1008,#1009,
#1010,#1011),(#1012,#1013,#1014,#1015,#1016)),.UNSPECIFIED.,.F.,.F.,.F.)
B_SPLINE_SURFACE_WITH_KNOTS((3,3),(3,2,3),(-1.57079632679499,4.24199877793205E-16),
(-0.798028316549401,1.11022302462516E-16,0.7980283165494),.UNSPECIFIED.)
GEOMETRIC_REPRESENTATION_ITEM()
RATIONAL_B_SPLINE_SURFACE(((1.,0.921444451209002,1.,0.921444451209002,1.),
(0.707106781187303,0.651559619937298,0.707106781187303,0.651559619937298,
0.707106781187303),(1.,0.921444451209002,1.,0.921444451209002,1.)))
REPRESENTATION_ITEM('')
SURFACE()
);
#26=(
BOUNDED_SURFACE()
B_SPLINE_SURFACE(2,2,((#1028,#1029,#1030),(#1031,#1032,#1033),(#1034,#1035,
#1036)),.UNSPECIFIED.,.F.,.F.,.F.)
B_SPLINE_SURFACE_WITH_KNOTS((3,3),(3,3),(-1.57079632679497,7.93129111472386E-16),
(-2.20628463378857,-0.661050196065776),.UNSPECIFIED.)
GEOMETRIC_REPRESENTATION_ITEM()
RATIONAL_B_SPLINE_SURFACE(((1.,0.716086274631063,1.),(0.707106781186452,
0.506349460706169,0.707106781186452),(1.,0.716086274631063,1.)))
REPRESENTATION_ITEM('')
SURFACE()
);
#27=(
BOUNDED_SURFACE()
B_SPLINE_SURFACE(2,2,((#1048,#1049,#1050),(#1051,#1052,#1053),(#1054,#1055,
#1056)),.UNSPECIFIED.,.F.,.F.,.F.)
B_SPLINE_SURFACE_WITH_KNOTS((3,3),(3,3),(-1.57079632679498,7.90375728231307E-16),
(-2.48054245752387,-0.935308019801936),.UNSPECIFIED.)
GEOMETRIC_REPRESENTATION_ITEM()
RATIONAL_B_SPLINE_SURFACE(((1.,0.716086274631362,1.),(0.707106781186452,
0.506349460706381,0.707106781186452),(1.,0.716086274631362,1.)))
REPRESENTATION_ITEM('')
SURFACE()
);
#28=CYLINDRICAL_SURFACE('',#642,0.5);
#29=CYLINDRICAL_SURFACE('',#643,1.64999999999999);
#30=CYLINDRICAL_SURFACE('',#644,0.5);
#31=CYLINDRICAL_SURFACE('',#646,0.5);
#32=CYLINDRICAL_SURFACE('',#647,0.5);
#33=CYLINDRICAL_SURFACE('',#648,3.88);
#34=CYLINDRICAL_SURFACE('',#649,1.);
#35=CYLINDRICAL_SURFACE('',#661,0.3);
#36=CYLINDRICAL_SURFACE('',#673,0.3);
#37=CYLINDRICAL_SURFACE('',#674,0.4);
#38=CYLINDRICAL_SURFACE('',#676,0.4);
#39=CYLINDRICAL_SURFACE('',#678,0.4);
#40=CYLINDRICAL_SURFACE('',#680,0.4);
#41=CYLINDRICAL_SURFACE('',#681,16.2368048764725);
#42=CYLINDRICAL_SURFACE('',#683,15.25);
#43=CYLINDRICAL_SURFACE('',#685,17.25);
#44=FACE_BOUND('',#130,.T.);
#45=FACE_BOUND('',#133,.T.);
#46=CIRCLE('',#614,17.25);
#47=CIRCLE('',#615,0.5);
#48=CIRCLE('',#616,1.64999999999999);
#49=CIRCLE('',#617,0.5);
#50=CIRCLE('',#618,0.5);
#51=CIRCLE('',#619,3.88);
#52=CIRCLE('',#620,0.5);
#53=CIRCLE('',#622,17.25);
#54=CIRCLE('',#623,1.);
#55=CIRCLE('',#624,15.25);
#56=CIRCLE('',#625,0.4);
#57=CIRCLE('',#626,0.4);
#58=CIRCLE('',#627,16.2368048764725);
#59=CIRCLE('',#628,0.4);
#60=CIRCLE('',#629,0.4);
#61=CIRCLE('',#630,15.25);
#62=CIRCLE('',#632,15.25);
#63=CIRCLE('',#633,1.);
#64=CIRCLE('',#634,17.25);
#65=CIRCLE('',#635,17.25);
#66=CIRCLE('',#636,0.5);
#67=CIRCLE('',#637,0.5);
#68=CIRCLE('',#638,3.88);
#69=CIRCLE('',#639,0.5);
#70=CIRCLE('',#640,0.5);
#71=CIRCLE('',#641,1.64999999999999);
#72=CIRCLE('',#650,0.300000000000038);
#73=CIRCLE('',#651,0.1);
#74=CIRCLE('',#652,0.300000000000011);
#75=CIRCLE('',#653,0.4);
#76=CIRCLE('',#655,0.300000000000011);
#77=CIRCLE('',#656,16.2368048764725);
#78=CIRCLE('',#657,15.9368048764725);
#79=CIRCLE('',#658,0.300000000000011);
#80=CIRCLE('',#659,0.4);
#81=CIRCLE('',#660,0.1);
#82=CIRCLE('',#662,0.300000000000011);
#83=CIRCLE('',#663,0.300000000000011);
#84=CIRCLE('',#664,0.4);
#85=CIRCLE('',#665,0.1);
#86=CIRCLE('',#667,0.300000000000011);
#87=CIRCLE('',#668,15.25);
#88=CIRCLE('',#669,15.55);
#89=CIRCLE('',#670,0.300000000000011);
#90=CIRCLE('',#671,0.4);
#91=CIRCLE('',#672,0.1);
#92=CIRCLE('',#684,15.25);
#93=CIRCLE('',#686,17.25);
#94=FACE_OUTER_BOUND('',#128,.T.);
#95=FACE_OUTER_BOUND('',#129,.T.);
#96=FACE_OUTER_BOUND('',#131,.T.);
#97=FACE_OUTER_BOUND('',#132,.T.);
#98=FACE_OUTER_BOUND('',#134,.T.);
#99=FACE_OUTER_BOUND('',#135,.T.);
#100=FACE_OUTER_BOUND('',#136,.T.);
#101=FACE_OUTER_BOUND('',#137,.T.);
#102=FACE_OUTER_BOUND('',#138,.T.);
#103=FACE_OUTER_BOUND('',#139,.T.);
#104=FACE_OUTER_BOUND('',#140,.T.);
#105=FACE_OUTER_BOUND('',#141,.T.);
#106=FACE_OUTER_BOUND('',#142,.T.);
#107=FACE_OUTER_BOUND('',#143,.T.);
#108=FACE_OUTER_BOUND('',#144,.T.);
#109=FACE_OUTER_BOUND('',#145,.T.);
#110=FACE_OUTER_BOUND('',#146,.T.);
#111=FACE_OUTER_BOUND('',#147,.T.);
#112=FACE_OUTER_BOUND('',#148,.T.);
#113=FACE_OUTER_BOUND('',#149,.T.);
#114=FACE_OUTER_BOUND('',#150,.T.);
#115=FACE_OUTER_BOUND('',#151,.T.);
#116=FACE_OUTER_BOUND('',#152,.T.);
#117=FACE_OUTER_BOUND('',#153,.T.);
#118=FACE_OUTER_BOUND('',#154,.T.);
#119=FACE_OUTER_BOUND('',#155,.T.);
#120=FACE_OUTER_BOUND('',#156,.T.);
#121=FACE_OUTER_BOUND('',#157,.T.);
#122=FACE_OUTER_BOUND('',#158,.T.);
#123=FACE_OUTER_BOUND('',#159,.T.);
#124=FACE_OUTER_BOUND('',#160,.T.);
#125=FACE_OUTER_BOUND('',#161,.T.);
#126=FACE_OUTER_BOUND('',#162,.T.);
#127=FACE_OUTER_BOUND('',#163,.T.);
#128=EDGE_LOOP('',(#378,#379,#380,#381));
#129=EDGE_LOOP('',(#382));
#130=EDGE_LOOP('',(#383,#384,#385,#386,#387,#388,#389,#390));
#131=EDGE_LOOP('',(#391,#392,#393,#394,#395,#396,#397,#398,#399,#400,#401,
#402));
#132=EDGE_LOOP('',(#403,#404,#405,#406,#407));
#133=EDGE_LOOP('',(#408,#409,#410,#411,#412,#413,#414,#415));
#134=EDGE_LOOP('',(#416,#417,#418,#419));
#135=EDGE_LOOP('',(#420,#421,#422,#423));
#136=EDGE_LOOP('',(#424,#425,#426,#427));
#137=EDGE_LOOP('',(#428,#429,#430,#431));
#138=EDGE_LOOP('',(#432,#433,#434,#435));
#139=EDGE_LOOP('',(#436,#437,#438,#439));
#140=EDGE_LOOP('',(#440,#441,#442,#443));
#141=EDGE_LOOP('',(#444,#445,#446,#447));
#142=EDGE_LOOP('',(#448,#449,#450,#451));
#143=EDGE_LOOP('',(#452,#453,#454,#455));
#144=EDGE_LOOP('',(#456,#457,#458,#459));
#145=EDGE_LOOP('',(#460,#461,#462,#463));
#146=EDGE_LOOP('',(#464,#465,#466,#467));
#147=EDGE_LOOP('',(#468,#469,#470,#471));
#148=EDGE_LOOP('',(#472,#473,#474,#475));
#149=EDGE_LOOP('',(#476,#477,#478,#479));
#150=EDGE_LOOP('',(#480,#481,#482,#483));
#151=EDGE_LOOP('',(#484,#485,#486,#487));
#152=EDGE_LOOP('',(#488,#489,#490,#491));
#153=EDGE_LOOP('',(#492,#493,#494,#495,#496,#497,#498,#499));
#154=EDGE_LOOP('',(#500,#501,#502,#503));
#155=EDGE_LOOP('',(#504,#505,#506,#507));
#156=EDGE_LOOP('',(#508,#509,#510,#511));
#157=EDGE_LOOP('',(#512,#513,#514,#515));
#158=EDGE_LOOP('',(#516,#517,#518,#519));
#159=EDGE_LOOP('',(#520,#521,#522,#523,#524,#525,#526,#527,#528,#529,#530));
#160=EDGE_LOOP('',(#531,#532,#533,#534,#535,#536,#537,#538,#539,#540,#541));
#161=EDGE_LOOP('',(#542,#543,#544,#545));
#162=EDGE_LOOP('',(#546,#547,#548,#549));
#163=EDGE_LOOP('',(#550,#551,#552,#553));
#164=LINE('',#881,#199);
#165=LINE('',#883,#200);
#166=LINE('',#885,#201);
#167=LINE('',#886,#202);
#168=LINE('',#898,#203);
#169=LINE('',#905,#204);
#170=LINE('',#916,#205);
#171=LINE('',#924,#206);
#172=LINE('',#938,#207);
#173=LINE('',#943,#208);
#174=LINE('',#951,#209);
#175=LINE('',#956,#210);
#176=LINE('',#957,#211);
#177=LINE('',#959,#212);
#178=LINE('',#961,#213);
#179=LINE('',#963,#214);
#180=LINE('',#965,#215);
#181=LINE('',#967,#216);
#182=LINE('',#968,#217);
#183=LINE('',#971,#218);
#184=LINE('',#972,#219);
#185=LINE('',#1026,#220);
#186=LINE('',#1027,#221);
#187=LINE('',#1063,#222);
#188=LINE('',#1064,#223);
#189=LINE('',#1066,#224);
#190=LINE('',#1067,#225);
#191=LINE('',#1069,#226);
#192=LINE('',#1071,#227);
#193=LINE('',#1074,#228);
#194=LINE('',#1075,#229);
#195=LINE('',#1077,#230);
#196=LINE('',#1079,#231);
#197=LINE('',#1116,#232);
#198=LINE('',#1178,#233);
#199=VECTOR('',#692,10.);
#200=VECTOR('',#693,10.);
#201=VECTOR('',#694,10.);
#202=VECTOR('',#695,10.);
#203=VECTOR('',#706,10.);
#204=VECTOR('',#713,10.);
#205=VECTOR('',#724,10.);
#206=VECTOR('',#731,10.);
#207=VECTOR('',#746,10.);
#208=VECTOR('',#749,10.);
#209=VECTOR('',#756,10.);
#210=VECTOR('',#763,10.);
#211=VECTOR('',#764,10.);
#212=VECTOR('',#767,10.);
#213=VECTOR('',#770,10.);
#214=VECTOR('',#773,10.);
#215=VECTOR('',#776,10.);
#216=VECTOR('',#779,10.);
#217=VECTOR('',#780,10.);
#218=VECTOR('',#785,10.);
#219=VECTOR('',#786,10.);
#220=VECTOR('',#813,10.);
#221=VECTOR('',#814,10.);
#222=VECTOR('',#837,10.);
#223=VECTOR('',#838,10.);
#224=VECTOR('',#841,10.);
#225=VECTOR('',#842,10.);
#226=VECTOR('',#845,10.);
#227=VECTOR('',#848,10.);
#228=VECTOR('',#853,10.);
#229=VECTOR('',#854,10.);
#230=VECTOR('',#857,10.);
#231=VECTOR('',#860,10.);
#232=VECTOR('',#871,17.25);
#233=VECTOR('',#876,10.);
#234=VERTEX_POINT('',#879);
#235=VERTEX_POINT('',#880);
#236=VERTEX_POINT('',#882);
#237=VERTEX_POINT('',#884);
#238=VERTEX_POINT('',#888);
#239=VERTEX_POINT('',#890);
#240=VERTEX_POINT('',#891);
#241=VERTEX_POINT('',#893);
#242=VERTEX_POINT('',#895);
#243=VERTEX_POINT('',#897);
#244=VERTEX_POINT('',#899);
#245=VERTEX_POINT('',#901);
#246=VERTEX_POINT('',#903);
#247=VERTEX_POINT('',#907);
#248=VERTEX_POINT('',#909);
#249=VERTEX_POINT('',#911);
#250=VERTEX_POINT('',#913);
#251=VERTEX_POINT('',#915);
#252=VERTEX_POINT('',#917);
#253=VERTEX_POINT('',#919);
#254=VERTEX_POINT('',#921);
#255=VERTEX_POINT('',#923);
#256=VERTEX_POINT('',#925);
#257=VERTEX_POINT('',#929);
#258=VERTEX_POINT('',#930);
#259=VERTEX_POINT('',#932);
#260=VERTEX_POINT('',#934);
#261=VERTEX_POINT('',#936);
#262=VERTEX_POINT('',#939);
#263=VERTEX_POINT('',#940);
#264=VERTEX_POINT('',#942);
#265=VERTEX_POINT('',#944);
#266=VERTEX_POINT('',#946);
#267=VERTEX_POINT('',#948);
#268=VERTEX_POINT('',#950);
#269=VERTEX_POINT('',#952);
#270=VERTEX_POINT('',#988);
#271=VERTEX_POINT('',#989);
#272=VERTEX_POINT('',#991);
#273=VERTEX_POINT('',#993);
#274=VERTEX_POINT('',#997);
#275=VERTEX_POINT('',#998);
#276=VERTEX_POINT('',#1017);
#277=VERTEX_POINT('',#1018);
#278=VERTEX_POINT('',#1023);
#279=VERTEX_POINT('',#1024);
#280=VERTEX_POINT('',#1037);
#281=VERTEX_POINT('',#1038);
#282=VERTEX_POINT('',#1043);
#283=VERTEX_POINT('',#1044);
#284=VERTEX_POINT('',#1057);
#285=VERTEX_POINT('',#1058);
#286=VERTEX_POINT('',#1083);
#287=VERTEX_POINT('',#1094);
#288=VERTEX_POINT('',#1117);
#289=VERTEX_POINT('',#1119);
#290=EDGE_CURVE('',#234,#235,#164,.T.);
#291=EDGE_CURVE('',#236,#235,#165,.T.);
#292=EDGE_CURVE('',#236,#237,#166,.T.);
#293=EDGE_CURVE('',#237,#234,#167,.T.);
#294=EDGE_CURVE('',#238,#238,#46,.T.);
#295=EDGE_CURVE('',#239,#240,#47,.T.);
#296=EDGE_CURVE('',#241,#239,#48,.T.);
#297=EDGE_CURVE('',#242,#241,#49,.T.);
#298=EDGE_CURVE('',#242,#243,#168,.T.);
#299=EDGE_CURVE('',#244,#243,#50,.T.);
#300=EDGE_CURVE('',#244,#245,#51,.T.);
#301=EDGE_CURVE('',#246,#245,#52,.T.);
#302=EDGE_CURVE('',#246,#240,#169,.T.);
#303=EDGE_CURVE('',#247,#236,#53,.T.);
#304=EDGE_CURVE('',#248,#247,#54,.T.);
#305=EDGE_CURVE('',#249,#248,#55,.T.);
#306=EDGE_CURVE('',#250,#249,#56,.F.);
#307=EDGE_CURVE('',#251,#250,#170,.T.);
#308=EDGE_CURVE('',#252,#251,#57,.F.);
#309=EDGE_CURVE('',#253,#252,#58,.T.);
#310=EDGE_CURVE('',#254,#253,#59,.F.);
#311=EDGE_CURVE('',#255,#254,#171,.T.);
#312=EDGE_CURVE('',#256,#255,#60,.F.);
#313=EDGE_CURVE('',#237,#256,#61,.T.);
#314=EDGE_CURVE('',#257,#258,#62,.T.);
#315=EDGE_CURVE('',#259,#258,#63,.T.);
#316=EDGE_CURVE('',#259,#260,#64,.T.);
#317=EDGE_CURVE('',#260,#261,#65,.T.);
#318=EDGE_CURVE('',#257,#261,#172,.T.);
#319=EDGE_CURVE('',#262,#263,#66,.T.);
#320=EDGE_CURVE('',#262,#264,#173,.F.);
#321=EDGE_CURVE('',#265,#264,#67,.T.);
#322=EDGE_CURVE('',#265,#266,#68,.F.);
#323=EDGE_CURVE('',#267,#266,#69,.T.);
#324=EDGE_CURVE('',#267,#268,#174,.F.);
#325=EDGE_CURVE('',#269,#268,#70,.T.);
#326=EDGE_CURVE('',#269,#263,#71,.T.);
#327=EDGE_CURVE('',#263,#239,#175,.T.);
#328=EDGE_CURVE('',#240,#262,#176,.T.);
#329=EDGE_CURVE('',#241,#269,#177,.T.);
#330=EDGE_CURVE('',#268,#242,#178,.T.);
#331=EDGE_CURVE('',#243,#267,#179,.T.);
#332=EDGE_CURVE('',#266,#244,#180,.T.);
#333=EDGE_CURVE('',#245,#265,#181,.T.);
#334=EDGE_CURVE('',#264,#246,#182,.T.);
#335=EDGE_CURVE('',#258,#248,#183,.T.);
#336=EDGE_CURVE('',#247,#259,#184,.T.);
#337=EDGE_CURVE('',#270,#271,#72,.T.);
#338=EDGE_CURVE('',#271,#272,#73,.T.);
#339=EDGE_CURVE('',#272,#273,#74,.T.);
#340=EDGE_CURVE('',#273,#270,#75,.T.);
#341=EDGE_CURVE('',#274,#275,#76,.T.);
#342=EDGE_CURVE('',#275,#273,#77,.T.);
#343=EDGE_CURVE('',#272,#274,#78,.T.);
#344=EDGE_CURVE('',#276,#277,#79,.T.);
#345=EDGE_CURVE('',#277,#275,#80,.T.);
#346=EDGE_CURVE('',#274,#276,#81,.T.);
#347=EDGE_CURVE('',#278,#279,#82,.T.);
#348=EDGE_CURVE('',#279,#277,#185,.T.);
#349=EDGE_CURVE('',#276,#278,#186,.T.);
#350=EDGE_CURVE('',#280,#281,#83,.T.);
#351=EDGE_CURVE('',#281,#279,#84,.T.);
#352=EDGE_CURVE('',#278,#280,#85,.T.);
#353=EDGE_CURVE('',#282,#283,#86,.T.);
#354=EDGE_CURVE('',#283,#281,#87,.T.);
#355=EDGE_CURVE('',#280,#282,#88,.T.);
#356=EDGE_CURVE('',#284,#285,#89,.T.);
#357=EDGE_CURVE('',#285,#283,#90,.T.);
#358=EDGE_CURVE('',#282,#284,#91,.T.);
#359=EDGE_CURVE('',#284,#271,#187,.T.);
#360=EDGE_CURVE('',#270,#285,#188,.T.);
#361=EDGE_CURVE('',#285,#250,#189,.T.);
#362=EDGE_CURVE('',#249,#283,#190,.T.);
#363=EDGE_CURVE('',#251,#270,#191,.T.);
#364=EDGE_CURVE('',#273,#252,#192,.T.);
#365=EDGE_CURVE('',#281,#256,#193,.T.);
#366=EDGE_CURVE('',#255,#279,#194,.T.);
#367=EDGE_CURVE('',#277,#254,#195,.T.);
#368=EDGE_CURVE('',#253,#275,#196,.T.);
#369=EDGE_CURVE('',#257,#286,#17,.T.);
#370=EDGE_CURVE('',#286,#287,#18,.T.);
#371=EDGE_CURVE('',#287,#234,#92,.T.);
#372=EDGE_CURVE('',#238,#260,#197,.T.);
#373=EDGE_CURVE('',#235,#288,#93,.T.);
#374=EDGE_CURVE('',#288,#289,#19,.T.);
#375=EDGE_CURVE('',#289,#261,#20,.T.);
#376=EDGE_CURVE('',#288,#287,#21,.T.);
#377=EDGE_CURVE('',#286,#289,#198,.T.);
#378=ORIENTED_EDGE('',*,*,#290,.T.);
#379=ORIENTED_EDGE('',*,*,#291,.F.);
#380=ORIENTED_EDGE('',*,*,#292,.T.);
#381=ORIENTED_EDGE('',*,*,#293,.T.);
#382=ORIENTED_EDGE('',*,*,#294,.F.);
#383=ORIENTED_EDGE('',*,*,#295,.F.);
#384=ORIENTED_EDGE('',*,*,#296,.F.);
#385=ORIENTED_EDGE('',*,*,#297,.F.);
#386=ORIENTED_EDGE('',*,*,#298,.T.);
#387=ORIENTED_EDGE('',*,*,#299,.F.);
#388=ORIENTED_EDGE('',*,*,#300,.T.);
#389=ORIENTED_EDGE('',*,*,#301,.F.);
#390=ORIENTED_EDGE('',*,*,#302,.T.);
#391=ORIENTED_EDGE('',*,*,#303,.F.);
#392=ORIENTED_EDGE('',*,*,#304,.F.);
#393=ORIENTED_EDGE('',*,*,#305,.F.);
#394=ORIENTED_EDGE('',*,*,#306,.F.);
#395=ORIENTED_EDGE('',*,*,#307,.F.);
#396=ORIENTED_EDGE('',*,*,#308,.F.);
#397=ORIENTED_EDGE('',*,*,#309,.F.);
#398=ORIENTED_EDGE('',*,*,#310,.F.);
#399=ORIENTED_EDGE('',*,*,#311,.F.);
#400=ORIENTED_EDGE('',*,*,#312,.F.);
#401=ORIENTED_EDGE('',*,*,#313,.F.);
#402=ORIENTED_EDGE('',*,*,#292,.F.);
#403=ORIENTED_EDGE('',*,*,#314,.T.);
#404=ORIENTED_EDGE('',*,*,#315,.F.);
#405=ORIENTED_EDGE('',*,*,#316,.T.);
#406=ORIENTED_EDGE('',*,*,#317,.T.);
#407=ORIENTED_EDGE('',*,*,#318,.F.);
#408=ORIENTED_EDGE('',*,*,#319,.F.);
#409=ORIENTED_EDGE('',*,*,#320,.T.);
#410=ORIENTED_EDGE('',*,*,#321,.F.);
#411=ORIENTED_EDGE('',*,*,#322,.T.);
#412=ORIENTED_EDGE('',*,*,#323,.F.);
#413=ORIENTED_EDGE('',*,*,#324,.T.);
#414=ORIENTED_EDGE('',*,*,#325,.F.);
#415=ORIENTED_EDGE('',*,*,#326,.T.);
#416=ORIENTED_EDGE('',*,*,#319,.T.);
#417=ORIENTED_EDGE('',*,*,#327,.T.);
#418=ORIENTED_EDGE('',*,*,#295,.T.);
#419=ORIENTED_EDGE('',*,*,#328,.T.);
#420=ORIENTED_EDGE('',*,*,#327,.F.);
#421=ORIENTED_EDGE('',*,*,#326,.F.);
#422=ORIENTED_EDGE('',*,*,#329,.F.);
#423=ORIENTED_EDGE('',*,*,#296,.T.);
#424=ORIENTED_EDGE('',*,*,#297,.T.);
#425=ORIENTED_EDGE('',*,*,#329,.T.);
#426=ORIENTED_EDGE('',*,*,#325,.T.);
#427=ORIENTED_EDGE('',*,*,#330,.T.);
#428=ORIENTED_EDGE('',*,*,#330,.F.);
#429=ORIENTED_EDGE('',*,*,#324,.F.);
#430=ORIENTED_EDGE('',*,*,#331,.F.);
#431=ORIENTED_EDGE('',*,*,#298,.F.);
#432=ORIENTED_EDGE('',*,*,#299,.T.);
#433=ORIENTED_EDGE('',*,*,#331,.T.);
#434=ORIENTED_EDGE('',*,*,#323,.T.);
#435=ORIENTED_EDGE('',*,*,#332,.T.);
#436=ORIENTED_EDGE('',*,*,#301,.T.);
#437=ORIENTED_EDGE('',*,*,#333,.T.);
#438=ORIENTED_EDGE('',*,*,#321,.T.);
#439=ORIENTED_EDGE('',*,*,#334,.T.);
#440=ORIENTED_EDGE('',*,*,#332,.F.);
#441=ORIENTED_EDGE('',*,*,#322,.F.);
#442=ORIENTED_EDGE('',*,*,#333,.F.);
#443=ORIENTED_EDGE('',*,*,#300,.F.);
#444=ORIENTED_EDGE('',*,*,#315,.T.);
#445=ORIENTED_EDGE('',*,*,#335,.T.);
#446=ORIENTED_EDGE('',*,*,#304,.T.);
#447=ORIENTED_EDGE('',*,*,#336,.T.);
#448=ORIENTED_EDGE('',*,*,#337,.T.);
#449=ORIENTED_EDGE('',*,*,#338,.T.);
#450=ORIENTED_EDGE('',*,*,#339,.T.);
#451=ORIENTED_EDGE('',*,*,#340,.T.);
#452=ORIENTED_EDGE('',*,*,#341,.T.);
#453=ORIENTED_EDGE('',*,*,#342,.T.);
#454=ORIENTED_EDGE('',*,*,#339,.F.);
#455=ORIENTED_EDGE('',*,*,#343,.T.);
#456=ORIENTED_EDGE('',*,*,#344,.T.);
#457=ORIENTED_EDGE('',*,*,#345,.T.);
#458=ORIENTED_EDGE('',*,*,#341,.F.);
#459=ORIENTED_EDGE('',*,*,#346,.T.);
#460=ORIENTED_EDGE('',*,*,#347,.T.);
#461=ORIENTED_EDGE('',*,*,#348,.T.);
#462=ORIENTED_EDGE('',*,*,#344,.F.);
#463=ORIENTED_EDGE('',*,*,#349,.T.);
#464=ORIENTED_EDGE('',*,*,#350,.T.);
#465=ORIENTED_EDGE('',*,*,#351,.T.);
#466=ORIENTED_EDGE('',*,*,#347,.F.);
#467=ORIENTED_EDGE('',*,*,#352,.T.);
#468=ORIENTED_EDGE('',*,*,#353,.T.);
#469=ORIENTED_EDGE('',*,*,#354,.T.);
#470=ORIENTED_EDGE('',*,*,#350,.F.);
#471=ORIENTED_EDGE('',*,*,#355,.T.);
#472=ORIENTED_EDGE('',*,*,#356,.T.);
#473=ORIENTED_EDGE('',*,*,#357,.T.);
#474=ORIENTED_EDGE('',*,*,#353,.F.);
#475=ORIENTED_EDGE('',*,*,#358,.T.);
#476=ORIENTED_EDGE('',*,*,#356,.F.);
#477=ORIENTED_EDGE('',*,*,#359,.T.);
#478=ORIENTED_EDGE('',*,*,#337,.F.);
#479=ORIENTED_EDGE('',*,*,#360,.T.);
#480=ORIENTED_EDGE('',*,*,#357,.F.);
#481=ORIENTED_EDGE('',*,*,#361,.T.);
#482=ORIENTED_EDGE('',*,*,#306,.T.);
#483=ORIENTED_EDGE('',*,*,#362,.T.);
#484=ORIENTED_EDGE('',*,*,#360,.F.);
#485=ORIENTED_EDGE('',*,*,#363,.F.);
#486=ORIENTED_EDGE('',*,*,#307,.T.);
#487=ORIENTED_EDGE('',*,*,#361,.F.);
#488=ORIENTED_EDGE('',*,*,#340,.F.);
#489=ORIENTED_EDGE('',*,*,#364,.T.);
#490=ORIENTED_EDGE('',*,*,#308,.T.);
#491=ORIENTED_EDGE('',*,*,#363,.T.);
#492=ORIENTED_EDGE('',*,*,#338,.F.);
#493=ORIENTED_EDGE('',*,*,#359,.F.);
#494=ORIENTED_EDGE('',*,*,#358,.F.);
#495=ORIENTED_EDGE('',*,*,#355,.F.);
#496=ORIENTED_EDGE('',*,*,#352,.F.);
#497=ORIENTED_EDGE('',*,*,#349,.F.);
#498=ORIENTED_EDGE('',*,*,#346,.F.);
#499=ORIENTED_EDGE('',*,*,#343,.F.);
#500=ORIENTED_EDGE('',*,*,#351,.F.);
#501=ORIENTED_EDGE('',*,*,#365,.T.);
#502=ORIENTED_EDGE('',*,*,#312,.T.);
#503=ORIENTED_EDGE('',*,*,#366,.T.);
#504=ORIENTED_EDGE('',*,*,#348,.F.);
#505=ORIENTED_EDGE('',*,*,#366,.F.);
#506=ORIENTED_EDGE('',*,*,#311,.T.);
#507=ORIENTED_EDGE('',*,*,#367,.F.);
#508=ORIENTED_EDGE('',*,*,#345,.F.);
#509=ORIENTED_EDGE('',*,*,#367,.T.);
#510=ORIENTED_EDGE('',*,*,#310,.T.);
#511=ORIENTED_EDGE('',*,*,#368,.T.);
#512=ORIENTED_EDGE('',*,*,#342,.F.);
#513=ORIENTED_EDGE('',*,*,#368,.F.);
#514=ORIENTED_EDGE('',*,*,#309,.T.);
#515=ORIENTED_EDGE('',*,*,#364,.F.);
#516=ORIENTED_EDGE('',*,*,#328,.F.);
#517=ORIENTED_EDGE('',*,*,#302,.F.);
#518=ORIENTED_EDGE('',*,*,#334,.F.);
#519=ORIENTED_EDGE('',*,*,#320,.F.);
#520=ORIENTED_EDGE('',*,*,#314,.F.);
#521=ORIENTED_EDGE('',*,*,#369,.T.);
#522=ORIENTED_EDGE('',*,*,#370,.T.);
#523=ORIENTED_EDGE('',*,*,#371,.T.);
#524=ORIENTED_EDGE('',*,*,#293,.F.);
#525=ORIENTED_EDGE('',*,*,#313,.T.);
#526=ORIENTED_EDGE('',*,*,#365,.F.);
#527=ORIENTED_EDGE('',*,*,#354,.F.);
#528=ORIENTED_EDGE('',*,*,#362,.F.);
#529=ORIENTED_EDGE('',*,*,#305,.T.);
#530=ORIENTED_EDGE('',*,*,#335,.F.);
#531=ORIENTED_EDGE('',*,*,#294,.T.);
#532=ORIENTED_EDGE('',*,*,#372,.T.);
#533=ORIENTED_EDGE('',*,*,#316,.F.);
#534=ORIENTED_EDGE('',*,*,#336,.F.);
#535=ORIENTED_EDGE('',*,*,#303,.T.);
#536=ORIENTED_EDGE('',*,*,#291,.T.);
#537=ORIENTED_EDGE('',*,*,#373,.T.);
#538=ORIENTED_EDGE('',*,*,#374,.T.);
#539=ORIENTED_EDGE('',*,*,#375,.T.);
#540=ORIENTED_EDGE('',*,*,#317,.F.);
#541=ORIENTED_EDGE('',*,*,#372,.F.);
#542=ORIENTED_EDGE('',*,*,#376,.F.);
#543=ORIENTED_EDGE('',*,*,#373,.F.);
#544=ORIENTED_EDGE('',*,*,#290,.F.);
#545=ORIENTED_EDGE('',*,*,#371,.F.);
#546=ORIENTED_EDGE('',*,*,#376,.T.);
#547=ORIENTED_EDGE('',*,*,#370,.F.);
#548=ORIENTED_EDGE('',*,*,#377,.T.);
#549=ORIENTED_EDGE('',*,*,#374,.F.);
#550=ORIENTED_EDGE('',*,*,#369,.F.);
#551=ORIENTED_EDGE('',*,*,#318,.T.);
#552=ORIENTED_EDGE('',*,*,#375,.F.);
#553=ORIENTED_EDGE('',*,*,#377,.F.);
#554=PLANE('',#612);
#555=PLANE('',#613);
#556=PLANE('',#621);
#557=PLANE('',#631);
#558=PLANE('',#645);
#559=PLANE('',#675);
#560=PLANE('',#677);
#561=PLANE('',#679);
#562=PLANE('',#682);
#563=PLANE('',#687);
#564=ADVANCED_FACE('',(#94),#554,.T.);
#565=ADVANCED_FACE('',(#95,#44),#555,.T.);
#566=ADVANCED_FACE('',(#96),#556,.T.);
#567=ADVANCED_FACE('',(#97,#45),#557,.T.);
#568=ADVANCED_FACE('',(#98),#28,.T.);
#569=ADVANCED_FACE('',(#99),#29,.F.);
#570=ADVANCED_FACE('',(#100),#30,.T.);
#571=ADVANCED_FACE('',(#101),#558,.F.);
#572=ADVANCED_FACE('',(#102),#31,.F.);
#573=ADVANCED_FACE('',(#103),#32,.F.);
#574=ADVANCED_FACE('',(#104),#33,.F.);
#575=ADVANCED_FACE('',(#105),#34,.T.);
#576=ADVANCED_FACE('',(#106),#24,.F.);
#577=ADVANCED_FACE('',(#107),#22,.T.);
#578=ADVANCED_FACE('',(#108),#25,.F.);
#579=ADVANCED_FACE('',(#109),#35,.T.);
#580=ADVANCED_FACE('',(#110),#26,.F.);
#581=ADVANCED_FACE('',(#111),#23,.T.);
#582=ADVANCED_FACE('',(#112),#27,.F.);
#583=ADVANCED_FACE('',(#113),#36,.T.);
#584=ADVANCED_FACE('',(#114),#37,.T.);
#585=ADVANCED_FACE('',(#115),#559,.F.);
#586=ADVANCED_FACE('',(#116),#38,.T.);
#587=ADVANCED_FACE('',(#117),#560,.T.);
#588=ADVANCED_FACE('',(#118),#39,.T.);
#589=ADVANCED_FACE('',(#119),#561,.F.);
#590=ADVANCED_FACE('',(#120),#40,.T.);
#591=ADVANCED_FACE('',(#121),#41,.T.);
#592=ADVANCED_FACE('',(#122),#562,.F.);
#593=ADVANCED_FACE('',(#123),#42,.F.);
#594=ADVANCED_FACE('',(#124),#43,.T.);
#595=ADVANCED_FACE('',(#125),#563,.T.);
#596=ADVANCED_FACE('',(#126),#15,.T.);
#597=ADVANCED_FACE('',(#127),#16,.T.);
#598=CLOSED_SHELL('',(#564,#565,#566,#567,#568,#569,#570,#571,#572,#573,
#574,#575,#576,#577,#578,#579,#580,#581,#582,#583,#584,#585,#586,#587,#588,
#589,#590,#591,#592,#593,#594,#595,#596,#597));
#599=DERIVED_UNIT_ELEMENT(#601,1.);
#600=DERIVED_UNIT_ELEMENT(#1208,-3.);
#601=(
MASS_UNIT()
NAMED_UNIT(*)
SI_UNIT(.KILO.,.GRAM.)
);
#602=DERIVED_UNIT((#599,#600));
#603=MEASURE_REPRESENTATION_ITEM('density measure',
POSITIVE_RATIO_MEASURE(7850.),#602);
#604=PROPERTY_DEFINITION_REPRESENTATION(#609,#606);
#605=PROPERTY_DEFINITION_REPRESENTATION(#610,#607);
#606=REPRESENTATION('material name',(#608),#1205);
#607=REPRESENTATION('density',(#603),#1205);
#608=DESCRIPTIVE_REPRESENTATION_ITEM('Steel','Steel');
#609=PROPERTY_DEFINITION('material property','material name',#1215);
#610=PROPERTY_DEFINITION('material property','density of part',#1215);
#611=AXIS2_PLACEMENT_3D('',#877,#688,#689);
#612=AXIS2_PLACEMENT_3D('',#878,#690,#691);
#613=AXIS2_PLACEMENT_3D('',#887,#696,#697);
#614=AXIS2_PLACEMENT_3D('',#889,#698,#699);
#615=AXIS2_PLACEMENT_3D('',#892,#700,#701);
#616=AXIS2_PLACEMENT_3D('',#894,#702,#703);
#617=AXIS2_PLACEMENT_3D('',#896,#704,#705);
#618=AXIS2_PLACEMENT_3D('',#900,#707,#708);
#619=AXIS2_PLACEMENT_3D('',#902,#709,#710);
#620=AXIS2_PLACEMENT_3D('',#904,#711,#712);
#621=AXIS2_PLACEMENT_3D('',#906,#714,#715);
#622=AXIS2_PLACEMENT_3D('',#908,#716,#717);
#623=AXIS2_PLACEMENT_3D('',#910,#718,#719);
#624=AXIS2_PLACEMENT_3D('',#912,#720,#721);
#625=AXIS2_PLACEMENT_3D('',#914,#722,#723);
#626=AXIS2_PLACEMENT_3D('',#918,#725,#726);
#627=AXIS2_PLACEMENT_3D('',#920,#727,#728);
#628=AXIS2_PLACEMENT_3D('',#922,#729,#730);
#629=AXIS2_PLACEMENT_3D('',#926,#732,#733);
#630=AXIS2_PLACEMENT_3D('',#927,#734,#735);
#631=AXIS2_PLACEMENT_3D('',#928,#736,#737);
#632=AXIS2_PLACEMENT_3D('',#931,#738,#739);
#633=AXIS2_PLACEMENT_3D('',#933,#740,#741);
#634=AXIS2_PLACEMENT_3D('',#935,#742,#743);
#635=AXIS2_PLACEMENT_3D('',#937,#744,#745);
#636=AXIS2_PLACEMENT_3D('',#941,#747,#748);
#637=AXIS2_PLACEMENT_3D('',#945,#750,#751);
#638=AXIS2_PLACEMENT_3D('',#947,#752,#753);
#639=AXIS2_PLACEMENT_3D('',#949,#754,#755);
#640=AXIS2_PLACEMENT_3D('',#953,#757,#758);
#641=AXIS2_PLACEMENT_3D('',#954,#759,#760);
#642=AXIS2_PLACEMENT_3D('',#955,#761,#762);
#643=AXIS2_PLACEMENT_3D('',#958,#765,#766);
#644=AXIS2_PLACEMENT_3D('',#960,#768,#769);
#645=AXIS2_PLACEMENT_3D('',#962,#771,#772);
#646=AXIS2_PLACEMENT_3D('',#964,#774,#775);
#647=AXIS2_PLACEMENT_3D('',#966,#777,#778);
#648=AXIS2_PLACEMENT_3D('',#969,#781,#782);
#649=AXIS2_PLACEMENT_3D('',#970,#783,#784);
#650=AXIS2_PLACEMENT_3D('',#990,#787,#788);
#651=AXIS2_PLACEMENT_3D('',#992,#789,#790);
#652=AXIS2_PLACEMENT_3D('',#994,#791,#792);
#653=AXIS2_PLACEMENT_3D('',#995,#793,#794);
#654=AXIS2_PLACEMENT_3D('',#996,#795,#796);
#655=AXIS2_PLACEMENT_3D('',#999,#797,#798);
#656=AXIS2_PLACEMENT_3D('',#1000,#799,#800);
#657=AXIS2_PLACEMENT_3D('',#1001,#801,#802);
#658=AXIS2_PLACEMENT_3D('',#1019,#803,#804);
#659=AXIS2_PLACEMENT_3D('',#1020,#805,#806);
#660=AXIS2_PLACEMENT_3D('',#1021,#807,#808);
#661=AXIS2_PLACEMENT_3D('',#1022,#809,#810);
#662=AXIS2_PLACEMENT_3D('',#1025,#811,#812);
#663=AXIS2_PLACEMENT_3D('',#1039,#815,#816);
#664=AXIS2_PLACEMENT_3D('',#1040,#817,#818);
#665=AXIS2_PLACEMENT_3D('',#1041,#819,#820);
#666=AXIS2_PLACEMENT_3D('',#1042,#821,#822);
#667=AXIS2_PLACEMENT_3D('',#1045,#823,#824);
#668=AXIS2_PLACEMENT_3D('',#1046,#825,#826);
#669=AXIS2_PLACEMENT_3D('',#1047,#827,#828);
#670=AXIS2_PLACEMENT_3D('',#1059,#829,#830);
#671=AXIS2_PLACEMENT_3D('',#1060,#831,#832);
#672=AXIS2_PLACEMENT_3D('',#1061,#833,#834);
#673=AXIS2_PLACEMENT_3D('',#1062,#835,#836);
#674=AXIS2_PLACEMENT_3D('',#1065,#839,#840);
#675=AXIS2_PLACEMENT_3D('',#1068,#843,#844);
#676=AXIS2_PLACEMENT_3D('',#1070,#846,#847);
#677=AXIS2_PLACEMENT_3D('',#1072,#849,#850);
#678=AXIS2_PLACEMENT_3D('',#1073,#851,#852);
#679=AXIS2_PLACEMENT_3D('',#1076,#855,#856);
#680=AXIS2_PLACEMENT_3D('',#1078,#858,#859);
#681=AXIS2_PLACEMENT_3D('',#1080,#861,#862);
#682=AXIS2_PLACEMENT_3D('',#1081,#863,#864);
#683=AXIS2_PLACEMENT_3D('',#1082,#865,#866);
#684=AXIS2_PLACEMENT_3D('',#1114,#867,#868);
#685=AXIS2_PLACEMENT_3D('',#1115,#869,#870);
#686=AXIS2_PLACEMENT_3D('',#1118,#872,#873);
#687=AXIS2_PLACEMENT_3D('',#1135,#874,#875);
#688=DIRECTION('axis',(0.,0.,1.));
#689=DIRECTION('refdir',(1.,0.,0.));
#690=DIRECTION('center_axis',(-1.,9.60456868809073E-17,-2.97231367894044E-14));
#691=DIRECTION('ref_axis',(-2.97231367894044E-14,1.4791141972894E-30,1.));
#692=DIRECTION('',(2.97231367894044E-14,3.11353538529418E-29,-1.));
#693=DIRECTION('',(9.60456868809007E-17,1.,2.22044604925062E-16));
#694=DIRECTION('',(-2.97231367894044E-14,1.4791141972894E-30,1.));
#695=DIRECTION('',(9.60456868809007E-17,1.,2.22044604925062E-16));
#696=DIRECTION('center_axis',(-5.55111512312715E-16,1.,2.2204460492506E-16));
#697=DIRECTION('ref_axis',(4.99600361081315E-16,-2.22044604925059E-16,1.));
#698=DIRECTION('center_axis',(5.55111512312715E-16,-1.,-2.2204460492506E-16));
#699=DIRECTION('ref_axis',(1.,-2.99862608757559E-17,5.77354720487843E-30));
#700=DIRECTION('center_axis',(5.55111512312715E-16,-1.,-2.2204460492506E-16));
#701=DIRECTION('ref_axis',(-0.806946584785903,-5.8548270309372E-31,0.590624423218654));
#702=DIRECTION('center_axis',(-5.55111512312715E-16,1.,2.2204460492506E-16));
#703=DIRECTION('ref_axis',(1.,5.55111512312709E-16,5.90151624171025E-30));
#704=DIRECTION('center_axis',(5.55111512312715E-16,-1.,-2.2204460492506E-16));
#705=DIRECTION('ref_axis',(-0.806946584785903,-1.26341004351803E-30,-0.590624423218654));
#706=DIRECTION('',(-5.91645678915759E-30,-2.2204460492506E-16,1.));
#707=DIRECTION('center_axis',(-5.55111512312715E-16,1.,2.2204460492506E-16));
#708=DIRECTION('ref_axis',(0.669495968674112,1.14015052707724E-30,0.742815689070386));
#709=DIRECTION('center_axis',(5.55111512312715E-16,-1.,-2.2204460492506E-16));
#710=DIRECTION('ref_axis',(1.,5.5511151231271E-16,5.97236832238846E-30));
#711=DIRECTION('center_axis',(-5.55111512312715E-16,1.,2.2204460492506E-16));
#712=DIRECTION('ref_axis',(0.669495968674112,4.62223186652937E-31,-0.742815689070386));
#713=DIRECTION('',(-5.91645678915759E-30,-2.2204460492506E-16,1.));
#714=DIRECTION('center_axis',(2.4465781418331E-28,-1.,9.36772324949952E-31));
#715=DIRECTION('ref_axis',(1.,2.44633162280022E-28,5.91645678915759E-30));
#716=DIRECTION('center_axis',(-2.4465781418331E-28,1.,-9.36772324949952E-31));
#717=DIRECTION('ref_axis',(1.,5.55111512312709E-16,5.88787487230175E-30));
#718=DIRECTION('center_axis',(-2.4465781418331E-28,1.,-9.36772324949952E-31));
#719=DIRECTION('ref_axis',(-0.442820428209983,-6.16297582203915E-32,0.896610321354783));
#720=DIRECTION('center_axis',(2.4465781418331E-28,-1.,9.36772324949952E-31));
#721=DIRECTION('ref_axis',(1.,5.5511151231271E-16,5.94878715412567E-30));
#722=DIRECTION('center_axis',(-2.4465781418331E-28,1.,-9.36772324949952E-31));
#723=DIRECTION('ref_axis',(-0.990612554997341,-1.22778033954686E-30,-0.136699546018409));
#724=DIRECTION('',(-0.593570565759536,-1.45914615562599E-28,-0.804781947774616));
#725=DIRECTION('center_axis',(-2.4465781418331E-28,1.,-9.36772324949952E-31));
#726=DIRECTION('ref_axis',(-0.136848920303203,3.46667389989702E-31,0.990591930621206));
#727=DIRECTION('center_axis',(2.4465781418331E-28,-1.,9.36772324949952E-31));
#728=DIRECTION('ref_axis',(1.,2.44513220510195E-28,5.8301685181726E-30));
#729=DIRECTION('center_axis',(-2.4465781418331E-28,1.,-9.36772324949952E-31));
#730=DIRECTION('ref_axis',(-0.136848920303169,-6.93334779979405E-31,-0.99059193062121));
#731=DIRECTION('',(0.593570565759564,1.4443550136531E-28,-0.804781947774595));
#732=DIRECTION('center_axis',(-2.4465781418331E-28,1.,-9.36772324949952E-31));
#733=DIRECTION('ref_axis',(-0.990612554997341,-1.01592804566427E-30,0.136699546018409));
#734=DIRECTION('center_axis',(2.4465781418331E-28,-1.,9.36772324949952E-31));
#735=DIRECTION('ref_axis',(1.,5.5511151231271E-16,5.94878715412567E-30));
#736=DIRECTION('center_axis',(1.61660075691605E-17,-1.,-2.20861329421784E-16));
#737=DIRECTION('ref_axis',(9.86076131526265E-32,2.20861329421784E-16,-1.));
#738=DIRECTION('center_axis',(1.61660075691605E-17,-1.,-2.20861329421784E-16));
#739=DIRECTION('ref_axis',(1.,-9.60456868809007E-17,5.81946569425337E-30));
#740=DIRECTION('center_axis',(5.55111512312715E-16,-1.,-2.2204460492506E-16));
#741=DIRECTION('ref_axis',(-0.8966103213548,-1.27881748307312E-30,-0.442820428209948));
#742=DIRECTION('center_axis',(5.55111512312715E-16,-1.,-2.2204460492506E-16));
#743=DIRECTION('ref_axis',(1.,5.55111512312709E-16,5.88787487230175E-30));
#744=DIRECTION('center_axis',(5.55111512312715E-16,-1.,-2.2204460492506E-16));
#745=DIRECTION('ref_axis',(1.,5.55111512312709E-16,5.88787487230175E-30));
#746=DIRECTION('',(-0.989342001768727,-1.1339875512552E-30,-0.145610451329046));
#747=DIRECTION('center_axis',(-5.55111512312715E-16,1.,2.2204460492506E-16));
#748=DIRECTION('ref_axis',(-0.806946584785903,-5.8548270309372E-31,0.590624423218654));
#749=DIRECTION('',(-5.91645678915759E-30,-2.2204460492506E-16,1.));
#750=DIRECTION('center_axis',(5.55111512312715E-16,-1.,-2.2204460492506E-16));
#751=DIRECTION('ref_axis',(0.669495968674112,4.62223186652937E-31,-0.742815689070386));
#752=DIRECTION('center_axis',(5.55111512312715E-16,-1.,-2.2204460492506E-16));
#753=DIRECTION('ref_axis',(1.,5.5511151231271E-16,5.97236832238846E-30));
#754=DIRECTION('center_axis',(5.55111512312715E-16,-1.,-2.2204460492506E-16));
#755=DIRECTION('ref_axis',(0.669495968674112,1.14015052707724E-30,0.742815689070386));
#756=DIRECTION('',(-5.91645678915759E-30,-2.2204460492506E-16,1.));
#757=DIRECTION('center_axis',(-5.55111512312715E-16,1.,2.2204460492506E-16));
#758=DIRECTION('ref_axis',(-0.806946584785903,-1.26341004351803E-30,-0.590624423218654));
#759=DIRECTION('center_axis',(-5.55111512312715E-16,1.,2.2204460492506E-16));
#760=DIRECTION('ref_axis',(1.,5.55111512312709E-16,5.90151624171025E-30));
#761=DIRECTION('center_axis',(5.55111512312709E-16,-1.,-2.22044604925062E-16));
#762=DIRECTION('ref_axis',(-0.806946584785903,-5.8548270309372E-31,0.590624423218654));
#763=DIRECTION('',(-5.55111512312709E-16,1.,2.22044604925062E-16));
#764=DIRECTION('',(5.5511151231271E-16,-1.,-2.22044604925062E-16));
#765=DIRECTION('center_axis',(5.55111512312709E-16,-1.,-2.22044604925062E-16));
#766=DIRECTION('ref_axis',(1.,5.55111512312709E-16,5.90151624171025E-30));
#767=DIRECTION('',(5.55111512312709E-16,-1.,-2.22044604925062E-16));
#768=DIRECTION('center_axis',(-5.55111512312709E-16,1.,2.22044604925062E-16));
#769=DIRECTION('ref_axis',(-0.806946584785903,-1.26341004351803E-30,-0.590624423218654));
#770=DIRECTION('',(-5.5511151231271E-16,1.,2.22044604925062E-16));
#771=DIRECTION('center_axis',(1.,5.5511151231271E-16,6.01506440231022E-30));
#772=DIRECTION('ref_axis',(-5.91645678915759E-30,-2.22044604925059E-16,
1.));
#773=DIRECTION('',(5.5511151231271E-16,-1.,-2.22044604925062E-16));
#774=DIRECTION('center_axis',(5.5511151231271E-16,-1.,-2.22044604925062E-16));
#775=DIRECTION('ref_axis',(0.669495968674112,1.14015052707724E-30,0.742815689070386));
#776=DIRECTION('',(-5.5511151231271E-16,1.,2.22044604925062E-16));
#777=DIRECTION('center_axis',(5.5511151231271E-16,-1.,-2.22044604925062E-16));
#778=DIRECTION('ref_axis',(0.669495968674112,4.62223186652937E-31,-0.742815689070386));
#779=DIRECTION('',(5.5511151231271E-16,-1.,-2.22044604925062E-16));
#780=DIRECTION('',(-5.5511151231271E-16,1.,2.22044604925062E-16));
#781=DIRECTION('center_axis',(-5.5511151231271E-16,1.,2.22044604925062E-16));
#782=DIRECTION('ref_axis',(-1.,-5.55111512312711E-16,3.67517835871523E-15));
#783=DIRECTION('center_axis',(5.5511151231271E-16,-1.,-2.22044604925062E-16));
#784=DIRECTION('ref_axis',(-0.8966103213548,-1.27881748307312E-30,-0.442820428209948));
#785=DIRECTION('',(5.5511151231271E-16,-1.,-2.22044604925062E-16));
#786=DIRECTION('',(-5.55111512312709E-16,1.,2.22044604925062E-16));
#787=DIRECTION('center_axis',(0.593570565759592,1.10933564796705E-30,0.804781947774574));
#788=DIRECTION('ref_axis',(-0.804781947774574,-6.16297582203837E-31,0.593570565759592));
#789=DIRECTION('center_axis',(-5.55111512312715E-16,1.,2.2204460492506E-16));
#790=DIRECTION('ref_axis',(-0.136848920303133,-2.95922004984574E-16,0.990591930621215));
#791=DIRECTION('center_axis',(-0.789533022748674,-5.66993775627602E-31,
0.613708078804037));
#792=DIRECTION('ref_axis',(1.24081246550385E-30,-1.,4.87902252578081E-31));
#793=DIRECTION('center_axis',(5.55111512312715E-16,-1.,-2.2204460492506E-16));
#794=DIRECTION('ref_axis',(-0.136848920303134,-3.46944695195386E-16,0.990591930621215));
#795=DIRECTION('center_axis',(5.55111512312715E-16,-1.,-2.2204460492506E-16));
#796=DIRECTION('ref_axis',(0.,0.,-1.));
#797=DIRECTION('center_axis',(0.789533022748527,1.15863945454336E-30,0.613708078804226));
#798=DIRECTION('ref_axis',(1.24081246550385E-30,-1.,4.87902252578081E-31));
#799=DIRECTION('center_axis',(5.55111512312715E-16,-1.,-2.2204460492506E-16));
#800=DIRECTION('ref_axis',(1.,5.55562633394111E-16,1.75085991270025E-14));
#801=DIRECTION('center_axis',(-5.55111512312715E-16,1.,2.2204460492506E-16));
#802=DIRECTION('ref_axis',(1.,5.55111512312711E-16,1.75085991270025E-14));
#803=DIRECTION('center_axis',(0.593570565759592,2.95822839457879E-31,-0.804781947774574));
#804=DIRECTION('ref_axis',(1.24081246550385E-30,-1.,4.87902252578081E-31));
#805=DIRECTION('center_axis',(5.55111512312715E-16,-1.,-2.2204460492506E-16));
#806=DIRECTION('ref_axis',(-0.136848920303221,1.73472347597691E-16,-0.990591930621203));
#807=DIRECTION('center_axis',(-5.55111512312715E-16,1.,2.2204460492506E-16));
#808=DIRECTION('ref_axis',(-0.136848920303221,1.43989182768854E-16,-0.990591930621203));
#809=DIRECTION('center_axis',(0.593570565759564,5.08195344067535E-16,-0.804781947774595));
#810=DIRECTION('ref_axis',(-0.569066772647888,-0.70710678118655,-0.419717772161382));
#811=DIRECTION('center_axis',(0.593570565759439,2.46519032881566E-31,-0.804781947774687));
#812=DIRECTION('ref_axis',(1.24081246550385E-30,-1.,4.87902252578081E-31));
#813=DIRECTION('',(0.593570565759564,5.08195344067535E-16,-0.804781947774595));
#814=DIRECTION('',(-0.593570565759564,-5.08195344067535E-16,0.804781947774595));
#815=DIRECTION('center_axis',(-0.789347903063801,-1.18329135783152E-30,
-0.613946160447951));
#816=DIRECTION('ref_axis',(1.24081246550385E-30,-1.,4.87902252578081E-31));
#817=DIRECTION('center_axis',(5.55111512312715E-16,-1.,-2.2204460492506E-16));
#818=DIRECTION('ref_axis',(-0.990612554997335,-5.20417042793059E-16,0.136699546018453));
#819=DIRECTION('center_axis',(-5.55111512312715E-16,1.,2.2204460492506E-16));
#820=DIRECTION('ref_axis',(-0.990612554997336,-5.80253830209635E-16,0.136699546018453));
#821=DIRECTION('center_axis',(5.55111512312715E-16,-1.,-2.2204460492506E-16));
#822=DIRECTION('ref_axis',(0.,0.,-1.));
#823=DIRECTION('center_axis',(0.78934790306389,6.40949485492072E-31,-0.613946160447836));
#824=DIRECTION('ref_axis',(1.24081246550385E-30,-1.,4.87902252578081E-31));
#825=DIRECTION('center_axis',(-5.55111512312715E-16,1.,2.2204460492506E-16));
#826=DIRECTION('ref_axis',(1.,5.5511151231258E-16,1.3982257974394E-14));
#827=DIRECTION('center_axis',(5.55111512312715E-16,-1.,-2.2204460492506E-16));
#828=DIRECTION('ref_axis',(1.,5.55111512312712E-16,1.3982257974394E-14));
#829=DIRECTION('center_axis',(-0.593570565759592,-1.10933564796705E-30,
-0.804781947774574));
#830=DIRECTION('ref_axis',(1.24081246550385E-30,-1.,4.87902252578081E-31));
#831=DIRECTION('center_axis',(5.55111512312715E-16,-1.,-2.2204460492506E-16));
#832=DIRECTION('ref_axis',(-0.990612554997336,-5.20417042793059E-16,-0.136699546018452));
#833=DIRECTION('center_axis',(-5.55111512312715E-16,1.,2.2204460492506E-16));
#834=DIRECTION('ref_axis',(-0.990612554997336,-5.19547036831431E-16,-0.136699546018452));
#835=DIRECTION('center_axis',(-0.593570565759536,-1.50800364778655E-16,
-0.804781947774616));
#836=DIRECTION('ref_axis',(-0.569066772647888,-0.70710678118655,0.419717772161382));
#837=DIRECTION('',(0.593570565759536,1.50800364778655E-16,0.804781947774616));
#838=DIRECTION('',(-0.593570565759536,-1.50800364778655E-16,-0.804781947774616));
#839=DIRECTION('center_axis',(-5.5511151231271E-16,1.,2.22044604925062E-16));
#840=DIRECTION('ref_axis',(-0.990612554997341,-1.22778033954686E-30,-0.136699546018409));
#841=DIRECTION('',(-5.55111512312709E-16,1.,2.22044604925061E-16));
#842=DIRECTION('',(5.5511151231271E-16,-1.,-2.22044604925062E-16));
#843=DIRECTION('center_axis',(0.804781947774616,5.78542865880356E-16,-0.593570565759536));
#844=DIRECTION('ref_axis',(-0.593570565759536,-1.46013223175752E-28,-0.804781947774616));
#845=DIRECTION('',(5.55111512312709E-16,-1.,-2.22044604925062E-16));
#846=DIRECTION('center_axis',(5.55111512312709E-16,-1.,-2.22044604925062E-16));
#847=DIRECTION('ref_axis',(-0.136848920303203,3.46667389989702E-31,0.990591930621206));
#848=DIRECTION('',(-5.55111512312709E-16,1.,2.22044604925062E-16));
#849=DIRECTION('center_axis',(5.55111512312715E-16,-1.,-2.2204460492506E-16));
#850=DIRECTION('ref_axis',(-4.99600361081314E-16,2.22044604925059E-16,-1.));
#851=DIRECTION('center_axis',(5.5511151231271E-16,-1.,-2.22044604925062E-16));
#852=DIRECTION('ref_axis',(-0.990612554997341,-1.01592804566427E-30,0.136699546018409));
#853=DIRECTION('',(-5.5511151231271E-16,1.,2.22044604925062E-16));
#854=DIRECTION('',(5.55111512312709E-16,-1.,-2.22044604925062E-16));
#855=DIRECTION('center_axis',(0.804781947774595,3.14944582341895E-16,0.593570565759564));
#856=DIRECTION('ref_axis',(0.593570565759564,1.44460153268598E-28,-0.804781947774595));
#857=DIRECTION('',(-5.55111512312709E-16,1.,2.22044604925062E-16));
#858=DIRECTION('center_axis',(-5.55111512312709E-16,1.,2.22044604925062E-16));
#859=DIRECTION('ref_axis',(-0.136848920303169,-6.93334779979405E-31,-0.99059193062121));
#860=DIRECTION('',(5.55111512312709E-16,-1.,-2.22044604925062E-16));
#861=DIRECTION('center_axis',(-5.55111512312709E-16,1.,2.22044604925062E-16));
#862=DIRECTION('ref_axis',(1.,5.55111512312708E-16,5.95163036230119E-30));
#863=DIRECTION('center_axis',(1.,5.5511151231271E-16,6.01506440231022E-30));
#864=DIRECTION('ref_axis',(-5.91645678915759E-30,-2.22044604925059E-16,
1.));
#865=DIRECTION('center_axis',(2.99862608757559E-17,1.,2.22044604925062E-16));
#866=DIRECTION('ref_axis',(1.,-2.99862608757559E-17,5.75480496431722E-30));
#867=DIRECTION('center_axis',(2.43474522825479E-28,-1.,4.43734259186819E-31));
#868=DIRECTION('ref_axis',(1.,-2.99862608757559E-17,5.75480496431722E-30));
#869=DIRECTION('center_axis',(2.99862608757559E-17,1.,2.22044604925062E-16));
#870=DIRECTION('ref_axis',(1.,-2.99862608757559E-17,5.77354720487843E-30));
#871=DIRECTION('',(-2.99862608757559E-17,-1.,-2.22044604925062E-16));
#872=DIRECTION('center_axis',(-2.43474522825479E-28,1.,-4.43734259186819E-31));
#873=DIRECTION('ref_axis',(1.,-2.99862608757559E-17,5.77354720487843E-30));
#874=DIRECTION('center_axis',(2.43474522825479E-28,-1.,4.43734259186819E-31));
#875=DIRECTION('ref_axis',(1.,2.43449870922191E-28,5.81784917600496E-30));
#876=DIRECTION('',(-0.841470984807889,1.28721510101465E-16,-0.540302305868151));
#877=CARTESIAN_POINT('',(0.,0.,0.));
#878=CARTESIAN_POINT('Origin',(228.834814302275,440.980152326005,567.598232020819));
#879=CARTESIAN_POINT('',(228.834814302275,441.180152326005,569.988769536406));
#880=CARTESIAN_POINT('',(228.834814302275,441.180152326005,567.598232020819));
#881=CARTESIAN_POINT('',(228.834814302275,441.180152326005,567.598232020819));
#882=CARTESIAN_POINT('',(228.834814302275,440.980152326005,567.598232020819));
#883=CARTESIAN_POINT('',(228.834814302275,440.980152326005,567.598232020819));
#884=CARTESIAN_POINT('',(228.834814302275,440.980152326005,569.988769536406));
#885=CARTESIAN_POINT('',(228.834814302275,440.980152326005,571.295866399715));
#886=CARTESIAN_POINT('',(228.834814302275,440.980152326005,569.988769536406));
#887=CARTESIAN_POINT('Origin',(219.957737080576,465.780152326007,573.763769536406));
#888=CARTESIAN_POINT('',(202.707737080576,465.780152326007,582.388769536406));
#889=CARTESIAN_POINT('Origin',(219.957737080576,465.780152326007,582.388769536406));
#890=CARTESIAN_POINT('',(220.456574289879,465.780152326007,580.815981744421));
#891=CARTESIAN_POINT('',(220.107737080576,465.780152326007,580.339379383214));
#892=CARTESIAN_POINT('Origin',(220.607737080576,465.780152326007,580.339379383214));
#893=CARTESIAN_POINT('',(220.456574289879,465.780152326007,583.96155732839));
#894=CARTESIAN_POINT('Origin',(219.957737080576,465.780152326007,582.388769536406));
#895=CARTESIAN_POINT('',(220.107737080576,465.780152326007,584.438159689598));
#896=CARTESIAN_POINT('Origin',(220.607737080576,465.780152326007,584.438159689598));
#897=CARTESIAN_POINT('',(220.107737080576,465.780152326007,585.750599395277));
#898=CARTESIAN_POINT('',(220.107737080576,465.780152326007,583.213769536406));
#899=CARTESIAN_POINT('',(219.555961932647,465.780152326007,586.247911504578));
#900=CARTESIAN_POINT('Origin',(219.607737080576,465.780152326007,585.750599395277));
#901=CARTESIAN_POINT('',(219.555961932647,465.780152326007,578.529627568234));
#902=CARTESIAN_POINT('Origin',(219.957737080576,465.780152326007,582.388769536406));
#903=CARTESIAN_POINT('',(220.107737080576,465.780152326007,579.026939677534));
#904=CARTESIAN_POINT('Origin',(219.607737080576,465.780152326007,579.026939677534));
#905=CARTESIAN_POINT('',(220.107737080576,465.780152326007,580.523769536406));
#906=CARTESIAN_POINT('Origin',(220.46433464234,440.980152326005,582.388769536406));
#907=CARTESIAN_POINT('',(230.442634438995,440.980152326005,596.086558678579));
#908=CARTESIAN_POINT('Origin',(219.957737080576,440.980152326005,582.388769536406));
#909=CARTESIAN_POINT('',(229.226994165555,440.980152326005,594.49840921282));
#910=CARTESIAN_POINT('Origin',(229.834814302275,440.980152326005,595.292483945699));
#911=CARTESIAN_POINT('',(229.320416027407,440.980152326005,594.426325058129));
#912=CARTESIAN_POINT('Origin',(219.957737080576,440.980152326005,582.388769536406));
#913=CARTESIAN_POINT('',(229.244081712476,440.980152326005,594.979492445659));
#914=CARTESIAN_POINT('Origin',(229.565994491586,440.980152326005,594.742064219355));
#915=CARTESIAN_POINT('',(229.354999396602,440.980152326005,595.129878187511));
#916=CARTESIAN_POINT('',(219.957737080576,440.980152326005,582.388769536406));
#917=CARTESIAN_POINT('',(229.922395407234,440.980152326005,595.208263170307));
#918=CARTESIAN_POINT('Origin',(229.676912175712,440.980152326005,594.892449961207));
#919=CARTESIAN_POINT('',(229.922395407234,440.980152326005,569.569275902506));
#920=CARTESIAN_POINT('Origin',(219.957737080576,440.980152326005,582.388769536406));
#921=CARTESIAN_POINT('',(229.354999396603,440.980152326005,569.647660885301));
#922=CARTESIAN_POINT('Origin',(229.676912175713,440.980152326005,569.885089111605));
#923=CARTESIAN_POINT('',(229.244081712477,440.980152326005,569.798046627153));
#924=CARTESIAN_POINT('',(219.957737080576,440.980152326005,582.388769536406));
#925=CARTESIAN_POINT('',(229.320416027407,440.980152326005,570.351214014683));
#926=CARTESIAN_POINT('Origin',(229.565994491587,440.980152326005,570.035474853457));
#927=CARTESIAN_POINT('Origin',(219.957737080576,440.980152326005,582.388769536406));
#928=CARTESIAN_POINT('Origin',(202.753761095338,462.980152326005,581.129519640894));
#929=CARTESIAN_POINT('',(204.870271553603,462.980152326005,580.168210153638));
#930=CARTESIAN_POINT('',(229.226994165555,462.980152326007,594.49840921282));
#931=CARTESIAN_POINT('Origin',(219.957737080576,462.980152326005,582.388769536406));
#932=CARTESIAN_POINT('',(230.442634438995,462.980152326007,596.086558678579));
#933=CARTESIAN_POINT('Origin',(229.834814302275,462.980152326007,595.292483945699));
#934=CARTESIAN_POINT('',(202.707737080576,462.980152326007,582.388769536406));
#935=CARTESIAN_POINT('Origin',(219.957737080576,462.980152326007,582.388769536406));
#936=CARTESIAN_POINT('',(202.891587550066,462.980152326005,579.87698925098));
#937=CARTESIAN_POINT('Origin',(219.957737080576,462.980152326007,582.388769536406));
#938=CARTESIAN_POINT('',(202.891587550066,462.980152326005,579.87698925098));
#939=CARTESIAN_POINT('',(220.107737080576,462.980152326007,580.339379383214));
#940=CARTESIAN_POINT('',(220.456574289879,462.980152326007,580.815981744421));
#941=CARTESIAN_POINT('Origin',(220.607737080576,462.980152326007,580.339379383214));
#942=CARTESIAN_POINT('',(220.107737080576,462.980152326007,579.026939677534));
#943=CARTESIAN_POINT('',(220.107737080576,462.980152326007,580.523769536406));
#944=CARTESIAN_POINT('',(219.555961932647,462.980152326007,578.529627568234));
#945=CARTESIAN_POINT('Origin',(219.607737080576,462.980152326007,579.026939677534));
#946=CARTESIAN_POINT('',(219.555961932647,462.980152326007,586.247911504578));
#947=CARTESIAN_POINT('Origin',(219.957737080576,462.980152326007,582.388769536406));
#948=CARTESIAN_POINT('',(220.107737080576,462.980152326007,585.750599395277));
#949=CARTESIAN_POINT('Origin',(219.607737080576,462.980152326007,585.750599395277));
#950=CARTESIAN_POINT('',(220.107737080576,462.980152326007,584.438159689598));
#951=CARTESIAN_POINT('',(220.107737080576,462.980152326007,583.213769536406));
#952=CARTESIAN_POINT('',(220.456574289879,462.980152326007,583.96155732839));
#953=CARTESIAN_POINT('Origin',(220.607737080576,462.980152326007,584.438159689598));
#954=CARTESIAN_POINT('Origin',(219.957737080576,462.980152326007,582.388769536406));
#955=CARTESIAN_POINT('Origin',(220.607737080576,465.780152326007,580.339379383214));
#956=CARTESIAN_POINT('',(220.456574289879,465.780152326007,580.815981744421));
#957=CARTESIAN_POINT('',(220.107737080576,465.780152326007,580.339379383214));
#958=CARTESIAN_POINT('Origin',(219.957737080576,465.780152326007,582.388769536406));
#959=CARTESIAN_POINT('',(220.456574289879,465.780152326007,583.96155732839));
#960=CARTESIAN_POINT('Origin',(220.607737080576,465.780152326007,584.438159689598));
#961=CARTESIAN_POINT('',(220.107737080576,465.780152326007,584.438159689598));
#962=CARTESIAN_POINT('Origin',(220.107737080576,465.780152326007,584.038769536406));
#963=CARTESIAN_POINT('',(220.107737080576,465.780152326007,585.750599395277));
#964=CARTESIAN_POINT('Origin',(219.607737080576,465.780152326007,585.750599395277));
#965=CARTESIAN_POINT('',(219.555961932647,465.780152326007,586.247911504578));
#966=CARTESIAN_POINT('Origin',(219.607737080576,465.780152326007,579.026939677534));
#967=CARTESIAN_POINT('',(219.555961932647,465.780152326007,578.529627568234));
#968=CARTESIAN_POINT('',(220.107737080576,465.780152326007,579.026939677534));
#969=CARTESIAN_POINT('Origin',(219.957737080576,465.780152326007,582.388769536406));
#970=CARTESIAN_POINT('Origin',(229.834814302275,465.780152326007,595.292483945699));
#971=CARTESIAN_POINT('',(229.226994165555,465.780152326007,594.49840921282));
#972=CARTESIAN_POINT('',(230.442634438995,465.780152326007,596.086558678579));
#973=CARTESIAN_POINT('Ctrl Pts',(229.596433980935,439.580152326007,594.951807017783));
#974=CARTESIAN_POINT('Ctrl Pts',(229.621460793898,439.580152326007,594.985739170833));
#975=CARTESIAN_POINT('Ctrl Pts',(229.663227283682,439.580152326007,594.991509154269));
#976=CARTESIAN_POINT('Ctrl Pts',(229.704993773466,439.580152326007,594.997279137706));
#977=CARTESIAN_POINT('Ctrl Pts',(229.738282983593,439.580152326007,594.971403263482));
#978=CARTESIAN_POINT('Ctrl Pts',(229.354999396602,439.580152326007,595.129878187511));
#979=CARTESIAN_POINT('Ctrl Pts',(229.455106648456,439.580152326007,595.265606799711));
#980=CARTESIAN_POINT('Ctrl Pts',(229.622172607591,439.580152326007,595.288686733456));
#981=CARTESIAN_POINT('Ctrl Pts',(229.789238566726,439.580152326007,595.311766667201));
#982=CARTESIAN_POINT('Ctrl Pts',(229.922395407234,439.580152326007,595.208263170307));
#983=CARTESIAN_POINT('Ctrl Pts',(229.354999396602,439.880152326007,595.129878187511));
#984=CARTESIAN_POINT('Ctrl Pts',(229.455106648456,439.880152326007,595.265606799711));
#985=CARTESIAN_POINT('Ctrl Pts',(229.622172607591,439.880152326007,595.288686733456));
#986=CARTESIAN_POINT('Ctrl Pts',(229.789238566726,439.880152326007,595.311766667201));
#987=CARTESIAN_POINT('Ctrl Pts',(229.922395407234,439.880152326007,595.208263170307));
#988=CARTESIAN_POINT('',(229.354999396602,439.880152326007,595.129878187511));
#989=CARTESIAN_POINT('',(229.596433980935,439.580152326007,594.951807017783));
#990=CARTESIAN_POINT('Origin',(229.596433980935,439.880152326007,594.951807017783));
#991=CARTESIAN_POINT('',(229.738282983593,439.580152326007,594.971403263482));
#992=CARTESIAN_POINT('Origin',(229.676912175712,439.580152326007,594.892449961207));
#993=CARTESIAN_POINT('',(229.922395407234,439.880152326007,595.208263170307));
#994=CARTESIAN_POINT('Origin',(229.738282983593,439.880152326007,594.971403263482));
#995=CARTESIAN_POINT('Origin',(229.676912175712,439.880152326007,594.892449961207));
#996=CARTESIAN_POINT('Origin',(219.957737080576,439.880152326007,582.388769536406));
#997=CARTESIAN_POINT('',(229.738282983593,439.580152326007,569.80613580933));
#998=CARTESIAN_POINT('',(229.922395407234,439.880152326007,569.569275902506));
#999=CARTESIAN_POINT('Origin',(229.738282983593,439.880152326007,569.80613580933));
#1000=CARTESIAN_POINT('Origin',(219.957737080576,439.880152326007,582.388769536406));
#1001=CARTESIAN_POINT('Origin',(219.957737080576,439.580152326007,582.388769536406));
#1002=CARTESIAN_POINT('Ctrl Pts',(229.738282983593,439.580152326007,569.80613580933));
#1003=CARTESIAN_POINT('Ctrl Pts',(229.704993773466,439.580152326007,569.780259935107));
#1004=CARTESIAN_POINT('Ctrl Pts',(229.663227283682,439.580152326007,569.786029918543));
#1005=CARTESIAN_POINT('Ctrl Pts',(229.621460793898,439.580152326007,569.791799901979));
#1006=CARTESIAN_POINT('Ctrl Pts',(229.596433980935,439.580152326007,569.825732055029));
#1007=CARTESIAN_POINT('Ctrl Pts',(229.922395407234,439.580152326007,569.569275902506));
#1008=CARTESIAN_POINT('Ctrl Pts',(229.789238566726,439.580152326007,569.465772405611));
#1009=CARTESIAN_POINT('Ctrl Pts',(229.622172607591,439.580152326007,569.488852339356));
#1010=CARTESIAN_POINT('Ctrl Pts',(229.455106648456,439.580152326007,569.511932273101));
#1011=CARTESIAN_POINT('Ctrl Pts',(229.354999396603,439.580152326007,569.647660885301));
#1012=CARTESIAN_POINT('Ctrl Pts',(229.922395407234,439.880152326007,569.569275902506));
#1013=CARTESIAN_POINT('Ctrl Pts',(229.789238566726,439.880152326007,569.465772405611));
#1014=CARTESIAN_POINT('Ctrl Pts',(229.622172607591,439.880152326007,569.488852339356));
#1015=CARTESIAN_POINT('Ctrl Pts',(229.455106648456,439.880152326007,569.511932273101));
#1016=CARTESIAN_POINT('Ctrl Pts',(229.354999396602,439.880152326007,569.647660885301));
#1017=CARTESIAN_POINT('',(229.596433980935,439.580152326007,569.825732055029));
#1018=CARTESIAN_POINT('',(229.354999396603,439.880152326007,569.647660885301));
#1019=CARTESIAN_POINT('Origin',(229.596433980935,439.880152326007,569.825732055029));
#1020=CARTESIAN_POINT('Origin',(229.676912175713,439.880152326007,569.885089111605));
#1021=CARTESIAN_POINT('Origin',(229.676912175713,439.580152326007,569.885089111605));
#1022=CARTESIAN_POINT('Origin',(227.026459489139,439.880152326007,573.310185625587));
#1023=CARTESIAN_POINT('',(229.485516296809,439.580152326007,569.976117796881));
#1024=CARTESIAN_POINT('',(229.244081712477,439.880152326007,569.798046627153));
#1025=CARTESIAN_POINT('Origin',(229.485516296809,439.880152326007,569.976117796881));
#1026=CARTESIAN_POINT('',(226.785024904806,439.880152326007,573.132114455859));
#1027=CARTESIAN_POINT('',(227.026459489139,439.580152326007,573.310185625587));
#1028=CARTESIAN_POINT('Ctrl Pts',(229.485516296809,439.580152326007,569.976117796881));
#1029=CARTESIAN_POINT('Ctrl Pts',(229.42765745175,439.580152326007,570.05456466859));
#1030=CARTESIAN_POINT('Ctrl Pts',(229.504599875542,439.580152326007,570.114409643764));
#1031=CARTESIAN_POINT('Ctrl Pts',(229.244081712477,439.580152326007,569.798046627153));
#1032=CARTESIAN_POINT('Ctrl Pts',(229.012646332242,439.580152326007,570.111834113988));
#1033=CARTESIAN_POINT('Ctrl Pts',(229.320416027408,439.580152326007,570.351214014683));
#1034=CARTESIAN_POINT('Ctrl Pts',(229.244081712477,439.880152326007,569.798046627153));
#1035=CARTESIAN_POINT('Ctrl Pts',(229.012646332242,439.880152326007,570.111834113988));
#1036=CARTESIAN_POINT('Ctrl Pts',(229.320416027408,439.880152326007,570.351214014683));
#1037=CARTESIAN_POINT('',(229.504599875542,439.580152326007,570.114409643764));
#1038=CARTESIAN_POINT('',(229.320416027407,439.880152326007,570.351214014683));
#1039=CARTESIAN_POINT('Origin',(229.504599875542,439.880152326007,570.114409643764));
#1040=CARTESIAN_POINT('Origin',(229.565994491587,439.880152326007,570.035474853457));
#1041=CARTESIAN_POINT('Origin',(229.565994491587,439.580152326007,570.035474853457));
#1042=CARTESIAN_POINT('Origin',(219.957737080576,439.880152326007,582.388769536406));
#1043=CARTESIAN_POINT('',(229.504599875541,439.580152326007,594.663129429048));
#1044=CARTESIAN_POINT('',(229.320416027407,439.880152326007,594.426325058129));
#1045=CARTESIAN_POINT('Origin',(229.504599875541,439.880152326007,594.663129429048));
#1046=CARTESIAN_POINT('Origin',(219.957737080576,439.880152326007,582.388769536406));
#1047=CARTESIAN_POINT('Origin',(219.957737080576,439.580152326007,582.388769536406));
#1048=CARTESIAN_POINT('Ctrl Pts',(229.504599875541,439.580152326007,594.663129429048));
#1049=CARTESIAN_POINT('Ctrl Pts',(229.42765745175,439.580152326007,594.722974404222));
#1050=CARTESIAN_POINT('Ctrl Pts',(229.485516296809,439.580152326007,594.801421275931));
#1051=CARTESIAN_POINT('Ctrl Pts',(229.320416027407,439.580152326007,594.426325058129));
#1052=CARTESIAN_POINT('Ctrl Pts',(229.012646332242,439.580152326007,594.665704958824));
#1053=CARTESIAN_POINT('Ctrl Pts',(229.244081712476,439.580152326007,594.979492445659));
#1054=CARTESIAN_POINT('Ctrl Pts',(229.320416027407,439.880152326007,594.426325058129));
#1055=CARTESIAN_POINT('Ctrl Pts',(229.012646332242,439.880152326007,594.665704958824));
#1056=CARTESIAN_POINT('Ctrl Pts',(229.244081712476,439.880152326007,594.979492445659));
#1057=CARTESIAN_POINT('',(229.485516296809,439.580152326007,594.801421275931));
#1058=CARTESIAN_POINT('',(229.244081712476,439.880152326007,594.979492445659));
#1059=CARTESIAN_POINT('Origin',(229.485516296809,439.880152326007,594.801421275931));
#1060=CARTESIAN_POINT('Origin',(229.565994491586,439.880152326007,594.742064219355));
#1061=CARTESIAN_POINT('Origin',(229.565994491586,439.580152326007,594.742064219355));
#1062=CARTESIAN_POINT('Origin',(227.319328653549,439.880152326007,591.864434822506));
#1063=CARTESIAN_POINT('',(227.319328653549,439.580152326007,591.864434822506));
#1064=CARTESIAN_POINT('',(227.077894069217,439.880152326007,592.042505992234));
#1065=CARTESIAN_POINT('Origin',(229.565994491586,465.780152326007,594.742064219355));
#1066=CARTESIAN_POINT('',(229.244081712476,465.780152326007,594.979492445659));
#1067=CARTESIAN_POINT('',(229.320416027407,465.780152326007,594.426325058129));
#1068=CARTESIAN_POINT('Origin',(229.595426537231,438.180152326005,595.45585699053));
#1069=CARTESIAN_POINT('',(229.354999396602,438.180152326005,595.129878187511));
#1070=CARTESIAN_POINT('Origin',(229.676912175712,438.180152326005,594.892449961207));
#1071=CARTESIAN_POINT('',(229.922395407234,438.180152326005,595.208263170307));
#1072=CARTESIAN_POINT('Origin',(233.021275691426,439.580152326007,582.388769536406));
#1073=CARTESIAN_POINT('Origin',(229.565994491586,465.780152326007,570.035474853457));
#1074=CARTESIAN_POINT('',(229.320416027407,465.780152326007,570.351214014683));
#1075=CARTESIAN_POINT('',(229.244081712477,465.780152326007,569.798046627153));
#1076=CARTESIAN_POINT('Origin',(229.00968820841,438.180152326005,570.115844832843));
#1077=CARTESIAN_POINT('',(229.354999396603,438.180152326005,569.647660885301));
#1078=CARTESIAN_POINT('Origin',(229.676912175713,438.180152326005,569.885089111605));
#1079=CARTESIAN_POINT('',(229.922395407234,438.180152326005,569.569275902506));
#1080=CARTESIAN_POINT('Origin',(219.957737080576,438.180152326005,582.388769536406));
#1081=CARTESIAN_POINT('Origin',(220.107737080576,465.780152326007,578.658769536406));
#1082=CARTESIAN_POINT('Origin',(219.957737080576,438.180152326005,582.388769536406));
#1083=CARTESIAN_POINT('',(207.125304562256,449.680358415963,574.149159371917));
#1084=CARTESIAN_POINT('Ctrl Pts',(204.870271553603,462.980152326005,580.168210153638));
#1085=CARTESIAN_POINT('Ctrl Pts',(204.895274657127,462.081388366358,579.998327976468));
#1086=CARTESIAN_POINT('Ctrl Pts',(204.944978675122,461.020448160223,579.68692171647));
#1087=CARTESIAN_POINT('Ctrl Pts',(205.037708519742,459.815570909386,579.243163980674));
#1088=CARTESIAN_POINT('Ctrl Pts',(205.084073442052,459.213132283968,579.021285112775));
#1089=CARTESIAN_POINT('Ctrl Pts',(205.141194821019,458.574709397375,578.766318375927));
#1090=CARTESIAN_POINT('Ctrl Pts',(205.216823305885,457.905718071909,578.481206848332));
#1091=CARTESIAN_POINT('Ctrl Pts',(205.519337245352,455.229752770047,577.340760737952));
#1092=CARTESIAN_POINT('Ctrl Pts',(206.117964879221,452.064692446233,575.717997975627));
#1093=CARTESIAN_POINT('Ctrl Pts',(207.125304562256,449.680358415963,574.149159371917));
#1094=CARTESIAN_POINT('',(225.974253679632,441.180152326005,568.375774566976));
#1095=CARTESIAN_POINT('Ctrl Pts',(207.125304562256,449.680358415963,574.149159371917));
#1096=CARTESIAN_POINT('Ctrl Pts',(207.535536751178,448.709354707055,573.510260591988));
#1097=CARTESIAN_POINT('Ctrl Pts',(208.008136589113,447.867607734058,572.879254800925));
#1098=CARTESIAN_POINT('Ctrl Pts',(208.553868789014,447.159356738215,572.264111069678));
#1099=CARTESIAN_POINT('Ctrl Pts',(209.099600988915,446.451105742371,571.648967338431));
#1100=CARTESIAN_POINT('Ctrl Pts',(209.718465550781,445.876350723682,571.049685667002));
#1101=CARTESIAN_POINT('Ctrl Pts',(210.434014085725,445.385720464955,570.478079264996));
#1102=CARTESIAN_POINT('Ctrl Pts',(211.14956262067,444.895090206229,569.906472862991));
#1103=CARTESIAN_POINT('Ctrl Pts',(211.961795128693,444.488584707466,569.36254173041));
#1104=CARTESIAN_POINT('Ctrl Pts',(212.877972839012,444.124361214824,568.881900147432));
#1105=CARTESIAN_POINT('Ctrl Pts',(213.79415054933,443.760137722183,568.401258564455));
#1106=CARTESIAN_POINT('Ctrl Pts',(214.814273461944,443.438196235661,567.983906531081));
#1107=CARTESIAN_POINT('Ctrl Pts',(215.896810037979,443.143392420739,567.686147645134));
#1108=CARTESIAN_POINT('Ctrl Pts',(218.061883190049,442.553784790894,567.090629873241));
#1109=CARTESIAN_POINT('Ctrl Pts',(220.476610995803,442.072727847445,566.973484691055));
#1110=CARTESIAN_POINT('Ctrl Pts',(222.731701672325,441.68712900265,567.387662148676));
#1111=CARTESIAN_POINT('Ctrl Pts',(223.859247010585,441.494329580252,567.594750877487));
#1112=CARTESIAN_POINT('Ctrl Pts',(224.946883066538,441.325394682517,567.93467026625));
#1113=CARTESIAN_POINT('Ctrl Pts',(225.974253679631,441.180152326006,568.375774566975));
#1114=CARTESIAN_POINT('Origin',(219.957737080576,441.180152326005,582.388769536406));
#1115=CARTESIAN_POINT('Origin',(219.957737080576,438.180152326005,582.388769536406));
#1116=CARTESIAN_POINT('',(202.707737080576,438.180152326005,582.388769536406));
#1117=CARTESIAN_POINT('',(226.763305036885,441.180152326005,566.538004734919));
#1118=CARTESIAN_POINT('Origin',(219.957737080576,441.180152326005,582.388769536406));
#1119=CARTESIAN_POINT('',(205.44236259264,449.680358415963,573.06855476018));
#1120=CARTESIAN_POINT('Ctrl Pts',(226.763305036885,441.180152326005,566.538004734919));
#1121=CARTESIAN_POINT('Ctrl Pts',(225.601197294206,441.325394682517,566.039050689836));
#1122=CARTESIAN_POINT('Ctrl Pts',(221.910366743677,441.832199375721,564.885553747641));
#1123=CARTESIAN_POINT('Ctrl Pts',(216.447539904431,442.794313262619,565.150570717177));
#1124=CARTESIAN_POINT('Ctrl Pts',(211.831901808013,444.082079208704,567.038917622277));
#1125=CARTESIAN_POINT('Ctrl Pts',(209.075637395541,445.301595704992,568.884716711529));
#1126=CARTESIAN_POINT('Ctrl Pts',(206.975556013472,447.025860761061,570.918344678511));
#1127=CARTESIAN_POINT('Ctrl Pts',(205.906395724371,448.709354707055,572.345865976327));
#1128=CARTESIAN_POINT('Ctrl Pts',(205.44236259264,449.680358415963,573.06855476018));
#1129=CARTESIAN_POINT('Ctrl Pts',(205.44236259264,449.680358415963,573.06855476018));
#1130=CARTESIAN_POINT('Ctrl Pts',(204.30291278724,452.064692446233,574.843142688967));
#1131=CARTESIAN_POINT('Ctrl Pts',(203.45649256722,456.021017851001,577.137622824223));
#1132=CARTESIAN_POINT('Ctrl Pts',(203.004203615732,460.489978057155,579.156457806153));
#1133=CARTESIAN_POINT('Ctrl Pts',(202.919869749134,462.081388366358,579.684827444017));
#1134=CARTESIAN_POINT('Ctrl Pts',(202.891587550066,462.980152326005,579.87698925098));
#1135=CARTESIAN_POINT('Origin',(219.957737080576,441.180152326005,582.388769536406));
#1136=CARTESIAN_POINT('Ctrl Pts',(226.763305036885,441.180152326005,566.538004734918));
#1137=CARTESIAN_POINT('Ctrl Pts',(226.631796477342,441.180152326005,566.844299706928));
#1138=CARTESIAN_POINT('Ctrl Pts',(226.500287917801,441.180152326005,567.150594678938));
#1139=CARTESIAN_POINT('Ctrl Pts',(226.237270798717,441.180152326005,567.763184622957));
#1140=CARTESIAN_POINT('Ctrl Pts',(226.105762239174,441.180152326005,568.069479594966));
#1141=CARTESIAN_POINT('Ctrl Pts',(225.974253679632,441.180152326005,568.375774566976));
#1142=CARTESIAN_POINT('Ctrl Pts',(225.974253679632,441.180152326005,568.375774566976));
#1143=CARTESIAN_POINT('Ctrl Pts',(226.237270798717,441.180152326005,567.763184622957));
#1144=CARTESIAN_POINT('Ctrl Pts',(226.500287917801,441.180152326005,567.150594678938));
#1145=CARTESIAN_POINT('Ctrl Pts',(226.763305036885,441.180152326005,566.538004734919));
#1146=CARTESIAN_POINT('Ctrl Pts',(224.946883066538,441.325394682517,567.93467026625));
#1147=CARTESIAN_POINT('Ctrl Pts',(225.164823536269,441.325394682517,567.303138417509));
#1148=CARTESIAN_POINT('Ctrl Pts',(225.383256824475,441.325394682517,566.670582538577));
#1149=CARTESIAN_POINT('Ctrl Pts',(225.601197294206,441.325394682517,566.039050689836));
#1150=CARTESIAN_POINT('Ctrl Pts',(221.68397489868,441.832199375721,566.914912099962));
#1151=CARTESIAN_POINT('Ctrl Pts',(221.759516167452,441.832199375721,566.238289207222));
#1152=CARTESIAN_POINT('Ctrl Pts',(221.834825474904,441.832199375721,565.562176640381));
#1153=CARTESIAN_POINT('Ctrl Pts',(221.910366743677,441.832199375721,564.885553747641));
#1154=CARTESIAN_POINT('Ctrl Pts',(216.854519287172,442.794313262619,567.149202464334));
#1155=CARTESIAN_POINT('Ctrl Pts',(216.718866669561,442.794313262619,566.48298876866));
#1156=CARTESIAN_POINT('Ctrl Pts',(216.583192522042,442.794313262619,565.816784412851));
#1157=CARTESIAN_POINT('Ctrl Pts',(216.447539904431,442.794313262619,565.150570717177));
#1158=CARTESIAN_POINT('Ctrl Pts',(212.774027636717,444.082079208704,568.818610597829));
#1159=CARTESIAN_POINT('Ctrl Pts',(212.459895721779,444.082079208704,568.225500737193));
#1160=CARTESIAN_POINT('Ctrl Pts',(212.146033722951,444.082079208704,567.632027482914));
#1161=CARTESIAN_POINT('Ctrl Pts',(211.831901808013,444.082079208704,567.038917622277));
#1162=CARTESIAN_POINT('Ctrl Pts',(210.337330112647,445.301595704992,570.450403995573));
#1163=CARTESIAN_POINT('Ctrl Pts',(209.91680200797,445.301595704992,569.92841832542));
#1164=CARTESIAN_POINT('Ctrl Pts',(209.496165500218,445.301595704992,569.406702381681));
#1165=CARTESIAN_POINT('Ctrl Pts',(209.075637395541,445.301595704992,568.884716711529));
#1166=CARTESIAN_POINT('Ctrl Pts',(208.480736427049,447.025860761061,572.248249009861));
#1167=CARTESIAN_POINT('Ctrl Pts',(207.978946157515,447.025860761061,571.805078907151));
#1168=CARTESIAN_POINT('Ctrl Pts',(207.477346283006,447.025860761061,571.361514781221));
#1169=CARTESIAN_POINT('Ctrl Pts',(206.975556013472,447.025860761061,570.918344678511));
#1170=CARTESIAN_POINT('Ctrl Pts',(207.535536751178,448.709354707055,573.510260591989));
#1171=CARTESIAN_POINT('Ctrl Pts',(206.992541446662,448.709354707055,573.122012134554));
#1172=CARTESIAN_POINT('Ctrl Pts',(206.449391028887,448.709354707055,572.734114433762));
#1173=CARTESIAN_POINT('Ctrl Pts',(205.906395724371,448.709354707055,572.345865976327));
#1174=CARTESIAN_POINT('Ctrl Pts',(207.125304562257,449.680358415963,574.149159371917));
#1175=CARTESIAN_POINT('Ctrl Pts',(206.564323905718,449.680358415963,573.788957834671));
#1176=CARTESIAN_POINT('Ctrl Pts',(206.003343249179,449.680358415963,573.428756297426));
#1177=CARTESIAN_POINT('Ctrl Pts',(205.44236259264,449.680358415963,573.06855476018));
#1178=CARTESIAN_POINT('',(205.44236259264,449.680358415963,573.06855476018));
#1179=CARTESIAN_POINT('Ctrl Pts',(207.125304562257,449.680358415963,574.149159371917));
#1180=CARTESIAN_POINT('Ctrl Pts',(206.564323905718,449.680358415963,573.788957834671));
#1181=CARTESIAN_POINT('Ctrl Pts',(206.003343249179,449.680358415963,573.428756297426));
#1182=CARTESIAN_POINT('Ctrl Pts',(205.44236259264,449.680358415963,573.06855476018));
#1183=CARTESIAN_POINT('Ctrl Pts',(206.117964879222,452.064692446233,575.717997975627));
#1184=CARTESIAN_POINT('Ctrl Pts',(205.512529442038,452.064692446233,575.426264266048));
#1185=CARTESIAN_POINT('Ctrl Pts',(204.908348224424,452.064692446233,575.134876398546));
#1186=CARTESIAN_POINT('Ctrl Pts',(204.30291278724,452.064692446233,574.843142688967));
#1187=CARTESIAN_POINT('Ctrl Pts',(205.369680336885,456.021017851001,577.746451428534));
#1188=CARTESIAN_POINT('Ctrl Pts',(204.731947551197,456.021017851001,577.543585096691));
#1189=CARTESIAN_POINT('Ctrl Pts',(204.094225352908,456.021017851001,577.340489156066));
#1190=CARTESIAN_POINT('Ctrl Pts',(203.45649256722,456.021017851001,577.137622824223));
#1191=CARTESIAN_POINT('Ctrl Pts',(204.96983068412,460.489978057155,579.531218586472));
#1192=CARTESIAN_POINT('Ctrl Pts',(204.314544196662,460.489978057155,579.406282295605));
#1193=CARTESIAN_POINT('Ctrl Pts',(203.65949010319,460.489978057155,579.28139409702));
#1194=CARTESIAN_POINT('Ctrl Pts',(203.004203615732,460.489978057155,579.156457806153));
#1195=CARTESIAN_POINT('Ctrl Pts',(204.895274657128,462.081388366358,579.998327976468));
#1196=CARTESIAN_POINT('Ctrl Pts',(204.23671909312,462.081388366358,579.893921749703));
#1197=CARTESIAN_POINT('Ctrl Pts',(203.578425313141,462.081388366358,579.789233670782));
#1198=CARTESIAN_POINT('Ctrl Pts',(202.919869749134,462.081388366358,579.684827444017));
#1199=CARTESIAN_POINT('Ctrl Pts',(204.870271553604,462.980152326005,580.168210153638));
#1200=CARTESIAN_POINT('Ctrl Pts',(204.210710219091,462.980152326005,580.071136519419));
#1201=CARTESIAN_POINT('Ctrl Pts',(203.551148884579,462.980152326005,579.974062885199));
#1202=CARTESIAN_POINT('Ctrl Pts',(202.891587550066,462.980152326005,579.87698925098));
#1203=UNCERTAINTY_MEASURE_WITH_UNIT(LENGTH_MEASURE(0.01),#1207,
'DISTANCE_ACCURACY_VALUE',
'Maximum model space distance between geometric entities at asserted c
onnectivities');
#1204=UNCERTAINTY_MEASURE_WITH_UNIT(LENGTH_MEASURE(0.01),#1207,
'DISTANCE_ACCURACY_VALUE',
'Maximum model space distance between geometric entities at asserted c
onnectivities');
#1205=(
GEOMETRIC_REPRESENTATION_CONTEXT(3)
GLOBAL_UNCERTAINTY_ASSIGNED_CONTEXT((#1203))
GLOBAL_UNIT_ASSIGNED_CONTEXT((#1207,#1209,#1210))
REPRESENTATION_CONTEXT('','3D')
);
#1206=(
GEOMETRIC_REPRESENTATION_CONTEXT(3)
GLOBAL_UNCERTAINTY_ASSIGNED_CONTEXT((#1204))
GLOBAL_UNIT_ASSIGNED_CONTEXT((#1207,#1209,#1210))
REPRESENTATION_CONTEXT('','3D')
);
#1207=(
LENGTH_UNIT()
NAMED_UNIT(*)
SI_UNIT(.MILLI.,.METRE.)
);
#1208=(
LENGTH_UNIT()
NAMED_UNIT(*)
SI_UNIT($,.METRE.)
);
#1209=(
NAMED_UNIT(*)
PLANE_ANGLE_UNIT()
SI_UNIT($,.RADIAN.)
);
#1210=(
NAMED_UNIT(*)
SI_UNIT($,.STERADIAN.)
SOLID_ANGLE_UNIT()
);
#1211=SHAPE_DEFINITION_REPRESENTATION(#1212,#1213);
#1212=PRODUCT_DEFINITION_SHAPE('',$,#1215);
#1213=SHAPE_REPRESENTATION('',(#611),#1205);
#1214=PRODUCT_DEFINITION_CONTEXT('part definition',#1219,'design');
#1215=PRODUCT_DEFINITION(
'CPAP valve 3-way - Valve - A - v2 - curved-valve-side -',
'CPAP valve 3-way - Valve - A - v2 - curved-valve-side - v1',#1216,#1214);
#1216=PRODUCT_DEFINITION_FORMATION('',$,#1221);
#1217=PRODUCT_RELATED_PRODUCT_CATEGORY(
'CPAP valve 3-way - Valve - A - v2 - curved-valve-side - v1',
'CPAP valve 3-way - Valve - A - v2 - curved-valve-side - v1',(#1221));
#1218=APPLICATION_PROTOCOL_DEFINITION('international standard',
'automotive_design',2009,#1219);
#1219=APPLICATION_CONTEXT(
'Core Data for Automotive Mechanical Design Process');
#1220=PRODUCT_CONTEXT('part definition',#1219,'mechanical');
#1221=PRODUCT('CPAP valve 3-way - Valve - A - v2 - curved-valve-side -',
'CPAP valve 3-way - Valve - A - v2 - curved-valve-side - v1',$,(#1220));
#1222=PRESENTATION_STYLE_ASSIGNMENT((#1223));
#1223=SURFACE_STYLE_USAGE(.BOTH.,#1224);
#1224=SURFACE_SIDE_STYLE('',(#1225));
#1225=SURFACE_STYLE_FILL_AREA(#1226);
#1226=FILL_AREA_STYLE('Steel - Satin',(#1227));
#1227=FILL_AREA_STYLE_COLOUR('Steel - Satin',#1228);
#1228=COLOUR_RGB('Steel - Satin',0.627450980392157,0.627450980392157,0.627450980392157);
ENDSEC;
END-ISO-10303-21;
