0
SECTION
2
HEADER
9
$INSUNITS
70
4
9
$ACADVER
1
AC1014
9
$HANDSEED
5
FFFF
0
ENDSEC
0
SECTION
2
TABLES
0
TABLE
2
VPORT
5
8
100
AcDbSymbolTable
0
ENDTAB
0
TABLE
2
LTYPE
5
5
100
AcDbSymbolTable
0
LTYPE
5
14
100
AcDbSymbolTableRecord
100
AcDbLinetypeTableRecord
2
BYBLOCK
70
0
0
LTYPE
5
15
100
AcDbSymbolTableRecord
100
AcDbLinetypeTableRecord
2
BYLAYER
70
0
0
ENDTAB
0
TABLE
2
LAYER
5
2
100
AcDbSymbolTable
70
2
0
LAYER
5
50
100
AcDbSymbolTableRecord
100
AcDbLayerTableRecord
2
0
70
0
6
CONTINUOUS
0
ENDTAB
0
TABLE
2
STYLE
5
3
100
AcDbSymbolTable
70
1
0
STYLE
5
11
100
AcDbSymbolTableRecord
100
AcDbTextStyleTableRecord
2
STANDARD
70
0
0
ENDTAB
0
TABLE
2
VIEW
5
6
100
AcDbSymbolTable
70
0
0
ENDTAB
0
TABLE
2
UCS
5
7
100
AcDbSymbolTable
70
0
0
ENDTAB
0
TABLE
2
APPID
5
9
100
AcDbSymbolTable
70
2
0
APPID
5
12
100
AcDbSymbolTableRecord
100
AcDbRegAppTableRecord
2
ACAD
70
0
0
ENDTAB
0
TABLE
2
DIMSTYLE
5
A
100
AcDbSymbolTable
70
1
0
ENDTAB
0
TABLE
2
BLOCK_RECORD
5
1
100
AcDbSymbolTable
70
1
0
BLOCK_RECORD
5
1F
100
AcDbSymbolTableRecord
100
AcDbBlockTableRecord
2
*MODEL_SPACE
0
BLOCK_RECORD
5
1B
100
AcDbSymbolTableRecord
100
AcDbBlockTableRecord
2
*PAPER_SPACE
0
ENDTAB
0
ENDSEC
0
SECTION
2
BLOCKS
0
BLOCK
5
20
100
AcDbEntity
100
AcDbBlockBegin
2
*MODEL_SPACE
0
ENDBLK
5
21
100
AcDbEntity
100
AcDbBlockEnd
0
BLOCK
5
1C
100
AcDbEntity
100
AcDbBlockBegin
2
*PAPER_SPACE
0
ENDBLK
5
1D
100
AcDbEntity
100
AcDbBlockEnd
0
ENDSEC
0
SECTION
2
ENTITIES
0
LWPOLYLINE
5
100
100
AcDbEntity
8
0
100
AcDbPolyline
90
8
70
1
43
0.0
10
87.999847673999938
20
731.9040000000183
42
0.41421356237309503
10
77.999847673999938
20
741.9040000000183
10
-412.00015232600009
20
741.9040000000183
42
0.41421356237309503
10
-422.00015232600009
20
731.9040000000183
10
-422.00015232600009
20
-48.095999999981494
42
0.41421356237309503
10
-412.00015232600009
20
-58.095999999981494
10
77.999847673999938
20
-58.095999999981494
42
0.41421356237309503
10
87.999847673999938
20
-48.095999999981494
0
CIRCLE
5
101
100
AcDbEntity
8
0
100
AcDbCircle
10
-412.00015232600009
20
731.9040000000183
30
-1.7763568394002505e-13
40
2.5499999999999545
210
-1.3448145744954005e-28
220
0
230
1
0
CIRCLE
5
102
100
AcDbEntity
8
0
100
AcDbCircle
10
-248.66681899266666
20
731.9040000000183
30
-1.7763568394002505e-13
40
2.5499999999999901
210
-1.3448145744954005e-28
220
0
230
1
0
CIRCLE
5
103
100
AcDbEntity
8
0
100
AcDbCircle
10
-85.333485659333348
20
731.9040000000183
30
-1.7763568394002505e-13
40
2.5499999999999901
210
-1.3448145744954005e-28
220
0
230
1
0
CIRCLE
5
104
100
AcDbEntity
8
0
100
AcDbCircle
10
77.999847673999938
20
731.9040000000183
30
-1.7763568394002505e-13
40
2.5499999999999901
210
-1.3448145744954005e-28
220
0
230
1
0
CIRCLE
5
105
100
AcDbEntity
8
0
100
AcDbCircle
10
-412.00015232600003
20
536.90400000001841
30
-1.0658141036401503e-13
40
2.5499999999999545
210
-1.3448145744954005e-28
220
0
230
1
0
CIRCLE
5
106
100
AcDbEntity
8
0
100
AcDbCircle
10
77.999847674000023
20
536.90400000001841
30
-1.0658141036401503e-13
40
2.5499999999999901
210
-1.3448145744954005e-28
220
0
230
1
0
CIRCLE
5
107
100
AcDbEntity
8
0
100
AcDbCircle
10
-412.00015232600003
20
341.90400000001836
30
-1.7763568394002505e-14
40
2.5499999999999545
210
-1.3448145744954005e-28
220
0
230
1
0
CIRCLE
5
108
100
AcDbEntity
8
0
100
AcDbCircle
10
77.999847674000023
20
341.90400000001836
30
-1.7763568394002505e-14
40
2.5499999999999901
210
-1.3448145744954005e-28
220
0
230
1
0
CIRCLE
5
109
100
AcDbEntity
8
0
100
AcDbCircle
10
-412.00015232600003
20
146.90400000001836
30
7.1054273576010019e-14
40
2.5499999999999545
210
-1.3448145744954005e-28
220
0
230
1
0
CIRCLE
5
110
100
AcDbEntity
8
0
100
AcDbCircle
10
77.999847674000023
20
146.90400000001836
30
7.1054273576010019e-14
40
2.5499999999999901
210
-1.3448145744954005e-28
220
0
230
1
0
CIRCLE
5
111
100
AcDbEntity
8
0
100
AcDbCircle
10
-412.00015232600009
20
-48.095999999981494
30
1.4210854715202004e-13
40
2.5499999999999545
210
-1.3448145744954005e-28
220
0
230
1
0
CIRCLE
5
112
100
AcDbEntity
8
0
100
AcDbCircle
10
77.999847673999938
20
-48.095999999981494
30
1.4210854715202004e-13
40
2.5499999999999901
210
-1.3448145744954005e-28
220
0
230
1
0
CIRCLE
5
113
100
AcDbEntity
8
0
100
AcDbCircle
10
-248.66681899266666
20
-48.095999999981636
30
1.4210854715202004e-13
40
2.5499999999999901
210
-1.3448145744954005e-28
220
0
230
1
0
CIRCLE
5
114
100
AcDbEntity
8
0
100
AcDbCircle
10
-85.333485659333348
20
-48.095999999981636
30
1.4210854715202004e-13
40
2.5499999999999901
210
-1.3448145744954005e-28
220
0
230
1
0
LWPOLYLINE
5
115
100
AcDbEntity
8
0
100
AcDbPolyline
90
8
70
1
43
0.0
10
87.999847673999938
20
731.9040000000183
42
0.41421356237310203
10
77.999847673999938
20
741.9040000000183
10
-412.00015232600009
20
741.9040000000183
42
0.41421356237310336
10
-422.00015232600009
20
731.9040000000183
10
-422.00015232600009
20
-48.095999999981558
42
0.41421356237309243
10
-412.00015232600009
20
-58.095999999981473
10
77.999847673999909
20
-58.095999999981494
42
0.41421356237309581
10
87.999847673999938
20
-48.095999999981494
0
CIRCLE
5
116
100
AcDbEntity
8
0
100
AcDbCircle
10
-412.00015232600003
20
731.9040000000183
30
0
40
2.5499999999999545
210
2.331016792867138e-59
220
1.3051165800102608e-102
230
1
0
CIRCLE
5
117
100
AcDbEntity
8
0
100
AcDbCircle
10
-248.66681899266666
20
731.9040000000183
30
0
40
2.5499999999999901
210
2.331016792867138e-59
220
1.3051165800102608e-102
230
1
0
CIRCLE
5
118
100
AcDbEntity
8
0
100
AcDbCircle
10
-85.333485659333348
20
731.9040000000183
30
0
40
2.5499999999999901
210
2.331016792867138e-59
220
1.3051165800102608e-102
230
1
0
CIRCLE
5
119
100
AcDbEntity
8
0
100
AcDbCircle
10
77.999847674000023
20
731.9040000000183
30
0
40
2.5499999999999901
210
2.331016792867138e-59
220
1.3051165800102608e-102
230
1
0
CIRCLE
5
120
100
AcDbEntity
8
0
100
AcDbCircle
10
-412.00015232600003
20
536.90400000001841
30
0
40
2.5499999999999545
210
2.331016792867138e-59
220
1.3051165800102608e-102
230
1
0
CIRCLE
5
121
100
AcDbEntity
8
0
100
AcDbCircle
10
77.999847674000023
20
536.90400000001841
30
0
40
2.5499999999999901
210
2.331016792867138e-59
220
1.3051165800102608e-102
230
1
0
CIRCLE
5
122
100
AcDbEntity
8
0
100
AcDbCircle
10
-412.00015232600003
20
341.90400000001836
30
0
40
2.5499999999999545
210
2.331016792867138e-59
220
1.3051165800102608e-102
230
1
0
CIRCLE
5
123
100
AcDbEntity
8
0
100
AcDbCircle
10
77.999847674000023
20
341.90400000001836
30
0
40
2.5499999999999901
210
2.331016792867138e-59
220
1.3051165800102608e-102
230
1
0
CIRCLE
5
124
100
AcDbEntity
8
0
100
AcDbCircle
10
-412.00015232600003
20
146.90400000001836
30
0
40
2.5499999999999545
210
2.331016792867138e-59
220
1.3051165800102608e-102
230
1
0
CIRCLE
5
125
100
AcDbEntity
8
0
100
AcDbCircle
10
77.999847674000023
20
146.90400000001836
30
0
40
2.5499999999999901
210
2.331016792867138e-59
220
1.3051165800102608e-102
230
1
0
CIRCLE
5
126
100
AcDbEntity
8
0
100
AcDbCircle
10
-412.00015232600003
20
-48.095999999981636
30
0
40
2.5499999999999545
210
2.331016792867138e-59
220
1.3051165800102608e-102
230
1
0
CIRCLE
5
127
100
AcDbEntity
8
0
100
AcDbCircle
10
77.999847674000023
20
-48.095999999981636
30
0
40
2.5499999999999901
210
2.331016792867138e-59
220
1.3051165800102608e-102
230
1
0
CIRCLE
5
128
100
AcDbEntity
8
0
100
AcDbCircle
10
-248.66681899266666
20
-48.095999999981636
30
0
40
2.5499999999999901
210
2.331016792867138e-59
220
1.3051165800102608e-102
230
1
0
CIRCLE
5
129
100
AcDbEntity
8
0
100
AcDbCircle
10
-85.333485659333348
20
-48.095999999981636
30
0
40
2.5499999999999901
210
2.331016792867138e-59
220
1.3051165800102608e-102
230
1
0
ENDSEC
0
SECTION
2
OBJECTS
0
DICTIONARY
5
C
100
AcDbDictionary
3
ACAD_GROUP
350
D
3
ACAD_MLINESTYLE
350
17
0
DICTIONARY
5
D
100
AcDbDictionary
0
DICTIONARY
5
1A
330
C
100
AcDbDictionary
0
DICTIONARY
5
17
100
AcDbDictionary
0
ENDSEC
0
EOF
