0
SECTION
2
HEADER
9
$INSUNITS
70
4
9
$ACADVER
1
AC1014
9
$HANDSEED
5
FFFF
0
ENDSEC
0
SECTION
2
TABLES
0
TABLE
2
VPORT
5
8
100
AcDbSymbolTable
0
ENDTAB
0
TABLE
2
LTYPE
5
5
100
AcDbSymbolTable
0
LTYPE
5
14
100
AcDbSymbolTableRecord
100
AcDbLinetypeTableRecord
2
BYBLOCK
70
0
0
LTYPE
5
15
100
AcDbSymbolTableRecord
100
AcDbLinetypeTableRecord
2
BYLAYER
70
0
0
ENDTAB
0
TABLE
2
LAYER
5
2
100
AcDbSymbolTable
70
2
0
LAYER
5
50
100
AcDbSymbolTableRecord
100
AcDbLayerTableRecord
2
0
70
0
6
CONTINUOUS
0
ENDTAB
0
TABLE
2
STYLE
5
3
100
AcDbSymbolTable
70
1
0
STYLE
5
11
100
AcDbSymbolTableRecord
100
AcDbTextStyleTableRecord
2
STANDARD
70
0
0
ENDTAB
0
TABLE
2
VIEW
5
6
100
AcDbSymbolTable
70
0
0
ENDTAB
0
TABLE
2
UCS
5
7
100
AcDbSymbolTable
70
0
0
ENDTAB
0
TABLE
2
APPID
5
9
100
AcDbSymbolTable
70
2
0
APPID
5
12
100
AcDbSymbolTableRecord
100
AcDbRegAppTableRecord
2
ACAD
70
0
0
ENDTAB
0
TABLE
2
DIMSTYLE
5
A
100
AcDbSymbolTable
70
1
0
ENDTAB
0
TABLE
2
BLOCK_RECORD
5
1
100
AcDbSymbolTable
70
1
0
BLOCK_RECORD
5
1F
100
AcDbSymbolTableRecord
100
AcDbBlockTableRecord
2
*MODEL_SPACE
0
BLOCK_RECORD
5
1B
100
AcDbSymbolTableRecord
100
AcDbBlockTableRecord
2
*PAPER_SPACE
0
ENDTAB
0
ENDSEC
0
SECTION
2
BLOCKS
0
BLOCK
5
20
100
AcDbEntity
100
AcDbBlockBegin
2
*MODEL_SPACE
0
ENDBLK
5
21
100
AcDbEntity
100
AcDbBlockEnd
0
BLOCK
5
1C
100
AcDbEntity
100
AcDbBlockBegin
2
*PAPER_SPACE
0
ENDBLK
5
1D
100
AcDbEntity
100
AcDbBlockEnd
0
ENDSEC
0
SECTION
2
ENTITIES
0
LWPOLYLINE
5
100
100
AcDbEntity
8
0
100
AcDbPolyline
90
32
70
1
43
0.0
10
-85.00000493229561
20
-401.50008392335315
10
114.00000762938771
20
-401.50008392335315
42
0.41421356237309681
10
117.00000762938772
20
-398.50008392335315
10
117.00000762938774
20
-385.00008392335315
42
-0.41421356237309503
10
120.00000762938771
20
-382.0000839233532
10
134.00000762938771
20
-382.0000839233532
42
-0.41421356237309503
10
137.00000762938771
20
-385.00008392335315
10
137.00000762938771
20
-398.50008392335315
42
0.41421356237309503
10
140.00000762938771
20
-401.50008392335309
10
339.00002019107069
20
-401.50008392335315
42
0.41421356237309503
10
342.00002019107069
20
-398.50008392335315
10
342.00002019107075
20
-369.99972729594214
42
-0.41421356237309503
10
345.00002019107069
20
-366.99972729594214
10
358.50000762938373
20
-366.99972729594214
42
0.41421356237309503
10
361.50000762938367
20
-363.99972729594208
10
361.50000762938367
20
29.999560996828528
42
0.41421356237309725
10
358.50000762938373
20
32.999560996828549
10
345.00002019106864
20
32.999560996828578
42
-0.41421356237309503
10
342.0000201910687
20
35.999560996828549
10
342.0000201910687
20
64.499916076647153
42
0.41421356237309503
10
339.0000201910687
20
67.499916076647153
10
-85.000004932295482
20
67.499916076647253
42
0.41421356237309681
10
-88.000004932295496
20
64.499916076647253
10
-88.000004932295496
20
35.999559449237452
42
-0.41421356237309503
10
-91.000004932295496
20
32.999559449237459
10
-104.4999923706083
20
32.999559449237452
42
0.41421356237309503
10
-107.49999237060831
20
29.999559449237449
10
-107.49999237060831
20
-363.99973043136816
42
0.41421356237309503
10
-104.4999923706083
20
-366.99973043136816
10
-91.000004932295596
20
-366.99973043136811
42
-0.41421356237309503
10
-88.000004932295596
20
-369.99973043136811
10
-88.000004932295596
20
-398.50008392335315
42
0.41421356237309503
0
LWPOLYLINE
5
101
100
AcDbEntity
8
0
100
AcDbPolyline
90
8
70
1
43
0.0
10
57.000007629385806
20
-101.00008392335315
42
0.41421356237309503
10
55.000007629385806
20
-99.000083923353159
10
49.000007629385898
20
-99.000083923353159
42
0.41421356237309503
10
47.000007629385898
20
-101.00008392335315
10
47.000007629385898
20
-113.00008392335316
42
0.41421356237309503
10
49.000007629385898
20
-115.00008392335316
10
55.000007629385806
20
-115.00008392335316
42
0.41421356237309503
10
57.000007629385905
20
-113.00008392335316
0
LWPOLYLINE
5
102
100
AcDbEntity
8
0
100
AcDbPolyline
90
8
70
1
43
0.0
10
207.00000762938569
20
-101.00008392335315
42
0.41421356237309503
10
205.00000762938569
20
-99.000083923353159
10
199.00000762938572
20
-99.000083923353159
42
0.41421356237309503
10
197.00000762938572
20
-101.00008392335315
10
197.00000762938572
20
-113.00008392335316
42
0.41421356237309503
10
199.00000762938572
20
-115.00008392335316
10
205.00000762938569
20
-115.00008392335316
42
0.41421356237309503
10
207.00000762938572
20
-113.00008392335316
0
LWPOLYLINE
5
103
100
AcDbEntity
8
0
100
AcDbPolyline
90
8
70
1
43
0.0
10
197.00000762938572
20
-233.00008392335317
42
0.41421356237309503
10
199.00000762938572
20
-235.00008392335317
10
205.00000762938569
20
-235.00008392335317
42
0.41421356237309503
10
207.00000762938572
20
-233.00008392335317
10
207.00000762938569
20
-221.00008392335315
42
0.41421356237309503
10
205.00000762938569
20
-219.00008392335315
10
199.00000762938572
20
-219.00008392335315
42
0.41421356237309503
10
197.00000762938572
20
-221.00008392335315
0
LWPOLYLINE
5
104
100
AcDbEntity
8
0
100
AcDbPolyline
90
8
70
1
43
0.0
10
55.000007629385806
20
-235.00008392335317
10
49.000007629385806
20
-235.00008392335317
42
-0.41421356237309503
10
47.000007629385799
20
-233.00008392335317
10
47.000007629385806
20
-221.00008392335315
42
-0.41421356237309503
10
49.000007629385806
20
-219.00008392335315
10
55.000007629385806
20
-219.00008392335315
42
-0.41421356237309503
10
57.000007629385806
20
-221.00008392335315
10
57.000007629385799
20
-233.00008392335317
42
-0.41421356237309503
0
CIRCLE
5
105
100
AcDbEntity
8
0
100
AcDbCircle
10
-127.00000762938572
20
-312.00008392335224
30
3.6664566235603158e-12
40
7.5
210
7.8104189782379586e-14
220
0
230
-1
0
LWPOLYLINE
5
106
100
AcDbEntity
8
0
100
AcDbPolyline
90
32
70
1
43
0.0
10
-85.00000493229561
20
-401.50008392335315
10
114.00000762938771
20
-401.50008392335315
42
0.41421356237310197
10
117.00000762938774
20
-398.50008392335315
10
117.00000762938774
20
-385.00008392335315
42
-0.41421356237309503
10
120.00000762938771
20
-382.0000839233532
10
134.00000762938771
20
-382.0000839233532
42
-0.41421356237309503
10
137.00000762938771
20
-385.00008392335315
10
137.00000762938771
20
-398.50008392335315
42
0.41421356237310025
10
140.00000762938771
20
-401.50008392335309
10
339.00002019107069
20
-401.50008392335315
42
0.41421356237312978
10
342.00002019107075
20
-398.50008392335315
10
342.00002019107075
20
-369.99972729594214
42
-0.41421356237309503
10
345.00002019107069
20
-366.99972729594214
10
358.50000762938373
20
-366.99972729594214
42
0.41421356237312978
10
361.50000762938373
20
-363.99972729594208
10
361.50000762938367
20
29.999560996828549
42
0.41421356237312151
10
358.50000762938373
20
32.999560996828507
10
345.00002019106864
20
32.999560996828578
42
-0.41421356237309503
10
342.0000201910687
20
35.999560996828549
10
342.0000201910687
20
64.499916076647153
42
0.41421356237312101
10
339.0000201910687
20
67.499916076647111
10
-85.000004932295496
20
67.499916076647253
42
0.4142135623730942
10
-88.000004932295496
20
64.499916076647253
10
-88.000004932295482
20
35.999559449237459
42
-0.41421356237309548
10
-91.000004932295496
20
32.999559449237452
10
-104.4999923706083
20
32.999559449237452
42
0.4142135623730942
10
-107.49999237060831
20
29.999559449237449
10
-107.49999237060831
20
-363.99973043136816
42
0.41421356237311413
10
-104.4999923706083
20
-366.99973043136816
10
-91.000004932295596
20
-366.99973043136811
42
-0.41421356237309503
10
-88.000004932295596
20
-369.99973043136811
10
-88.000004932295596
20
-398.50008392335315
42
0.41421356237310025
0
LWPOLYLINE
5
107
100
AcDbEntity
8
0
100
AcDbPolyline
90
8
70
1
43
0.0
10
57.000007629385806
20
-101.00008392335315
42
0.41421356237309503
10
55.000007629385806
20
-99.000083923353159
10
49.000007629385898
20
-99.000083923353159
42
0.41421356237309503
10
47.000007629385898
20
-101.00008392335315
10
47.000007629385898
20
-113.00008392335316
42
0.41421356237309503
10
49.000007629385898
20
-115.00008392335316
10
55.000007629385806
20
-115.00008392335316
42
0.41421356237309503
10
57.000007629385905
20
-113.00008392335316
0
LWPOLYLINE
5
108
100
AcDbEntity
8
0
100
AcDbPolyline
90
8
70
1
43
0.0
10
207.00000762938569
20
-101.00008392335315
42
0.41421356237309503
10
205.00000762938569
20
-99.000083923353159
10
199.00000762938572
20
-99.000083923353159
42
0.41421356237309503
10
197.00000762938572
20
-101.00008392335315
10
197.00000762938572
20
-113.00008392335316
42
0.41421356237309503
10
199.00000762938572
20
-115.00008392335316
10
205.00000762938569
20
-115.00008392335316
42
0.41421356237309503
10
207.00000762938572
20
-113.00008392335316
0
LWPOLYLINE
5
109
100
AcDbEntity
8
0
100
AcDbPolyline
90
8
70
1
43
0.0
10
197.00000762938572
20
-233.00008392335317
42
0.41421356237309503
10
199.00000762938572
20
-235.00008392335317
10
205.00000762938569
20
-235.00008392335317
42
0.41421356237309503
10
207.00000762938572
20
-233.00008392335317
10
207.00000762938569
20
-221.00008392335315
42
0.41421356237309503
10
205.00000762938569
20
-219.00008392335315
10
199.00000762938572
20
-219.00008392335315
42
0.41421356237309503
10
197.00000762938572
20
-221.00008392335315
0
LWPOLYLINE
5
110
100
AcDbEntity
8
0
100
AcDbPolyline
90
8
70
1
43
0.0
10
55.000007629385806
20
-235.00008392335317
10
49.000007629385806
20
-235.00008392335317
42
-0.41421356237309503
10
47.000007629385799
20
-233.00008392335317
10
47.000007629385806
20
-221.00008392335315
42
-0.41421356237309503
10
49.000007629385806
20
-219.00008392335315
10
55.000007629385806
20
-219.00008392335315
42
-0.41421356237309503
10
57.000007629385806
20
-221.00008392335315
10
57.000007629385799
20
-233.00008392335317
42
-0.41421356237309503
0
CIRCLE
5
111
100
AcDbEntity
8
0
100
AcDbCircle
10
127.00000762938572
20
-312.00008392335224
30
0
40
7.5
210
-1.2621774483536189e-29
220
-5.0487097934144756e-29
230
1
0
ENDSEC
0
SECTION
2
OBJECTS
0
DICTIONARY
5
C
100
AcDbDictionary
3
ACAD_GROUP
350
D
3
ACAD_MLINESTYLE
350
17
0
DICTIONARY
5
D
100
AcDbDictionary
0
DICTIONARY
5
1A
330
C
100
AcDbDictionary
0
DICTIONARY
5
17
100
AcDbDictionary
0
ENDSEC
0
EOF
