0
SECTION
2
HEADER
9
$INSUNITS
70
4
9
$ACADVER
1
AC1014
9
$HANDSEED
5
FFFF
0
ENDSEC
0
SECTION
2
TABLES
0
TABLE
2
VPORT
5
8
100
AcDbSymbolTable
0
ENDTAB
0
TABLE
2
LTYPE
5
5
100
AcDbSymbolTable
0
LTYPE
5
14
100
AcDbSymbolTableRecord
100
AcDbLinetypeTableRecord
2
BYBLOCK
70
0
0
LTYPE
5
15
100
AcDbSymbolTableRecord
100
AcDbLinetypeTableRecord
2
BYLAYER
70
0
0
ENDTAB
0
TABLE
2
LAYER
5
2
100
AcDbSymbolTable
70
2
0
LAYER
5
50
100
AcDbSymbolTableRecord
100
AcDbLayerTableRecord
2
0
70
0
6
CONTINUOUS
0
ENDTAB
0
TABLE
2
STYLE
5
3
100
AcDbSymbolTable
70
1
0
STYLE
5
11
100
AcDbSymbolTableRecord
100
AcDbTextStyleTableRecord
2
STANDARD
70
0
0
ENDTAB
0
TABLE
2
VIEW
5
6
100
AcDbSymbolTable
70
0
0
ENDTAB
0
TABLE
2
UCS
5
7
100
AcDbSymbolTable
70
0
0
ENDTAB
0
TABLE
2
APPID
5
9
100
AcDbSymbolTable
70
2
0
APPID
5
12
100
AcDbSymbolTableRecord
100
AcDbRegAppTableRecord
2
ACAD
70
0
0
ENDTAB
0
TABLE
2
DIMSTYLE
5
A
100
AcDbSymbolTable
70
1
0
ENDTAB
0
TABLE
2
BLOCK_RECORD
5
1
100
AcDbSymbolTable
70
1
0
BLOCK_RECORD
5
1F
100
AcDbSymbolTableRecord
100
AcDbBlockTableRecord
2
*MODEL_SPACE
0
BLOCK_RECORD
5
1B
100
AcDbSymbolTableRecord
100
AcDbBlockTableRecord
2
*PAPER_SPACE
0
ENDTAB
0
ENDSEC
0
SECTION
2
BLOCKS
0
BLOCK
5
20
100
AcDbEntity
100
AcDbBlockBegin
2
*MODEL_SPACE
0
ENDBLK
5
21
100
AcDbEntity
100
AcDbBlockEnd
0
BLOCK
5
1C
100
AcDbEntity
100
AcDbBlockBegin
2
*PAPER_SPACE
0
ENDBLK
5
1D
100
AcDbEntity
100
AcDbBlockEnd
0
ENDSEC
0
SECTION
2
ENTITIES
0
LWPOLYLINE
5
100
100
AcDbEntity
8
0
100
AcDbPolyline
90
8
70
1
43
0.0
10
92.000000000013898
20
327.90400000001881
10
162.00000000001387
20
327.90400000001881
42
-0.41421356237309709
10
167.00000000001393
20
322.90400000001881
10
167.00000000001393
20
252.90400000001887
42
-0.41421356237309709
10
162.00000000001387
20
247.90400000001887
10
92.000000000013884
20
247.90400000001884
42
-0.41421356237309503
10
87.000000000013884
20
252.90400000001884
10
87.000000000013898
20
322.90400000001881
42
-0.41421356237309503
0
LWPOLYLINE
5
101
100
AcDbEntity
8
0
100
AcDbPolyline
90
8
70
1
43
0.0
10
92.000000000013898
20
581.90400000001887
10
162.00000000001387
20
581.90400000001887
42
-0.41421356237309709
10
167.00000000001393
20
576.90400000001887
10
167.00000000001393
20
506.90400000001887
42
-0.41421356237309709
10
162.00000000001387
20
501.90400000001887
10
92.000000000013884
20
501.90400000001887
42
-0.41421356237309503
10
87.000000000013884
20
506.90400000001887
10
87.000000000013898
20
576.90400000001887
42
-0.41421356237309503
0
LWPOLYLINE
5
102
100
AcDbEntity
8
0
100
AcDbPolyline
90
8
70
1
43
0.0
10
92.000000000013898
20
73.904000000018868
10
162.00000000001387
20
73.904000000018868
42
-0.41421356237309764
10
167.00000000001393
20
68.904000000018868
10
167.00000000001393
20
-1.0959999999811414
42
-0.41421356237309687
10
162.00000000001387
20
-6.0959999999811378
10
92.000000000013884
20
-6.0959999999811378
42
-0.41421356237309476
10
87.000000000013884
20
-1.0959999999811418
10
87.000000000013927
20
68.904000000018868
42
-0.41421356237309553
0
LWPOLYLINE
5
103
100
AcDbEntity
8
0
100
AcDbPolyline
90
8
70
1
43
0.0
10
402.00000000001398
20
731.90400000001887
42
0.41421356237309503
10
392.00000000001398
20
741.90400000001887
10
-137.99999999998619
20
741.90400000001887
42
0.41421356237309609
10
-147.99999999998622
20
731.90400000001887
10
-147.99999999998624
20
-48.095999999981096
42
0.41421356237309503
10
-137.99999999998624
20
-58.095999999981096
10
392.00000000001398
20
-58.095999999981096
42
0.41421356237309503
10
402.00000000001398
20
-48.095999999981096
0
CIRCLE
5
104
100
AcDbEntity
8
0
100
AcDbCircle
10
77.000000000013898
20
-16.095999999981135
30
0
40
2.5499999999999989
210
-1.0381022375924995e-17
220
0
230
1
0
CIRCLE
5
105
100
AcDbEntity
8
0
100
AcDbCircle
10
77.000000000013898
20
491.90400000001887
30
3.5527136788005009e-14
40
2.5499999999999989
210
-1.0381022375924995e-17
220
0
230
1
0
CIRCLE
5
106
100
AcDbEntity
8
0
100
AcDbCircle
10
177.00000000001393
20
491.90400000001887
30
3.5527136788005009e-14
40
2.5499999999999901
210
-1.0381022375924995e-17
220
0
230
1
0
CIRCLE
5
107
100
AcDbEntity
8
0
100
AcDbCircle
10
177.00000000001393
20
83.904000000018868
30
0
40
2.5499999999999901
210
-1.0381022375912373e-17
220
0
230
1
0
CIRCLE
5
108
100
AcDbEntity
8
0
100
AcDbCircle
10
77.000000000013898
20
83.904000000018868
30
0
40
2.5499999999999989
210
-1.0381022375924995e-17
220
0
230
1
0
CIRCLE
5
109
100
AcDbEntity
8
0
100
AcDbCircle
10
77.000000000013898
20
591.90400000001887
30
5.3290705182007514e-14
40
2.5499999999999989
210
-1.0381022375924995e-17
220
0
230
1
0
CIRCLE
5
110
100
AcDbEntity
8
0
100
AcDbCircle
10
177.00000000001393
20
337.90400000001881
30
0
40
2.5499999999999901
210
-1.0381022375912373e-17
220
0
230
1
0
CIRCLE
5
111
100
AcDbEntity
8
0
100
AcDbCircle
10
77.000000000013898
20
337.90400000001881
30
0
40
2.5499999999999989
210
-1.0381022375924995e-17
220
0
230
1
0
CIRCLE
5
112
100
AcDbEntity
8
0
100
AcDbCircle
10
177.00000000001393
20
237.90400000001887
30
0
40
2.5499999999999901
210
-1.0381022375924995e-17
220
0
230
1
0
CIRCLE
5
113
100
AcDbEntity
8
0
100
AcDbCircle
10
77.000000000013898
20
237.90400000001887
30
0
40
2.5499999999999989
210
-1.0381022375924995e-17
220
0
230
1
0
CIRCLE
5
114
100
AcDbEntity
8
0
100
AcDbCircle
10
177.00000000001393
20
591.90400000001887
30
5.3290705182007514e-14
40
2.5499999999999901
210
-1.0381022375912373e-17
220
0
230
1
0
CIRCLE
5
115
100
AcDbEntity
8
0
100
AcDbCircle
10
177.00000000001393
20
-16.095999999981135
30
-1.7763568394002505e-14
40
2.5499999999999901
210
-1.0381022375912373e-17
220
0
230
1
0
CIRCLE
5
116
100
AcDbEntity
8
0
100
AcDbCircle
10
-137.99999999998622
20
731.90400000001887
30
-1.6875389974302379e-12
40
2.5500000000000256
210
0
220
0
230
1
0
CIRCLE
5
117
100
AcDbEntity
8
0
100
AcDbCircle
10
38.666666666680442
20
731.90400000001887
30
3.5527136788005009e-14
40
2.5500000000000256
210
0
220
0
230
1
0
CIRCLE
5
118
100
AcDbEntity
8
0
100
AcDbCircle
10
215.3333333333471
20
731.90400000001887
30
1.7763568394002505e-14
40
2.5500000000000256
210
0
220
0
230
1
0
CIRCLE
5
119
100
AcDbEntity
8
0
100
AcDbCircle
10
392.00000000001398
20
731.90400000001887
30
2.3270274596143281e-12
40
2.5500000000000256
210
0
220
0
230
1
0
CIRCLE
5
120
100
AcDbEntity
8
0
100
AcDbCircle
10
-137.99999999998624
20
536.90400000001887
30
1.7763568394002505e-14
40
2.5500000000000256
210
0
220
0
230
1
0
CIRCLE
5
121
100
AcDbEntity
8
0
100
AcDbCircle
10
392.00000000001376
20
536.90400000001887
30
1.7763568394002505e-14
40
2.5500000000000256
210
0
220
0
230
1
0
CIRCLE
5
122
100
AcDbEntity
8
0
100
AcDbCircle
10
-137.99999999998624
20
341.90400000001887
30
1.7763568394002505e-14
40
2.5500000000000256
210
0
220
0
230
1
0
CIRCLE
5
123
100
AcDbEntity
8
0
100
AcDbCircle
10
392.00000000001376
20
341.90400000001887
30
3.5527136788005009e-14
40
2.5500000000000256
210
0
220
0
230
1
0
CIRCLE
5
124
100
AcDbEntity
8
0
100
AcDbCircle
10
-137.99999999998624
20
146.9040000000189
30
1.7763568394002505e-14
40
2.5500000000000256
210
0
220
0
230
1
0
CIRCLE
5
125
100
AcDbEntity
8
0
100
AcDbCircle
10
392.00000000001376
20
146.9040000000189
30
3.5527136788005009e-14
40
2.5500000000000256
210
0
220
0
230
1
0
CIRCLE
5
126
100
AcDbEntity
8
0
100
AcDbCircle
10
-137.99999999998624
20
-48.095999999981096
30
-2.3270274596143281e-12
40
2.5500000000000256
210
0
220
0
230
1
0
CIRCLE
5
127
100
AcDbEntity
8
0
100
AcDbCircle
10
38.666666666680442
20
-48.095999999981096
30
3.5527136788005009e-14
40
2.5500000000000256
210
0
220
0
230
1
0
CIRCLE
5
128
100
AcDbEntity
8
0
100
AcDbCircle
10
215.3333333333471
20
-48.095999999981096
30
1.7763568394002505e-14
40
2.5500000000000256
210
0
220
0
230
1
0
CIRCLE
5
129
100
AcDbEntity
8
0
100
AcDbCircle
10
392.00000000001398
20
-48.095999999981096
30
1.6875389974302379e-12
40
2.5500000000000256
210
0
220
0
230
1
0
CIRCLE
5
130
100
AcDbEntity
8
0
100
AcDbCircle
10
77.000000000013898
20
-16.095999999981135
30
0
40
2.5499999999999989
210
-3.2980060729936181e-51
220
-1.3242592379476395e-86
230
1
0
CIRCLE
5
131
100
AcDbEntity
8
0
100
AcDbCircle
10
77.000000000013898
20
491.90400000001887
30
0
40
2.5499999999999989
210
2.2328357686993538e-48
220
-6.0699298334153308e-81
230
1
0
CIRCLE
5
132
100
AcDbEntity
8
0
100
AcDbCircle
10
177.00000000001393
20
491.90400000001887
30
0
40
2.5499999999999901
210
2.2328357686993611e-48
220
-6.0699298334153505e-81
230
1
0
CIRCLE
5
133
100
AcDbEntity
8
0
100
AcDbCircle
10
177.00000000001393
20
83.904000000018868
30
0
40
2.5499999999999901
210
-1.5237359105763545e-49
220
-2.8267637619359035e-83
230
1
0
CIRCLE
5
134
100
AcDbEntity
8
0
100
AcDbCircle
10
77.000000000013898
20
83.904000000018868
30
0
40
2.5499999999999989
210
-1.5237359105781895e-49
220
-2.8267637621101244e-83
230
1
0
CIRCLE
5
135
100
AcDbEntity
8
0
100
AcDbCircle
10
77.000000000013898
20
591.90400000001887
30
0
40
2.5499999999999989
210
2.2328357686993538e-48
220
-6.0699298334153308e-81
230
1
0
CIRCLE
5
136
100
AcDbEntity
8
0
100
AcDbCircle
10
177.00000000001393
20
337.90400000001881
30
0
40
2.5499999999999901
210
2.2328357686967005e-48
220
-6.0699298334081173e-81
230
1
0
LWPOLYLINE
5
137
100
AcDbEntity
8
0
100
AcDbPolyline
90
8
70
1
43
0.0
10
92.000000000013898
20
327.90400000001881
10
162.00000000001387
20
327.90400000001881
42
-0.41421356237309709
10
167.00000000001393
20
322.90400000001881
10
167.00000000001393
20
252.90400000001884
42
-0.41421356237309503
10
162.00000000001387
20
247.90400000001887
10
92.000000000013884
20
247.90400000001884
42
-0.41421356237309503
10
87.000000000013884
20
252.90400000001884
10
87.000000000013898
20
322.90400000001881
42
-0.41421356237309503
0
CIRCLE
5
138
100
AcDbEntity
8
0
100
AcDbCircle
10
77.000000000013898
20
337.90400000001881
30
1.7763568394002505e-14
40
2.5499999999999989
210
2.2328357686993538e-48
220
-6.0699298334153308e-81
230
1
0
CIRCLE
5
139
100
AcDbEntity
8
0
100
AcDbCircle
10
177.00000000001393
20
237.90400000001887
30
0
40
2.5499999999999901
210
-1.5237359105781727e-49
220
-2.8267637619392769e-83
230
1
0
CIRCLE
5
140
100
AcDbEntity
8
0
100
AcDbCircle
10
77.000000000013898
20
237.90400000001887
30
0
40
2.5499999999999989
210
-1.5237359105781674e-49
220
-2.8267637621100835e-83
230
1
0
CIRCLE
5
141
100
AcDbEntity
8
0
100
AcDbCircle
10
177.00000000001393
20
591.90400000001887
30
-1.7763568394002505e-14
40
2.5499999999999901
210
2.2328357686967005e-48
220
-6.0699298334081173e-81
230
1
0
LWPOLYLINE
5
142
100
AcDbEntity
8
0
100
AcDbPolyline
90
8
70
1
43
0.0
10
92.000000000013898
20
581.90400000001887
10
162.00000000001387
20
581.90400000001887
42
-0.41421356237309709
10
167.00000000001393
20
576.90400000001887
10
167.00000000001393
20
506.90400000001887
42
-0.41421356237309709
10
162.00000000001387
20
501.90400000001887
10
92.000000000013884
20
501.90400000001887
42
-0.41421356237309503
10
87.000000000013884
20
506.90400000001887
10
87.000000000013898
20
576.90400000001887
42
-0.41421356237309503
0
LWPOLYLINE
5
143
100
AcDbEntity
8
0
100
AcDbPolyline
90
8
70
1
43
0.0
10
92.000000000013898
20
73.904000000018868
10
162.00000000001387
20
73.904000000018868
42
-0.41421356237309764
10
167.00000000001393
20
68.904000000018868
10
167.00000000001393
20
-1.0959999999811381
42
-0.41421356237309703
10
162.00000000001387
20
-6.0959999999811378
10
92.000000000013884
20
-6.0959999999811378
42
-0.41421356237309481
10
87.000000000013884
20
-1.0959999999811409
10
87.000000000013927
20
68.904000000018868
42
-0.41421356237309553
0
CIRCLE
5
144
100
AcDbEntity
8
0
100
AcDbCircle
10
177.00000000001393
20
-16.095999999981135
30
-1.7763568394002505e-14
40
2.5499999999999901
210
-3.2980060729892222e-51
220
-1.3242592342486817e-86
230
1
0
LWPOLYLINE
5
145
100
AcDbEntity
8
0
100
AcDbPolyline
90
8
70
1
43
0.0
10
402.00000000001398
20
731.90400000001887
42
0.41421356237310336
10
392.00000000001398
20
741.90400000001887
10
-137.99999999998619
20
741.90400000001887
42
0.41421356237310281
10
-147.99999999998616
20
731.90400000001887
10
-147.99999999998624
20
-48.095999999981132
42
0.41421356237309453
10
-137.99999999998624
20
-58.095999999981117
10
392.00000000001398
20
-58.095999999981096
42
0.41421356237309453
10
402.00000000001398
20
-48.095999999981096
0
CIRCLE
5
146
100
AcDbEntity
8
0
100
AcDbCircle
10
-137.99999999998624
20
731.90400000001887
30
0
40
2.5500000000000256
210
0
220
0
230
1
0
CIRCLE
5
147
100
AcDbEntity
8
0
100
AcDbCircle
10
38.666666666680442
20
731.90400000001887
30
0
40
2.5500000000000256
210
0
220
0
230
1
0
CIRCLE
5
148
100
AcDbEntity
8
0
100
AcDbCircle
10
215.3333333333471
20
731.90400000001887
30
0
40
2.5500000000000256
210
0
220
0
230
1
0
CIRCLE
5
149
100
AcDbEntity
8
0
100
AcDbCircle
10
392.00000000001376
20
731.90400000001887
30
0
40
2.5500000000000256
210
0
220
0
230
1
0
CIRCLE
5
150
100
AcDbEntity
8
0
100
AcDbCircle
10
-137.99999999998624
20
536.90400000001887
30
0
40
2.5500000000000256
210
0
220
0
230
1
0
CIRCLE
5
151
100
AcDbEntity
8
0
100
AcDbCircle
10
392.00000000001376
20
536.90400000001887
30
0
40
2.5500000000000256
210
0
220
0
230
1
0
CIRCLE
5
152
100
AcDbEntity
8
0
100
AcDbCircle
10
-137.99999999998624
20
341.90400000001887
30
0
40
2.5500000000000256
210
0
220
0
230
1
0
CIRCLE
5
153
100
AcDbEntity
8
0
100
AcDbCircle
10
392.00000000001376
20
341.90400000001887
30
0
40
2.5500000000000256
210
0
220
0
230
1
0
CIRCLE
5
154
100
AcDbEntity
8
0
100
AcDbCircle
10
-137.99999999998624
20
146.9040000000189
30
0
40
2.5500000000000256
210
0
220
0
230
1
0
CIRCLE
5
155
100
AcDbEntity
8
0
100
AcDbCircle
10
392.00000000001376
20
146.9040000000189
30
0
40
2.5500000000000256
210
0
220
0
230
1
0
CIRCLE
5
156
100
AcDbEntity
8
0
100
AcDbCircle
10
-137.99999999998624
20
-48.095999999981096
30
0
40
2.5500000000000256
210
0
220
0
230
1
0
CIRCLE
5
157
100
AcDbEntity
8
0
100
AcDbCircle
10
38.666666666680442
20
-48.095999999981096
30
0
40
2.5500000000000256
210
0
220
0
230
1
0
CIRCLE
5
158
100
AcDbEntity
8
0
100
AcDbCircle
10
215.3333333333471
20
-48.095999999981096
30
0
40
2.5500000000000256
210
0
220
0
230
1
0
CIRCLE
5
159
100
AcDbEntity
8
0
100
AcDbCircle
10
392.00000000001376
20
-48.095999999981096
30
0
40
2.5500000000000256
210
0
220
0
230
1
0
ENDSEC
0
SECTION
2
OBJECTS
0
DICTIONARY
5
C
100
AcDbDictionary
3
ACAD_GROUP
350
D
3
ACAD_MLINESTYLE
350
17
0
DICTIONARY
5
D
100
AcDbDictionary
0
DICTIONARY
5
1A
330
C
100
AcDbDictionary
0
DICTIONARY
5
17
100
AcDbDictionary
0
ENDSEC
0
EOF
